{
.appVersion = "939";
copyright = "Copyright 2011 Google Inc. All Rights Reserved.";
customParameters = (
{
name = license;
value = "Licensed under the Apache License, Version 2.0";
},
{
name = licenseURL;
value = "http://www.apache.org/licenses/LICENSE-2.0";
},
{
name = vendorID;
value = GOOG;
},
{
name = panose;
value = (
0,
0,
0,
0,
0,
0,
0,
0,
0,
0
);
},
{
name = unicodeRanges;
value = (
0,
1,
2,
3,
4,
5,
6,
7,
9,
29,
30,
31,
32,
33,
34,
35,
36,
37,
38,
40,
45,
60,
62,
64,
69
);
},
{
name = codePageRanges;
value = (
1252,
1250,
1251,
1253,
1254,
1257,
1258
);
},
{
name = glyphOrder;
value = (
.notdef,
uni0000,
uni0002,
uni0009,
uni000D,
space,
exclam,
quotedbl,
numbersign,
dollar,
percent,
ampersand,
quotesingle,
parenleft,
parenright,
asterisk,
plus,
comma,
hyphen,
period,
slash,
zero,
one,
two,
three,
four,
five,
six,
seven,
eight,
nine,
colon,
semicolon,
less,
equal,
greater,
question,
at,
A,
B,
C,
D,
E,
F,
G,
H,
I,
J,
K,
L,
M,
N,
O,
P,
Q,
R,
S,
T,
U,
V,
W,
X,
Y,
Z,
bracketleft,
backslash,
bracketright,
asciicircum,
underscore,
grave,
a,
b,
c,
d,
e,
f,
g,
h,
i,
j,
k,
l,
m,
n,
o,
p,
q,
r,
s,
t,
u,
v,
w,
x,
y,
z,
braceleft,
bar,
braceright,
asciitilde,
exclamdown,
cent,
sterling,
currency,
yen,
brokenbar,
section,
dieresis,
copyright,
ordfeminine,
guillemotleft,
logicalnot,
registered,
macron,
degree,
plusminus,
twosuperior,
threesuperior,
acute,
mu,
paragraph,
periodcentered,
cedilla,
onesuperior,
ordmasculine,
guillemotright,
onequarter,
onehalf,
threequarters,
questiondown,
AE,
multiply,
Oslash,
Thorn,
germandbls,
ae,
eth,
divide,
oslash,
thorn,
dcroat,
Hbar,
dotlessi,
kgreenlandic,
Lslash,
lslash,
Eng,
eng,
OE,
oe,
longs,
uni0180,
uni0181,
uni0182,
uni0183,
uni0184,
uni0185,
uni0186,
uni0187,
uni0188,
uni0189,
uni018A,
uni018B,
uni018C,
uni018D,
uni018E,
uni018F,
uni0190,
uni0191,
florin,
uni0193,
uni0194,
uni0195,
uni0197,
uni0198,
uni0199,
uni019A,
uni019B,
uni019C,
uni019D,
Ohorn,
ohorn,
uni01A2,
uni01A3,
uni01A4,
uni01A5,
uni01A6,
uni01A7,
uni01A8,

glyphs = (
{
glyphname = .notdef;
lastChange = "2017-05-19 14:54:55 +0000";
layers = (
{
layerId = "3D6436C0-838D-49FE-97BE-67FAF848B66F";
paths = (
{
closed = 1;
nodes = (
"808 1456 LINE",
"100 1456 LINE",
"100 0 LINE",
"808 0 LINE"
);
},
{
closed = 1;
nodes = (
"452 796 LINE",
"194 1402 LINE",
"709 1402 LINE"
);
},
{
closed = 1;
nodes = (
"754 84 LINE",
"480 728 LINE",
"754 1372 LINE"
);
},
{
closed = 1;
nodes = (
"154 96 LINE",
"154 1360 LINE",
"422 728 LINE"
);
},
{
closed = 1;
nodes = (
"709 54 LINE",
"194 54 LINE",
"452 660 LINE"
);
}
);
width = 918;
}
);
note = .notdef;
},
{
glyphname = exclam;
lastChange = "2017-05-19 14:54:55 +0000";
layers = (
{
layerId = "3D6436C0-838D-49FE-97BE-67FAF848B66F";
paths = (
{
closed = 1;
nodes = (
"128 401 LINE",
"182 401 LINE",
"363 1456 LINE",
"309 1456 LINE"
);
},
{
closed = 1;
nodes = (
"42 22 OFFCURVE",
"63 -6 OFFCURVE",
"94 -6 CURVE SMOOTH",
"130 -6 OFFCURVE",
"151 12 OFFCURVE",
"156 47 CURVE SMOOTH",
"160 76 OFFCURVE",
"137 105 OFFCURVE",
"108 105 CURVE SMOOTH",
"73 105 OFFCURVE",
"52 87 OFFCURVE",
"47 51 CURVE SMOOTH"
);
}
);
width = 385;
}
);
note = exclam;
unicode = 0021;
},
{
glyphname = quotedbl;
lastChange = "2017-05-19 14:54:55 +0000";
layers = (
{
layerId = "3D6436C0-838D-49FE-97BE-67FAF848B66F";
paths = (
{
closed = 1;
nodes = (
"274 1395 LINE",
"227 1122 LINE",
"277 1122 LINE",
"328 1388 LINE",
"350 1536 LINE",
"295 1536 LINE"
);
},
{
closed = 1;
nodes = (
"476 1442 OFFCURVE",
"453 1304 OFFCURVE",
"422 1122 CURVE",
"472 1122 LINE",
"523 1388 LINE",
"545 1536 LINE",
"491 1536 LINE"
);
}
);
width = 505;
}
);
leftKerningGroup = quotedbl;
note = quotedbl;
rightKerningGroup = quotedbl;
unicode = 0022;
},
{
glyphname = numbersign;
lastChange = "2017-05-19 14:54:55 +0000";
layers = (
{
layerId = "3D6436C0-838D-49FE-97BE-67FAF848B66F";
paths = (
{
closed = 1;
nodes = (
"743 410 LINE",
"1028 410 LINE",
"1035 462 LINE",
"761 462 LINE",
"945 986 LINE",
"1201 986 LINE",
"1208 1040 LINE",
"964 1040 LINE",
"1108 1455 LINE",
"1052 1455 LINE",
"906 1040 LINE",
"556 1040 LINE",
"700 1455 LINE",
"643 1455 LINE",
"498 1040 LINE",
"198 1040 LINE",
"191 986 LINE",
"479 986 LINE",
"296 462 LINE",
"24 462 LINE",
"17 410 LINE",
"278 410 LINE",
"137 0 LINE",
"193 0 LINE",
"337 410 LINE",
"685 410 LINE",
"543 0 LINE",
"599 0 LINE"
);
},
{
closed = 1;
nodes = (
"887 986 LINE",
"703 462 LINE",
"354 462 LINE",
"538 986 LINE"
);
}
);
width = 1087;
}
);
note = numbersign;
unicode = 0023;
},
{
glyphname = dollar;
lastChange = "2017-05-19 14:54:55 +0000";
layers = (
{
layerId = "3D6436C0-838D-49FE-97BE-67FAF848B66F";
paths = (
{
closed = 1;
nodes = (
"942 416 OFFCURVE",
"936 475 OFFCURVE",
"913 524 CURVE SMOOTH",
"867 621 OFFCURVE",
"765 689 OFFCURVE",
"593 755 CURVE SMOOTH",
"421 821 OFFCURVE",
"258 900 OFFCURVE",
"295 1112 CURVE SMOOTH",
"330 1305 OFFCURVE",
"503 1424 OFFCURVE",
"694 1424 CURVE SMOOTH",
"917 1424 OFFCURVE",
"1007 1250 OFFCURVE",
"980 1047 CURVE",
"1033 1047 LINE",
"1064 1276 OFFCURVE",
"969 1457 OFFCURVE",
"725 1476 CURVE",
"756 1663 LINE",
"701 1663 LINE",
"670 1476 LINE",
"455 1461 OFFCURVE",
"273 1333 OFFCURVE",
"241 1110 CURVE SMOOTH",
"231 1045 OFFCURVE",
"235 990 OFFCURVE",
"254 944 CURVE SMOOTH",
"290 852 OFFCURVE",
"375 783 OFFCURVE",
"566 707 CURVE SMOOTH",
"661 669 OFFCURVE",
"731 634 OFFCURVE",
"775 601 CURVE SMOOTH",
"862 536 OFFCURVE",
"897 457 OFFCURVE",
"877 344 CURVE SMOOTH",
"842 153 OFFCURVE",
"659 33 OFFCURVE",
"474 32 CURVE SMOOTH",
"243 31 OFFCURVE",
"108 180 OFFCURVE",
"139 409 CURVE",
"86 409 LINE",
"54 153 OFFCURVE",
"197 -8 OFFCURVE",
"452 -20 CURVE",
"421 -208 LINE",
"476 -208 LINE",
"507 -20 LINE",
"719 -3 OFFCURVE",
"899 126 OFFCURVE",
"932 346 CURVE SMOOTH"
);
}
);
width = 1087;
}
);
note = dollar;
unicode = 0024;
},
{
glyphname = percent;
lastChange = "2017-05-19 14:54:55 +0000";
layers = (
{
layerId = "3D6436C0-838D-49FE-97BE-67FAF848B66F";
paths = (
{
closed = 1;
nodes = (
"175 951 OFFCURVE",
"250 800 OFFCURVE",
"415 800 CURVE SMOOTH",
"580 801 OFFCURVE",
"697 947 OFFCURVE",
"724 1099 CURVE SMOOTH",
"737 1176 LINE SMOOTH",
"758 1323 OFFCURVE",
"686 1477 OFFCURVE",
"521 1477 CURVE SMOOTH",
"353 1476 OFFCURVE",
"236 1329 OFFCURVE",
"208 1176 CURVE SMOOTH",
"196 1099 LINE SMOOTH"
);
},
{
closed = 1;
nodes = (
"289 1300 OFFCURVE",
"384 1422 OFFCURVE",
"521 1422 CURVE SMOOTH",
"658 1421 OFFCURVE",
"702 1293 OFFCURVE",
"683 1176 CURVE SMOOTH",
"667 1094 LINE SMOOTH",
"640 973 OFFCURVE",
"551 856 OFFCURVE",
"415 855 CURVE SMOOTH",
"278 855 OFFCURVE",
"230 980 OFFCURVE",
"250 1099 CURVE SMOOTH",
"264 1176 LINE SMOOTH"
);
},
{
closed = 1;
nodes = (
"288 164 LINE",
"330 132 LINE",
"1215 1267 LINE",
"1173 1299 LINE"
);
},
{
closed = 1;
nodes = (
"766 131 OFFCURVE",
"840 -21 OFFCURVE",
"1005 -21 CURVE SMOOTH",
"1172 -20 OFFCURVE",
"1288 127 OFFCURVE",
"1316 279 CURVE SMOOTH",
"1328 357 LINE SMOOTH",
"1349 505 OFFCURVE",
"1278 657 OFFCURVE",
"1111 657 CURVE SMOOTH",
"944 656 OFFCURVE",
"828 510 OFFCURVE",
"800 357 CURVE SMOOTH",
"787 279 LINE SMOOTH"
);
},
{
closed = 1;
nodes = (
"880 484 OFFCURVE",
"971 602 OFFCURVE",
"1111 602 CURVE SMOOTH",
"1254 601 OFFCURVE",
"1294 478 OFFCURVE",
"1274 357 CURVE SMOOTH",
"1260 279 LINE SMOOTH",
"1235 154 OFFCURVE",
"1144 34 OFFCURVE",
"1005 34 CURVE SMOOTH",
"866 35 OFFCURVE",
"822 160 OFFCURVE",
"841 279 CURVE SMOOTH",
"855 352 LINE SMOOTH"
);
}
);
width = 1481;
}
);
note = percent;
unicode = 0025;
},
{
glyphname = ampersand;
lastChange = "2017-05-19 14:54:55 +0000";
layers = (
{
layerId = "3D6436C0-838D-49FE-97BE-67FAF848B66F";
paths = (
{
closed = 1;
nodes = (
"915 215 LINE",
"1018 330 OFFCURVE",
"1082 469 OFFCURVE",
"1109 632 CURVE",
"1054 632 LINE",
"1028 488 OFFCURVE",
"971 363 OFFCURVE",
"882 258 CURVE",
"509 794 LINE",
"681 919 LINE SMOOTH",
"776 990 OFFCURVE",
"890 1088 OFFCURVE",
"909 1213 CURVE SMOOTH",
"932 1365 OFFCURVE",
"829 1477 OFFCURVE",
"677 1477 CURVE SMOOTH",
"496 1477 OFFCURVE",
"361 1342 OFFCURVE",
"336 1167 CURVE SMOOTH",
"316 1035 OFFCURVE",
"373 915 OFFCURVE",
"440 804 CURVE",
"380 761 LINE SMOOTH",
"245 662 OFFCURVE",
"96 529 OFFCURVE",
"71 352 CURVE SMOOTH",
"36 113 OFFCURVE",
"216 -20 OFFCURVE",
"439 -20 CURVE SMOOTH",
"610 -20 OFFCURVE",
"756 68 OFFCURVE",
"881 176 CURVE",
"1003 0 LINE",
"1067 0 LINE"
);
},
{
closed = 1;
nodes = (
"416 1310 OFFCURVE",
"529 1423 OFFCURVE",
"677 1423 CURVE SMOOTH",
"797 1422 OFFCURVE",
"874 1332 OFFCURVE",
"853 1213 CURVE SMOOTH",
"834 1108 OFFCURVE",
"746 1030 OFFCURVE",
"657 962 CURVE SMOOTH",
"480 835 LINE",
"419 935 OFFCURVE",
"371 1049 OFFCURVE",
"392 1169 CURVE SMOOTH"
);
},
{
closed = 1;
nodes = (
"152 509 OFFCURVE",
"293 632 OFFCURVE",
"412 723 CURVE SMOOTH",
"469 764 LINE",
"495 725 LINE",
"848 218 LINE",
"736 114 OFFCURVE",
"596 34 OFFCURVE",
"439 34 CURVE SMOOTH",
"250 35 OFFCURVE",
"92 149 OFFCURVE",
"125 352 CURVE SMOOTH"
);
}
);
width = 1210;
}
);
note = ampersand;
unicode = 0026;
},
{
glyphname = quotesingle;
lastChange = "2017-05-19 14:54:55 +0000";
layers = (
{
layerId = "3D6436C0-838D-49FE-97BE-67FAF848B66F";
paths = (
{
closed = 1;
nodes = (
"260 1370 LINE",
"213 1122 LINE",
"264 1122 LINE",
"314 1362 LINE",
"341 1536 LINE",
"286 1536 LINE"
);
}
);
width = 330;
}
);
leftKerningGroup = quotedbl;
note = quotesingle;
rightKerningGroup = quotedbl;
unicode = 0027;
},
{
glyphname = parenleft;
lastChange = "2017-05-19 14:54:55 +0000";
layers = (
{
layerId = "3D6436C0-838D-49FE-97BE-67FAF848B66F";
paths = (
{
closed = 1;
nodes = (
"480 1491 OFFCURVE",
"329 1241 OFFCURVE",
"238 970 CURVE SMOOTH",
"146 699 OFFCURVE",
"112 474 OFFCURVE",
"115 206 CURVE SMOOTH",
"118 -61 OFFCURVE",
"186 -322 OFFCURVE",
"381 -469 CURVE",
"405 -428 LINE",
"336 -375 OFFCURVE",
"283 -304 OFFCURVE",
"247 -216 CURVE SMOOTH",
"187 -69 OFFCURVE",
"161 108 OFFCURVE",
"170 316 CURVE SMOOTH",
"173 408 OFFCURVE",
"180 491 OFFCURVE",
"191 564 CURVE",
"196 590 LINE SMOOTH",
"215 704 OFFCURVE",
"245 825 OFFCURVE",
"288 953 CURVE SMOOTH",
"373 1208 OFFCURVE",
"513 1445 OFFCURVE",
"717 1578 CURVE",
"704 1623 LINE"
);
}
);
width = 589;
}
);
note = parenleft;
unicode = 0028;
},
{
glyphname = parenright;
lastChange = "2017-05-19 14:54:55 +0000";
layers = (
{
layerId = "3D6436C0-838D-49FE-97BE-67FAF848B66F";
paths = (
{
closed = 1;
nodes = (
"58 -365 OFFCURVE",
"187 -201 OFFCURVE",
"293 43 CURVE SMOOTH",
"399 287 OFFCURVE",
"471 591 OFFCURVE",
"466 946 CURVE SMOOTH",
"462 1213 OFFCURVE",
"394 1478 OFFCURVE",
"202 1622 CURVE",
"178 1581 LINE",
"247 1529 OFFCURVE",
"299 1460 OFFCURVE",
"335 1373 CURVE SMOOTH",
"395 1228 OFFCURVE",
"421 1050 OFFCURVE",
"414 839 CURVE SMOOTH",
"410 746 OFFCURVE",
"403 663 OFFCURVE",
"392 590 CURVE",
"387 564 LINE SMOOTH",
"368 449 OFFCURVE",
"338 328 OFFCURVE",
"295 201 CURVE SMOOTH",
"210 -54 OFFCURVE",
"69 -292 OFFCURVE",
"-134 -425 CURVE",
"-121 -470 LINE"
);
}
);
width = 604;
}
);
note = parenright;
unicode = 0029;
},
{
glyphname = asterisk;
lastChange = "2017-05-19 14:54:55 +0000";
layers = (
{
layerId = "3D6436C0-838D-49FE-97BE-67FAF848B66F";
paths = (
{
closed = 1;
nodes = (
"489 985 LINE",
"668 664 LINE",
"717 695 LINE",
"529 1012 LINE",
"904 1150 LINE",
"891 1204 LINE",
"527 1064 LINE",
"602 1456 LINE",
"546 1456 LINE",
"477 1061 LINE",
"147 1194 LINE",
"122 1142 LINE",
"452 1019 LINE",
"169 695 LINE",
"212 662 LINE"
);
}
);
width = 830;
}
);
note = asterisk;
unicode = 002A;
},
{
glyphname = plus;
lastChange = "2017-05-19 14:54:55 +0000";
layers = (
{
layerId = "3D6436C0-838D-49FE-97BE-67FAF848B66F";
paths = (
{
closed = 1;
nodes = (
"590 702 LINE",
"677 1206 LINE",
"622 1206 LINE",
"535 702 LINE",
"86 702 LINE",
"79 649 LINE",
"526 649 LINE",
"440 146 LINE",
"494 146 LINE",
"581 649 LINE",
"1048 649 LINE",
"1056 702 LINE"
);
}
);
width = 1116;
}
);
note = plus;
unicode = 002B;
},
{
glyphname = comma;
lastChange = "2017-05-19 14:54:55 +0000";
layers = (
{
layerId = "3D6436C0-838D-49FE-97BE-67FAF848B66F";
paths = (
{
closed = 1;
nodes = (
"74 25 LINE SMOOTH",
"59 -59 OFFCURVE",
"16 -141 OFFCURVE",
"-55 -221 CURVE",
"-21 -255 LINE",
"59 -179 OFFCURVE",
"109 -85 OFFCURVE",
"129 27 CURVE SMOOTH",
"151 159 LINE",
"97 159 LINE"
);
}
);
width = 372;
}
);
leftKerningGroup = comma;
note = comma;
rightKerningGroup = comma;
unicode = 002C;
},
{
glyphname = hyphen;
lastChange = "2017-05-19 14:54:55 +0000";
layers = (
{
layerId = "3D6436C0-838D-49FE-97BE-67FAF848B66F";
paths = (
{
closed = 1;
nodes = (
"66 639 LINE",
"524 639 LINE",
"531 693 LINE",
"74 693 LINE"
);
}
);
width = 589;
}
);
leftKerningGroup = hyphen;
note = hyphen;
unicode = 002D;
},
{
glyphname = period;
lastChange = "2017-05-19 14:54:55 +0000";
layers = (
{
layerId = "3D6436C0-838D-49FE-97BE-67FAF848B66F";
paths = (
{
closed = 1;
nodes = (
"42 22 OFFCURVE",
"63 -6 OFFCURVE",
"94 -6 CURVE SMOOTH",
"130 -6 OFFCURVE",
"151 12 OFFCURVE",
"156 47 CURVE SMOOTH",
"160 76 OFFCURVE",
"137 105 OFFCURVE",
"108 105 CURVE SMOOTH",
"73 105 OFFCURVE",
"52 87 OFFCURVE",
"47 51 CURVE SMOOTH"
);
}
);
width = 426;
}
);
leftKerningGroup = comma;
note = period;
rightKerningGroup = comma;
unicode = 002E;
},
{
glyphname = slash;
lastChange = "2017-05-19 14:54:55 +0000";
layers = (
{
layerId = "3D6436C0-838D-49FE-97BE-67FAF848B66F";
paths = (
{
closed = 1;
nodes = (
"-86 -124 LINE",
"-26 -124 LINE",
"836 1455 LINE",
"776 1455 LINE"
);
}
);
width = 759;
}
);
note = slash;
unicode = 002F;
},
{
glyphname = zero;
lastChange = "2017-05-19 14:54:55 +0000";
layers = (
{
layerId = "3D6436C0-838D-49FE-97BE-67FAF848B66F";
paths = (
{
closed = 1;
nodes = (
"552 -20 OFFCURVE",
"643 12 OFFCURVE",
"714 76 CURVE SMOOTH",
"856 204 OFFCURVE",
"933 410 OFFCURVE",
"965 594 CURVE SMOOTH",
"1011 856 LINE SMOOTH",
"1026 941 OFFCURVE",
"1029 1034 OFFCURVE",
"1020 1133 CURVE SMOOTH",
"1003 1324 OFFCURVE",
"913 1477 OFFCURVE",
"689 1477 CURVE SMOOTH",
"580 1477 OFFCURVE",
"489 1445 OFFCURVE",
"418 1381 CURVE SMOOTH",
"275 1253 OFFCURVE",
"197 1046 OFFCURVE",
"165 862 CURVE SMOOTH",
"119 594 LINE SMOOTH",
"105 511 OFFCURVE",
"102 421 OFFCURVE",
"111 324 CURVE SMOOTH",
"128 133 OFFCURVE",
"219 -20 OFFCURVE",
"442 -20 CURVE SMOOTH"
);
},
{
closed = 1;
nodes = (
"972 976 OFFCURVE",
"967 916 OFFCURVE",
"958 862 CURVE SMOOTH",
"912 602 LINE SMOOTH",
"897 518 OFFCURVE",
"872 432 OFFCURVE",
"836 345 CURVE SMOOTH",
"763 169 OFFCURVE",
"638 34 OFFCURVE",
"441 34 CURVE SMOOTH",
"270 34 OFFCURVE",
"176 142 OFFCURVE",
"160 359 CURVE",
"158 418 LINE",
"159 482 OFFCURVE",
"164 541 OFFCURVE",
"173 596 CURVE SMOOTH",
"217 850 LINE SMOOTH",
"232 935 OFFCURVE",
"257 1022 OFFCURVE",
"294 1111 CURVE SMOOTH",
"367 1289 OFFCURVE",
"493 1423 OFFCURVE",
"690 1423 CURVE SMOOTH",
"764 1423 OFFCURVE",
"822 1405 OFFCURVE",
"863 1370 CURVE SMOOTH",
"946 1298 OFFCURVE",
"976 1173 OFFCURVE",
"973 1041 CURVE SMOOTH"
);
}
);
width = 1087;
}
);
note = zero;
unicode = 0030;
},
{
glyphname = one;
lastChange = "2017-05-19 14:54:55 +0000";
layers = (
{
layerId = "3D6436C0-838D-49FE-97BE-67FAF848B66F";
paths = (
{
closed = 1;
nodes = (
"299 1290 LINE",
"291 1232 LINE",
"722 1385 LINE",
"482 0 LINE",
"536 0 LINE",
"786 1460 LINE",
"773 1460 LINE"
);
}
);
width = 1087;
}
);
note = one;
unicode = 0031;
},
{
glyphname = two;
lastChange = "2017-05-19 14:54:55 +0000";
layers = (
{
layerId = "3D6436C0-838D-49FE-97BE-67FAF848B66F";
paths = (
{
closed = 1;
nodes = (
"623 548 LINE SMOOTH",
"767 693 OFFCURVE",
"961 870 OFFCURVE",
"994 1085 CURVE SMOOTH",
"1029 1320 OFFCURVE",
"887 1477 OFFCURVE",
"651 1476 CURVE SMOOTH",
"406 1475 OFFCURVE",
"222 1277 OFFCURVE",
"182 1045 CURVE",
"236 1045 LINE",
"276 1248 OFFCURVE",
"436 1421 OFFCURVE",
"652 1422 CURVE SMOOTH",
"857 1422 OFFCURVE",
"973 1286 OFFCURVE",
"938 1085 CURVE SMOOTH",
"906 894 OFFCURVE",
"736 735 OFFCURVE",
"607 604 CURVE SMOOTH",
"61 54 LINE",
"55 0 LINE",
"900 0 LINE",
"907 54 LINE",
"135 54 LINE"
);
}
);
width = 1087;
}
);
note = two;
unicode = 0032;
},
{
glyphname = three;
lastChange = "2017-05-19 14:54:55 +0000";
layers = (
{
layerId = "3D6436C0-838D-49FE-97BE-67FAF848B66F";
paths = (
{
closed = 1;
nodes = (
"748 710 OFFCURVE",
"930 619 OFFCURVE",
"890 382 CURVE SMOOTH",
"854 165 OFFCURVE",
"679 34 OFFCURVE",
"463 34 CURVE SMOOTH",
"247 34 OFFCURVE",
"94 186 OFFCURVE",
"122 405 CURVE",
"68 405 LINE",
"39 154 OFFCURVE",
"215 -20 OFFCURVE",
"464 -20 CURVE SMOOTH",
"707 -20 OFFCURVE",
"909 142 OFFCURVE",
"945 386 CURVE SMOOTH",
"970 565 OFFCURVE",
"877 695 OFFCURVE",
"706 744 CURVE",
"862 797 OFFCURVE",
"997 910 OFFCURVE",
"1022 1081 CURVE SMOOTH",
"1057 1312 OFFCURVE",
"912 1476 OFFCURVE",
"680 1476 CURVE SMOOTH",
"440 1476 OFFCURVE",
"245 1308 OFFCURVE",
"204 1075 CURVE",
"258 1074 LINE",
"299 1279 OFFCURVE",
"469 1422 OFFCURVE",
"680 1422 CURVE SMOOTH",
"881 1422 OFFCURVE",
"1003 1285 OFFCURVE",
"968 1085 CURVE SMOOTH",
"932 878 OFFCURVE",
"730 774 OFFCURVE",
"535 770 CURVE SMOOTH",
"430 770 LINE",
"423 714 LINE",
"537 714 LINE SMOOTH"
);
}
);
width = 1087;
}
);
note = three;
unicode = 0033;
},
{
glyphname = four;
lastChange = "2017-05-19 14:54:55 +0000";
layers = (
{
layerId = "3D6436C0-838D-49FE-97BE-67FAF848B66F";
paths = (
{
closed = 1;
nodes = (
"729 397 LINE",
"661 0 LINE",
"714 0 LINE",
"783 397 LINE",
"1028 397 LINE",
"1035 451 LINE",
"792 451 LINE",
"965 1456 LINE",
"899 1455 LINE",
"49 427 LINE",
"45 398 LINE"
);
},
{
closed = 1;
nodes = (
"900 1384 LINE",
"738 451 LINE",
"139 451 LINE",
"798 1250 LINE"
);
}
);
width = 1087;
}
);
note = four;
unicode = 0034;
},
{
glyphname = five;
lastChange = "2017-05-19 14:54:55 +0000";
layers = (
{
layerId = "3D6436C0-838D-49FE-97BE-67FAF848B66F";
paths = (
{
closed = 1;
nodes = (
"390 824 OFFCURVE",
"501 863 OFFCURVE",
"623 862 CURVE SMOOTH",
"852 861 OFFCURVE",
"951 673 OFFCURVE",
"918 462 CURVE SMOOTH",
"882 234 OFFCURVE",
"754 34 OFFCURVE",
"503 34 CURVE SMOOTH",
"287 34 OFFCURVE",
"187 178 OFFCURVE",
"196 383 CURVE",
"142 383 LINE",
"131 151 OFFCURVE",
"262 -20 OFFCURVE",
"503 -20 CURVE SMOOTH",
"786 -19 OFFCURVE",
"936 207 OFFCURVE",
"973 464 CURVE SMOOTH",
"1009 705 OFFCURVE",
"881 916 OFFCURVE",
"621 916 CURVE SMOOTH",
"514 916 OFFCURVE",
"399 883 OFFCURVE",
"312 819 CURVE",
"465 1403 LINE",
"1106 1403 LINE",
"1112 1456 LINE",
"423 1456 LINE",
"250 763 LINE",
"290 747 LINE"
);
}
);
width = 1087;
}
);
note = five;
unicode = 0035;
},
{
glyphname = six;
lastChange = "2017-05-19 14:54:55 +0000";
layers = (
{
layerId = "3D6436C0-838D-49FE-97BE-67FAF848B66F";
paths = (
{
closed = 1;
nodes = (
"977 560 OFFCURVE",
"973 636 OFFCURVE",
"953 709 CURVE SMOOTH",
"912 854 OFFCURVE",
"805 957 OFFCURVE",
"626 957 CURVE SMOOTH",
"454 957 OFFCURVE",
"297 869 OFFCURVE",
"196 733 CURVE",
"227 859 OFFCURVE",
"274 974 OFFCURVE",
"338 1079 CURVE SMOOTH",
"466 1287 OFFCURVE",
"658 1422 OFFCURVE",
"945 1422 CURVE",
"952 1476 LINE",
"786 1476 OFFCURVE",
"648 1439 OFFCURVE",
"537 1365 CURVE SMOOTH",
"315 1216 OFFCURVE",
"181 954 OFFCURVE",
"134 666 CURVE SMOOTH",
"107 492 LINE SMOOTH",
"82 317 OFFCURVE",
"132 151 OFFCURVE",
"255 53 CURVE SMOOTH",
"378 -45 OFFCURVE",
"592 -44 OFFCURVE",
"725 56 CURVE SMOOTH",
"857 156 OFFCURVE",
"941 320 OFFCURVE",
"965 480 CURVE SMOOTH"
);
},
{
closed = 1;
nodes = (
"199 679 OFFCURVE",
"232 728 OFFCURVE",
"281 770 CURVE SMOOTH",
"377 854 OFFCURVE",
"510 903 OFFCURVE",
"619 903 CURVE SMOOTH",
"862 903 OFFCURVE",
"946 692 OFFCURVE",
"911 480 CURVE SMOOTH",
"888 341 OFFCURVE",
"813 194 OFFCURVE",
"696 103 CURVE SMOOTH",
"579 11 OFFCURVE",
"387 10 OFFCURVE",
"282 99 CURVE SMOOTH",
"177 188 OFFCURVE",
"137 340 OFFCURVE",
"161 493 CURVE SMOOTH",
"182 622 LINE"
);
}
);
width = 1087;
}
);
note = six;
unicode = 0036;
},
{
glyphname = seven;
lastChange = "2017-05-19 14:54:55 +0000";
layers = (
{
layerId = "3D6436C0-838D-49FE-97BE-67FAF848B66F";
paths = (
{
closed = 1;
nodes = (
"200 1402 LINE",
"1040 1402 LINE",
"208 0 LINE",
"264 0 LINE",
"1106 1422 LINE",
"1110 1456 LINE",
"207 1456 LINE"
);
}
);
width = 1087;
}
);
note = seven;
unicode = 0037;
},
{
glyphname = eight;
lastChange = "2017-05-19 14:54:55 +0000";
layers = (
{
layerId = "3D6436C0-838D-49FE-97BE-67FAF848B66F";
paths = (
{
closed = 1;
nodes = (
"988 554 OFFCURVE",
"883 691 OFFCURVE",
"720 744 CURVE",
"880 797 OFFCURVE",
"1014 914 OFFCURVE",
"1042 1086 CURVE SMOOTH",
"1081 1318 OFFCURVE",
"919 1476 OFFCURVE",
"691 1476 CURVE SMOOTH",
"456 1476 OFFCURVE",
"257 1322 OFFCURVE",
"220 1086 CURVE SMOOTH",
"196 931 OFFCURVE",
"277 802 OFFCURVE",
"421 747 CURVE",
"244 694 OFFCURVE",
"89 570 OFFCURVE",
"58 379 CURVE SMOOTH",
"15 124 OFFCURVE",
"207 -20 OFFCURVE",
"446 -20 CURVE SMOOTH",
"693 -20 OFFCURVE",
"920 124 OFFCURVE",
"960 379 CURVE SMOOTH"
);
},
{
closed = 1;
nodes = (
"952 895 OFFCURVE",
"763 772 OFFCURVE",
"571 772 CURVE SMOOTH",
"384 772 OFFCURVE",
"239 895 OFFCURVE",
"275 1091 CURVE SMOOTH",
"312 1291 OFFCURVE",
"492 1422 OFFCURVE",
"692 1422 CURVE SMOOTH",
"879 1421 OFFCURVE",
"1025 1283 OFFCURVE",
"989 1091 CURVE SMOOTH"
);
},
{
closed = 1;
nodes = (
"864 155 OFFCURVE",
"656 34 OFFCURVE",
"445 34 CURVE SMOOTH",
"242 34 OFFCURVE",
"70 154 OFFCURVE",
"111 374 CURVE SMOOTH",
"152 590 OFFCURVE",
"363 718 OFFCURVE",
"572 718 CURVE SMOOTH",
"769 718 OFFCURVE",
"944 587 OFFCURVE",
"904 374 CURVE SMOOTH"
);
}
);
width = 1087;
}
);
note = eight;
unicode = 0038;
},
{
glyphname = nine;
lastChange = "2017-05-19 14:54:55 +0000";
layers = (
{
layerId = "3D6436C0-838D-49FE-97BE-67FAF848B66F";
paths = (
{
closed = 1;
nodes = (
"372 -20 OFFCURVE",
"503 14 OFFCURVE",
"608 82 CURVE SMOOTH",
"819 218 OFFCURVE",
"942 459 OFFCURVE",
"986 746 CURVE SMOOTH",
"1010 903 LINE SMOOTH",
"1024 996 OFFCURVE",
"1023 1086 OFFCURVE",
"1008 1174 CURVE SMOOTH",
"976 1350 OFFCURVE",
"868 1477 OFFCURVE",
"647 1476 CURVE SMOOTH",
"463 1475 OFFCURVE",
"323 1359 OFFCURVE",
"237 1201 CURVE SMOOTH",
"151 1043 OFFCURVE",
"127 881 OFFCURVE",
"168 731 CURVE SMOOTH",
"208 581 OFFCURVE",
"315 469 OFFCURVE",
"490 468 CURVE SMOOTH",
"675 467 OFFCURVE",
"836 572 OFFCURVE",
"932 725 CURVE",
"931 717 LINE",
"905 591 OFFCURVE",
"864 477 OFFCURVE",
"807 374 CURVE SMOOTH",
"693 169 OFFCURVE",
"507 37 OFFCURVE",
"230 34 CURVE SMOOTH",
"200 34 LINE",
"192 -20 LINE",
"217 -20 LINE SMOOTH"
);
},
{
closed = 1;
nodes = (
"232 1103 OFFCURVE",
"313 1257 OFFCURVE",
"437 1351 CURVE SMOOTH",
"561 1445 OFFCURVE",
"775 1450 OFFCURVE",
"871 1343 CURVE SMOOTH",
"967 1235 OFFCURVE",
"981 1061 OFFCURVE",
"956 902 CURVE SMOOTH",
"946 841 LINE",
"918 749 OFFCURVE",
"858 673 OFFCURVE",
"766 613 CURVE SMOOTH",
"582 492 OFFCURVE",
"397 501 OFFCURVE",
"307 591 CURVE SMOOTH",
"217 681 OFFCURVE",
"187 826 OFFCURVE",
"208 958 CURVE SMOOTH"
);
}
);
width = 1087;
}
);
note = nine;
unicode = 0039;
},
{
glyphname = colon;
lastChange = "2017-05-19 14:54:55 +0000";
layers = (
{
layerId = "3D6436C0-838D-49FE-97BE-67FAF848B66F";
paths = (
{
closed = 1;
nodes = (
"15 22 OFFCURVE",
"36 -6 OFFCURVE",
"67 -6 CURVE SMOOTH",
"103 -6 OFFCURVE",
"124 12 OFFCURVE",
"129 47 CURVE SMOOTH",
"133 76 OFFCURVE",
"110 105 OFFCURVE",
"81 105 CURVE SMOOTH",
"46 105 OFFCURVE",
"25 87 OFFCURVE",
"20 51 CURVE SMOOTH"
);
},
{
closed = 1;
nodes = (
"186 984 OFFCURVE",
"207 956 OFFCURVE",
"238 956 CURVE SMOOTH",
"274 956 OFFCURVE",
"295 974 OFFCURVE",
"300 1009 CURVE SMOOTH",
"304 1038 OFFCURVE",
"281 1067 OFFCURVE",
"252 1067 CURVE SMOOTH",
"217 1067 OFFCURVE",
"196 1049 OFFCURVE",
"191 1013 CURVE SMOOTH"
);
}
);
width = 363;
}
);
note = colon;
unicode = 003A;
},
{
glyphname = semicolon;
lastChange = "2017-05-19 14:54:55 +0000";
layers = (
{
layerId = "3D6436C0-838D-49FE-97BE-67FAF848B66F";
paths = (
{
closed = 1;
nodes = (
"187 984 OFFCURVE",
"208 956 OFFCURVE",
"239 956 CURVE SMOOTH",
"275 956 OFFCURVE",
"296 974 OFFCURVE",
"301 1009 CURVE SMOOTH",
"305 1038 OFFCURVE",
"282 1067 OFFCURVE",
"253 1067 CURVE SMOOTH",
"218 1067 OFFCURVE",
"197 1049 OFFCURVE",
"192 1013 CURVE SMOOTH"
);
},
{
closed = 1;
nodes = (
"63 25 LINE SMOOTH",
"48 -59 OFFCURVE",
"5 -141 OFFCURVE",
"-66 -221 CURVE",
"-32 -255 LINE",
"48 -179 OFFCURVE",
"98 -85 OFFCURVE",
"118 27 CURVE SMOOTH",
"140 159 LINE",
"86 159 LINE"
);
}
);
width = 363;
}
);
note = semicolon;
unicode = 003B;
},
{
glyphname = less;
lastChange = "2017-05-19 14:54:55 +0000";
layers = (
{
layerId = "3D6436C0-838D-49FE-97BE-67FAF848B66F";
paths = (
{
closed = 1;
nodes = (
"161 664 LINE",
"963 1011 LINE",
"971 1068 LINE",
"93 691 LINE",
"86 641 LINE",
"834 262 LINE",
"843 321 LINE"
);
}
);
width = 1021;
}
);
note = less;
unicode = 003C;
},
{
glyphname = equal;
lastChange = "2017-05-19 14:54:55 +0000";
layers = (
{
layerId = "3D6436C0-838D-49FE-97BE-67FAF848B66F";
paths = (
{
closed = 1;
nodes = (
"184 843 LINE",
"995 843 LINE",
"1002 897 LINE",
"192 897 LINE"
);
},
{
closed = 1;
nodes = (
"114 436 LINE",
"924 436 LINE",
"932 490 LINE",
"121 490 LINE"
);
}
);
width = 1108;
}
);
note = equal;
unicode = 003D;
},
{
glyphname = greater;
lastChange = "2017-05-19 14:54:55 +0000";
layers = (
{
layerId = "3D6436C0-838D-49FE-97BE-67FAF848B66F";
paths = (
{
closed = 1;
nodes = (
"858 670 LINE",
"61 324 LINE",
"53 266 LINE",
"930 644 LINE",
"937 694 LINE",
"189 1072 LINE",
"181 1013 LINE"
);
}
);
width = 1021;
}
);
note = greater;
unicode = 003E;
},
{
glyphname = question;
lastChange = "2017-05-19 14:54:55 +0000";
layers = (
{
layerId = "3D6436C0-838D-49FE-97BE-67FAF848B66F";
paths = (
{
closed = 1;
nodes = (
"427 519 OFFCURVE",
"485 616 OFFCURVE",
"576 691 CURVE SMOOTH",
"759 839 OFFCURVE",
"840 947 OFFCURVE",
"867 1110 CURVE SMOOTH",
"898 1305 OFFCURVE",
"803 1476 OFFCURVE",
"591 1476 CURVE SMOOTH",
"378 1476 OFFCURVE",
"222 1318 OFFCURVE",
"179 1117 CURVE",
"234 1117 LINE",
"275 1289 OFFCURVE",
"405 1423 OFFCURVE",
"592 1423 CURVE SMOOTH",
"775 1422 OFFCURVE",
"842 1276 OFFCURVE",
"813 1112 CURVE SMOOTH",
"782 947 OFFCURVE",
"682 846 OFFCURVE",
"561 744 CURVE SMOOTH",
"440 642 OFFCURVE",
"377 545 OFFCURVE",
"349 401 CURVE",
"403 400 LINE"
);
},
{
closed = 1;
nodes = (
"259 22 OFFCURVE",
"282 -6 OFFCURVE",
"311 -6 CURVE SMOOTH",
"347 -6 OFFCURVE",
"368 12 OFFCURVE",
"373 47 CURVE SMOOTH",
"378 76 OFFCURVE",
"356 105 OFFCURVE",
"325 105 CURVE SMOOTH",
"290 105 OFFCURVE",
"269 87 OFFCURVE",
"264 51 CURVE SMOOTH"
);
}
);
width = 866;
}
);
note = question;
unicode = 003F;
},
{
glyphname = at;
lastChange = "2017-05-19 14:54:55 +0000";
layers = (
{
layerId = "3D6436C0-838D-49FE-97BE-67FAF848B66F";
paths = (
{
closed = 1;
nodes = (
"935 -371 OFFCURVE",
"823 -397 OFFCURVE",
"707 -398 CURVE SMOOTH",
"378 -398 OFFCURVE",
"200 -202 OFFCURVE",
"151 67 CURVE SMOOTH",
"99 346 OFFCURVE",
"175 650 OFFCURVE",
"348 912 CURVE SMOOTH",
"520 1174 OFFCURVE",
"781 1354 OFFCURVE",
"1105 1354 CURVE SMOOTH",
"1445 1354 OFFCURVE",
"1619 1186 OFFCURVE",
"1663 934 CURVE SMOOTH",
"1696 746 OFFCURVE",
"1669 542 OFFCURVE",
"1583 323 CURVE SMOOTH",
"1519 160 OFFCURVE",
"1417 36 OFFCURVE",
"1258 35 CURVE SMOOTH",
"1109 35 OFFCURVE",
"1100 181 OFFCURVE",
"1131 301 CURVE SMOOTH",
"1277 878 LINE",
"1212 945 OFFCURVE",
"1146 987 OFFCURVE",
"1049 988 CURVE SMOOTH",
"918 988 OFFCURVE",
"816 935 OFFCURVE",
"712 806 CURVE SMOOTH",
"607 677 OFFCURVE",
"517 470 OFFCURVE",
"509 250 CURVE SMOOTH",
"502 107 OFFCURVE",
"547 -19 OFFCURVE",
"704 -20 CURVE SMOOTH",
"864 -21 OFFCURVE",
"981 86 OFFCURVE",
"1065 210 CURVE",
"1058 85 OFFCURVE",
"1118 -20 OFFCURVE",
"1255 -20 CURVE SMOOTH",
"1438 -20 OFFCURVE",
"1562 122 OFFCURVE",
"1645 331 CURVE SMOOTH",
"1728 540 OFFCURVE",
"1752 766 OFFCURVE",
"1712 962 CURVE SMOOTH",
"1657 1231 OFFCURVE",
"1466 1411 OFFCURVE",
"1109 1411 CURVE SMOOTH",
"934 1411 OFFCURVE",
"778 1369 OFFCURVE",
"642 1285 CURVE SMOOTH",
"370 1117 OFFCURVE",
"185 826 OFFCURVE",
"110 501 CURVE SMOOTH",
"35 176 OFFCURVE",
"91 -134 OFFCURVE",
"288 -317 CURVE SMOOTH",
"484 -500 OFFCURVE",
"863 -482 OFFCURVE",
"1062 -366 CURVE",
"1044 -318 LINE"
);
},
{
closed = 1;
nodes = (
"600 519 OFFCURVE",
"695 732 OFFCURVE",
"822 848 CURVE SMOOTH",
"949 963 OFFCURVE",
"1142 959 OFFCURVE",
"1219 852 CURVE",
"1086 344 LINE",
"1027 189 OFFCURVE",
"878 30 OFFCURVE",
"702 34 CURVE SMOOTH",
"570 38 OFFCURVE",
"545 155 OFFCURVE",
"560 282 CURVE SMOOTH",
"572 366 LINE"
);
}
);
width = 1845;
}
);
note = at;
unicode = 0040;
},
{
glyphname = A;
lastChange = "2017-05-19 14:54:55 +0000";
layers = (
{
layerId = "3D6436C0-838D-49FE-97BE-67FAF848B66F";
paths = (
{
closed = 1;
nodes = (
"220 435 LINE",
"910 435 LINE",
"993 0 LINE",
"1050 0 LINE",
"770 1456 LINE",
"705 1455 LINE",
"-73 0 LINE",
"-13 0 LINE"
);
},
{
closed = 1;
nodes = (
"900 489 LINE",
"249 489 LINE",
"731 1389 LINE"
);
}
);
width = 1186;
}
);
leftKerningGroup = A;
note = A;
rightKerningGroup = A;
unicode = 0041;
},
{
glyphname = B;
lastChange = "2017-05-19 14:54:55 +0000";
layers = (
{
layerId = "3D6436C0-838D-49FE-97BE-67FAF848B66F";
paths = (
{
closed = 1;
nodes = (
"1085 573 OFFCURVE",
"977 722 OFFCURVE",
"806 753 CURVE",
"889 772 OFFCURVE",
"958 810 OFFCURVE",
"1011 869 CURVE SMOOTH",
"1118 985 OFFCURVE",
"1152 1190 OFFCURVE",
"1081 1299 CURVE SMOOTH",
"1009 1407 OFFCURVE",
"866 1455 OFFCURVE",
"709 1456 CURVE SMOOTH",
"342 1456 LINE",
"89 0 LINE",
"549 0 LINE SMOOTH",
"800 0 OFFCURVE",
"1018 145 OFFCURVE",
"1058 401 CURVE SMOOTH"
);
},
{
closed = 1;
nodes = (
"778 1401 OFFCURVE",
"840 1391 OFFCURVE",
"899 1371 CURVE SMOOTH",
"1015 1331 OFFCURVE",
"1087 1243 OFFCURVE",
"1058 1087 CURVE SMOOTH",
"1015 859 OFFCURVE",
"820 773 OFFCURVE",
"601 773 CURVE SMOOTH",
"277 773 LINE",
"387 1402 LINE",
"712 1402 LINE SMOOTH"
);
},
{
closed = 1;
nodes = (
"963 175 OFFCURVE",
"770 54 OFFCURVE",
"547 54 CURVE SMOOTH",
"153 54 LINE",
"268 719 LINE",
"690 719 LINE SMOOTH",
"878 715 OFFCURVE",
"1041 604 OFFCURVE",
"1004 399 CURVE SMOOTH"
);
}
);
width = 1198;
}
);
note = B;
rightKerningGroup = B;
unicode = 0042;
},
{
glyphname = C;
lastChange = "2017-05-19 14:54:55 +0000";
layers = (
{
layerId = "3D6436C0-838D-49FE-97BE-67FAF848B66F";
paths = (
{
closed = 1;
nodes = (
"1035 320 OFFCURVE",
"972 220 OFFCURVE",
"884 145 CURVE SMOOTH",
"707 -4 OFFCURVE",
"415 5 OFFCURVE",
"304 126 CURVE SMOOTH",
"192 247 OFFCURVE",
"167 443 OFFCURVE",
"196 619 CURVE SMOOTH",
"236 845 LINE SMOOTH",
"254 939 OFFCURVE",
"287 1030 OFFCURVE",
"336 1118 CURVE SMOOTH",
"432 1294 OFFCURVE",
"587 1421 OFFCURVE",
"799 1422 CURVE SMOOTH",
"1055 1422 OFFCURVE",
"1186 1261 OFFCURVE",
"1174 1012 CURVE",
"1227 1012 LINE",
"1234 1152 OFFCURVE",
"1201 1265 OFFCURVE",
"1126 1350 CURVE SMOOTH",
"976 1520 OFFCURVE",
"665 1506 OFFCURVE",
"494 1381 CURVE SMOOTH",
"322 1256 OFFCURVE",
"217 1046 OFFCURVE",
"180 837 CURVE SMOOTH",
"143 619 LINE SMOOTH",
"126 520 OFFCURVE",
"128 422 OFFCURVE",
"148 324 CURVE SMOOTH",
"188 127 OFFCURVE",
"313 -19 OFFCURVE",
"549 -20 CURVE SMOOTH",
"846 -21 OFFCURVE",
"1051 166 OFFCURVE",
"1128 445 CURVE",
"1074 445 LINE"
);
}
);
width = 1287;
}
);
leftKerningGroup = C;
note = C;
rightKerningGroup = C;
unicode = 0043;
},
{
glyphname = D;
lastChange = "2017-05-19 14:54:55 +0000";
layers = (
{
layerId = "3D6436C0-838D-49FE-97BE-67FAF848B66F";
paths = (
{
closed = 1;
nodes = (
"829 3 OFFCURVE",
"1114 273 OFFCURVE",
"1179 657 CURVE SMOOTH",
"1206 817 LINE SMOOTH",
"1224 927 OFFCURVE",
"1217 1030 OFFCURVE",
"1186 1127 CURVE SMOOTH",
"1122 1320 OFFCURVE",
"966 1453 OFFCURVE",
"729 1456 CURVE SMOOTH",
"342 1456 LINE",
"89 0 LINE",
"488 0 LINE SMOOTH"
);
},
{
closed = 1;
nodes = (
"839 1400 OFFCURVE",
"926 1371 OFFCURVE",
"995 1316 CURVE SMOOTH",
"1131 1205 OFFCURVE",
"1186 1017 OFFCURVE",
"1153 820 CURVE SMOOTH",
"1125 661 LINE SMOOTH",
"1062 306 OFFCURVE",
"797 57 OFFCURVE",
"485 54 CURVE SMOOTH",
"153 54 LINE",
"387 1402 LINE",
"733 1402 LINE SMOOTH"
);
}
);
width = 1300;
}
);
note = D;
rightKerningGroup = D;
unicode = 0044;
},
{
glyphname = E;
lastChange = "2017-05-19 14:54:55 +0000";
layers = (
{
layerId = "3D6436C0-838D-49FE-97BE-67FAF848B66F";
paths = (
{
closed = 1;
nodes = (
"959 54 LINE",
"153 54 LINE",
"269 722 LINE",
"978 722 LINE",
"985 776 LINE",
"278 776 LINE",
"387 1402 LINE",
"1194 1402 LINE",
"1202 1456 LINE",
"342 1456 LINE",
"89 0 LINE",
"951 0 LINE"
);
}
);
width = 1131;
}
);
note = E;
rightKerningGroup = E;
unicode = 0045;
},
{
glyphname = F;
lastChange = "2017-05-19 14:54:55 +0000";
layers = (
{
layerId = "3D6436C0-838D-49FE-97BE-67FAF848B66F";
paths = (
{
closed = 1;
nodes = (
"268 716 LINE",
"992 716 LINE",
"1000 772 LINE",
"277 772 LINE",
"387 1402 LINE",
"1210 1402 LINE",
"1217 1456 LINE",
"342 1456 LINE",
"90 0 LINE",
"144 0 LINE"
);
}
);
width = 1137;
}
);
note = F;
unicode = 0046;
},
{
glyphname = G;
lastChange = "2017-05-19 14:54:55 +0000";
layers = (
{
layerId = "3D6436C0-838D-49FE-97BE-67FAF848B66F";
paths = (
{
closed = 1;
nodes = (
"706 605 LINE",
"1136 605 LINE",
"1061 181 LINE",
"1003 126 OFFCURVE",
"932 87 OFFCURVE",
"847 66 CURVE SMOOTH",
"677 23 OFFCURVE",
"471 6 OFFCURVE",
"348 123 CURVE SMOOTH",
"224 240 OFFCURVE",
"187 433 OFFCURVE",
"219 620 CURVE SMOOTH",
"260 855 LINE SMOOTH",
"277 950 OFFCURVE",
"311 1041 OFFCURVE",
"362 1128 CURVE SMOOTH",
"464 1301 OFFCURVE",
"626 1422 OFFCURVE",
"837 1422 CURVE SMOOTH",
"1066 1422 OFFCURVE",
"1216 1293 OFFCURVE",
"1215 1062 CURVE",
"1268 1062 LINE",
"1273 1323 OFFCURVE",
"1092 1476 OFFCURVE",
"837 1476 CURVE SMOOTH",
"722 1476 OFFCURVE",
"620 1446 OFFCURVE",
"533 1387 CURVE SMOOTH",
"357 1268 OFFCURVE",
"243 1069 OFFCURVE",
"206 858 CURVE SMOOTH",
"165 620 LINE SMOOTH",
"148 516 OFFCURVE",
"153 415 OFFCURVE",
"178 318 CURVE SMOOTH",
"228 122 OFFCURVE",
"367 -19 OFFCURVE",
"604 -20 CURVE SMOOTH",
"775 -20 OFFCURVE",
"995 20 OFFCURVE",
"1114 156 CURVE",
"1200 660 LINE",
"713 660 LINE"
);
}
);
width = 1364;
}
);
leftKerningGroup = C;
note = G;
unicode = 0047;
},
{
glyphname = H;
lastChange = "2017-05-19 14:54:55 +0000";
layers = (
{
layerId = "3D6436C0-838D-49FE-97BE-67FAF848B66F";
paths = (
{
closed = 1;
nodes = (
"1349 1456 LINE",
"1296 1456 LINE",
"1178 776 LINE",
"278 776 LINE",
"395 1456 LINE",
"341 1456 LINE",
"90 0 LINE",
"144 0 LINE",
"269 722 LINE",
"1169 722 LINE",
"1045 0 LINE",
"1099 0 LINE"
);
}
);
width = 1395;
}
);
note = H;
rightKerningGroup = H;
unicode = 0048;
},
{
glyphname = I;
lastChange = "2017-05-19 14:54:55 +0000";
layers = (
{
layerId = "3D6436C0-838D-49FE-97BE-67FAF848B66F";
paths = (
{
closed = 1;
nodes = (
"129 0 LINE",
"183 0 LINE",
"434 1456 LINE",
"380 1456 LINE"
);
}
);
width = 518;
}
);
note = I;
rightKerningGroup = H;
unicode = 0049;
},
{
glyphname = J;
lastChange = "2017-05-19 14:54:55 +0000";
layers = (
{
layerId = "3D6436C0-838D-49FE-97BE-67FAF848B66F";
paths = (
{
closed = 1;
nodes = (
"784 229 OFFCURVE",
"627 35 OFFCURVE",
"392 34 CURVE SMOOTH",
"161 34 OFFCURVE",
"71 186 OFFCURVE",
"106 401 CURVE",
"52 401 LINE",
"16 154 OFFCURVE",
"133 -20 OFFCURVE",
"393 -20 CURVE SMOOTH",
"658 -19 OFFCURVE",
"832 195 OFFCURVE",
"876 442 CURVE SMOOTH",
"1051 1456 LINE",
"997 1456 LINE",
"823 453 LINE SMOOTH"
);
}
);
width = 1091;
}
);
leftKerningGroup = J;
note = J;
rightKerningGroup = J;
unicode = 004A;
},
{
glyphname = K;
lastChange = "2017-05-19 14:54:55 +0000";
layers = (
{
layerId = "3D6436C0-838D-49FE-97BE-67FAF848B66F";
paths = (
{
closed = 1;
nodes = (
"547 800 LINE",
"1294 1455 LINE",
"1210 1456 LINE",
"518 848 LINE",
"250 620 LINE",
"395 1456 LINE",
"341 1456 LINE",
"90 0 LINE",
"144 0 LINE",
"239 548 LINE",
"505 765 LINE",
"1021 0 LINE",
"1087 0 LINE"
);
}
);
width = 1261;
}
);
note = K;
rightKerningGroup = K;
unicode = 004B;
},
{
glyphname = L;
lastChange = "2017-05-19 14:54:55 +0000";
layers = (
{
layerId = "3D6436C0-838D-49FE-97BE-67FAF848B66F";
paths = (
{
closed = 1;
nodes = (
"396 1456 LINE",
"341 1456 LINE",
"89 0 LINE",
"870 0 LINE",
"877 54 LINE",
"154 54 LINE"
);
}
);
width = 1025;
}
);
note = L;
rightKerningGroup = L;
unicode = 004C;
},
{
glyphname = M;
lastChange = "2017-05-19 14:54:55 +0000";
layers = (
{
layerId = "3D6436C0-838D-49FE-97BE-67FAF848B66F";
paths = (
{
closed = 1;
nodes = (
"342 1456 LINE",
"90 0 LINE",
"144 0 LINE",
"381 1370 LINE",
"728 0 LINE",
"770 0 LINE",
"1590 1367 LINE",
"1353 0 LINE",
"1407 0 LINE",
"1660 1456 LINE",
"1578 1455 LINE",
"756 79 LINE",
"416 1456 LINE"
);
}
);
width = 1703;
}
);
note = M;
rightKerningGroup = H;
unicode = 004D;
},
{
glyphname = N;
lastChange = "2017-05-19 14:54:55 +0000";
layers = (
{
layerId = "3D6436C0-838D-49FE-97BE-67FAF848B66F";
paths = (
{
closed = 1;
nodes = (
"1070 93 LINE",
"393 1456 LINE",
"340 1456 LINE",
"90 0 LINE",
"145 0 LINE",
"382 1366 LINE",
"1058 0 LINE",
"1110 0 LINE",
"1360 1456 LINE",
"1306 1456 LINE"
);
}
);
width = 1406;
}
);
note = N;
rightKerningGroup = H;
unicode = 004E;
},
{
glyphname = O;
lastChange = "2017-05-19 14:54:55 +0000";
layers = (
{
layerId = "3D6436C0-838D-49FE-97BE-67FAF848B66F";
paths = (
{
closed = 1;
nodes = (
"1252 940 OFFCURVE",
"1249 1040 OFFCURVE",
"1226 1138 CURVE SMOOTH",
"1180 1334 OFFCURVE",
"1046 1476 OFFCURVE",
"807 1476 CURVE SMOOTH",
"687 1476 OFFCURVE",
"583 1445 OFFCURVE",
"495 1384 CURVE SMOOTH",
"318 1260 OFFCURVE",
"207 1053 OFFCURVE",
"168 837 CURVE SMOOTH",
"131 619 LINE SMOOTH",
"114 516 OFFCURVE",
"118 416 OFFCURVE",
"141 318 CURVE SMOOTH",
"187 122 OFFCURVE",
"320 -20 OFFCURVE",
"559 -20 CURVE SMOOTH",
"679 -20 OFFCURVE",
"783 11 OFFCURVE",
"872 72 CURVE SMOOTH",
"1048 195 OFFCURVE",
"1159 403 OFFCURVE",
"1198 619 CURVE SMOOTH",
"1235 837 LINE SMOOTH"
);
},
{
closed = 1;
nodes = (
"1123 515 OFFCURVE",
"1089 422 OFFCURVE",
"1039 334 CURVE SMOOTH",
"938 157 OFFCURVE",
"776 34 OFFCURVE",
"559 34 CURVE SMOOTH",
"449 34 OFFCURVE",
"364 64 OFFCURVE",
"305 123 CURVE SMOOTH",
"185 241 OFFCURVE",
"154 434 OFFCURVE",
"186 619 CURVE SMOOTH",
"223 833 LINE SMOOTH",
"240 932 OFFCURVE",
"274 1027 OFFCURVE",
"325 1117 CURVE SMOOTH",
"425 1296 OFFCURVE",
"588 1422 OFFCURVE",
"807 1422 CURVE SMOOTH",
"917 1422 OFFCURVE",
"1002 1393 OFFCURVE",
"1062 1334 CURVE SMOOTH",
"1181 1217 OFFCURVE",
"1213 1024 OFFCURVE",
"1182 839 CURVE SMOOTH",
"1142 613 LINE SMOOTH"
);
}
);
width = 1323;
}
);
leftKerningGroup = C;
note = O;
rightKerningGroup = D;
unicode = 004F;
},
{
glyphname = P;
lastChange = "2017-05-19 14:54:55 +0000";
layers = (
{
layerId = "3D6436C0-838D-49FE-97BE-67FAF848B66F";
paths = (
{
closed = 1;
nodes = (
"906 615 OFFCURVE",
"1123 759 OFFCURVE",
"1167 1031 CURVE SMOOTH",
"1211 1299 OFFCURVE",
"1038 1452 OFFCURVE",
"779 1456 CURVE SMOOTH",
"342 1456 LINE",
"90 0 LINE",
"144 0 LINE",
"250 615 LINE",
"635 615 LINE SMOOTH"
);
},
{
closed = 1;
nodes = (
"1008 1397 OFFCURVE",
"1156 1262 OFFCURVE",
"1113 1029 CURVE SMOOTH",
"1069 793 OFFCURVE",
"867 669 OFFCURVE",
"632 669 CURVE SMOOTH",
"259 669 LINE",
"387 1402 LINE",
"784 1402 LINE SMOOTH"
);
}
);
width = 1193;
}
);
note = P;
rightKerningGroup = P;
unicode = 0050;
},
{
glyphname = Q;
lastChange = "2017-05-19 14:54:55 +0000";
layers = (
{
layerId = "3D6436C0-838D-49FE-97BE-67FAF848B66F";
paths = (
{
closed = 1;
nodes = (
"1030 144 OFFCURVE",
"1154 374 OFFCURVE",
"1198 619 CURVE SMOOTH",
"1235 837 LINE SMOOTH",
"1252 940 OFFCURVE",
"1249 1040 OFFCURVE",
"1226 1138 CURVE SMOOTH",
"1180 1334 OFFCURVE",
"1046 1476 OFFCURVE",
"807 1476 CURVE SMOOTH",
"687 1476 OFFCURVE",
"583 1445 OFFCURVE",
"495 1384 CURVE SMOOTH",
"318 1260 OFFCURVE",
"207 1053 OFFCURVE",
"168 837 CURVE SMOOTH",
"131 619 LINE SMOOTH",
"114 516 OFFCURVE",
"118 415 OFFCURVE",
"141 318 CURVE SMOOTH",
"187 122 OFFCURVE",
"320 -20 OFFCURVE",
"559 -20 CURVE SMOOTH",
"618 -20 OFFCURVE",
"679 -10 OFFCURVE",
"744 9 CURVE",
"971 -263 LINE",
"1012 -230 LINE",
"798 32 LINE"
);
},
{
closed = 1;
nodes = (
"1123 515 OFFCURVE",
"1089 422 OFFCURVE",
"1039 334 CURVE SMOOTH",
"938 157 OFFCURVE",
"776 34 OFFCURVE",
"559 34 CURVE SMOOTH",
"449 34 OFFCURVE",
"364 64 OFFCURVE",
"305 123 CURVE SMOOTH",
"185 241 OFFCURVE",
"154 434 OFFCURVE",
"186 619 CURVE SMOOTH",
"223 833 LINE SMOOTH",
"240 932 OFFCURVE",
"274 1027 OFFCURVE",
"325 1117 CURVE SMOOTH",
"425 1296 OFFCURVE",
"588 1422 OFFCURVE",
"807 1422 CURVE SMOOTH",
"917 1422 OFFCURVE",
"1002 1393 OFFCURVE",
"1062 1334 CURVE SMOOTH",
"1181 1217 OFFCURVE",
"1213 1024 OFFCURVE",
"1182 839 CURVE SMOOTH",
"1142 613 LINE SMOOTH"
);
}
);
width = 1323;
}
);
leftKerningGroup = C;
note = Q;
unicode = 0051;
},
{
glyphname = R;
lastChange = "2017-05-19 14:54:55 +0000";
layers = (
{
layerId = "3D6436C0-838D-49FE-97BE-67FAF848B66F";
paths = (
{
closed = 1;
nodes = (
"1061 14 LINE",
"792 637 LINE",
"989 680 OFFCURVE",
"1146 835 OFFCURVE",
"1179 1036 CURVE SMOOTH",
"1223 1301 OFFCURVE",
"1031 1453 OFFCURVE",
"782 1456 CURVE SMOOTH",
"336 1456 LINE",
"85 0 LINE",
"138 0 LINE",
"246 623 LINE",
"736 623 LINE",
"1004 0 LINE",
"1059 0 LINE"
);
},
{
closed = 1;
nodes = (
"1004 1398 OFFCURVE",
"1168 1269 OFFCURVE",
"1125 1036 CURVE SMOOTH",
"1085 825 OFFCURVE",
"901 677 OFFCURVE",
"684 677 CURVE SMOOTH",
"255 677 LINE",
"381 1402 LINE",
"785 1402 LINE SMOOTH"
);
}
);
width = 1300;
}
);
note = R;
unicode = 0052;
},
{
glyphname = S;
lastChange = "2017-05-19 14:54:55 +0000";
layers = (
{
layerId = "3D6436C0-838D-49FE-97BE-67FAF848B66F";
paths = (
{
closed = 1;
nodes = (
"980 276 OFFCURVE",
"947 217 OFFCURVE",
"896 171 CURVE SMOOTH",
"792 78 OFFCURVE",
"645 34 OFFCURVE",
"510 34 CURVE SMOOTH",
"277 33 OFFCURVE",
"75 154 OFFCURVE",
"112 411 CURVE",
"58 411 LINE",
"45 314 OFFCURVE",
"59 234 OFFCURVE",
"98 170 CURVE SMOOTH",
"177 42 OFFCURVE",
"334 -20 OFFCURVE",
"511 -20 CURVE SMOOTH",
"667 -20 OFFCURVE",
"833 33 OFFCURVE",
"946 142 CURVE SMOOTH",
"1058 251 OFFCURVE",
"1090 451 OFFCURVE",
"1015 558 CURVE SMOOTH",
"950 651 OFFCURVE",
"846 708 OFFCURVE",
"626 776 CURVE SMOOTH",
"515 809 OFFCURVE",
"435 843 OFFCURVE",
"386 878 CURVE SMOOTH",
"337 913 OFFCURVE",
"304 949 OFFCURVE",
"289 987 CURVE SMOOTH",
"258 1063 OFFCURVE",
"278 1205 OFFCURVE",
"380 1294 CURVE SMOOTH",
"482 1382 OFFCURVE",
"626 1422 OFFCURVE",
"754 1422 CURVE SMOOTH",
"977 1422 OFFCURVE",
"1135 1274 OFFCURVE",
"1102 1046 CURVE",
"1156 1046 LINE",
"1173 1176 OFFCURVE",
"1142 1280 OFFCURVE",
"1063 1358 CURVE SMOOTH",
"904 1514 OFFCURVE",
"679 1489 OFFCURVE",
"527 1439 CURVE SMOOTH",
"375 1389 OFFCURVE",
"254 1284 OFFCURVE",
"227 1120 CURVE SMOOTH",
"225 1106 LINE SMOOTH",
"214 1027 OFFCURVE",
"229 963 OFFCURVE",
"269 913 CURVE SMOOTH",
"348 813 OFFCURVE",
"494 759 OFFCURVE",
"622 720 CURVE SMOOTH",
"685 701 OFFCURVE",
"749 677 OFFCURVE",
"812 649 CURVE SMOOTH",
"938 593 OFFCURVE",
"1026 504 OFFCURVE",
"995 349 CURVE SMOOTH"
);
}
);
width = 1175;
}
);
leftKerningGroup = S;
note = S;
unicode = 0053;
},
{
glyphname = T;
lastChange = "2017-05-19 14:54:55 +0000";
layers = (
{
layerId = "3D6436C0-838D-49FE-97BE-67FAF848B66F";
paths = (
{
closed = 1;
nodes = (
"463 0 LINE",
"517 0 LINE",
"759 1402 LINE",
"1274 1402 LINE",
"1281 1456 LINE",
"199 1456 LINE",
"192 1402 LINE",
"705 1402 LINE"
);
}
);
width = 1187;
}
);
leftKerningGroup = T;
note = T;
rightKerningGroup = T;
unicode = 0054;
},
{
glyphname = U;
lastChange = "2017-05-19 14:54:55 +0000";
layers = (
{
layerId = "3D6436C0-838D-49FE-97BE-67FAF848B66F";
paths = (
{
closed = 1;
nodes = (
"1025 220 OFFCURVE",
"822 34 OFFCURVE",
"559 34 CURVE SMOOTH",
"302 34 OFFCURVE",
"168 224 OFFCURVE",
"209 469 CURVE SMOOTH",
"379 1456 LINE",
"326 1456 LINE",
"155 469 LINE SMOOTH",
"111 186 OFFCURVE",
"268 -20 OFFCURVE",
"559 -20 CURVE SMOOTH",
"858 -20 OFFCURVE",
"1071 181 OFFCURVE",
"1122 469 CURVE SMOOTH",
"1292 1456 LINE",
"1238 1456 LINE",
"1070 481 LINE SMOOTH"
);
}
);
width = 1324;
}
);
leftKerningGroup = U;
note = U;
rightKerningGroup = J;
unicode = 0055;
},
{
glyphname = V;
lastChange = "2017-05-19 14:54:55 +0000";
layers = (
{
layerId = "3D6436C0-838D-49FE-97BE-67FAF848B66F";
paths = (
{
closed = 1;
nodes = (
"549 146 LINE",
"506 57 LINE",
"493 138 LINE",
"223 1457 LINE",
"166 1457 LINE",
"469 0 LINE",
"534 0 LINE",
"1287 1455 LINE",
"1227 1455 LINE"
);
}
);
width = 1186;
}
);
leftKerningGroup = V;
note = V;
rightKerningGroup = V;
unicode = 0056;
},
{
glyphname = W;
lastChange = "2017-05-19 14:54:55 +0000";
layers = (
{
layerId = "3D6436C0-838D-49FE-97BE-67FAF848B66F";
paths = (
{
closed = 1;
nodes = (
"1348 334 LINE",
"1244 94 LINE",
"1219 326 LINE",
"1062 1456 LINE",
"1002 1456 LINE",
"495 334 LINE",
"393 94 LINE",
"249 1456 LINE",
"191 1456 LINE",
"347 0 LINE",
"408 0 LINE",
"948 1210 LINE",
"1022 1365 LINE",
"1045 1211 LINE",
"1207 0 LINE",
"1267 0 LINE",
"1873 1455 LINE",
"1813 1455 LINE"
);
}
);
width = 1799;
}
);
leftKerningGroup = W;
note = W;
rightKerningGroup = W;
unicode = 0057;
},
{
glyphname = X;
lastChange = "2017-05-19 14:54:55 +0000";
layers = (
{
layerId = "3D6436C0-838D-49FE-97BE-67FAF848B66F";
paths = (
{
closed = 1;
nodes = (
"582 747 LINE",
"-42 0 LINE",
"25 0 LINE",
"611 700 LINE",
"977 0 LINE",
"1041 0 LINE",
"648 739 LINE",
"1249 1455 LINE",
"1180 1455 LINE",
"619 786 LINE",
"268 1457 LINE",
"203 1457 LINE"
);
}
);
width = 1186;
}
);
leftKerningGroup = X;
note = X;
rightKerningGroup = X;
unicode = 0058;
},
{
glyphname = Y;
lastChange = "2017-05-19 14:54:55 +0000";
layers = (
{
layerId = "3D6436C0-838D-49FE-97BE-67FAF848B66F";
paths = (
{
closed = 1;
nodes = (
"557 558 LINE",
"461 0 LINE",
"515 0 LINE",
"609 549 LINE",
"1299 1454 LINE",
"1231 1455 LINE",
"589 604 LINE",
"248 1457 LINE",
"179 1457 LINE"
);
}
);
width = 1186;
}
);
leftKerningGroup = Y;
note = Y;
rightKerningGroup = Y;
unicode = 0059;
},
{
glyphname = Z;
lastChange = "2017-05-19 14:54:55 +0000";
layers = (
{
layerId = "3D6436C0-838D-49FE-97BE-67FAF848B66F";
paths = (
{
closed = 1;
nodes = (
"-6 44 LINE",
"-13 0 LINE",
"993 0 LINE",
"1001 54 LINE",
"71 54 LINE",
"1207 1418 LINE",
"1212 1455 LINE",
"276 1456 LINE",
"269 1403 LINE",
"1127 1403 LINE"
);
}
);
width = 1187;
}
);
leftKerningGroup = Z;
note = Z;
rightKerningGroup = Z;
unicode = 005A;
},
{
glyphname = bracketleft;
lastChange = "2017-05-19 14:54:55 +0000";
layers = (
{
layerId = "3D6436C0-838D-49FE-97BE-67FAF848B66F";
paths = (
{
closed = 1;
nodes = (
"32 -312 LINE",
"309 -312 LINE",
"316 -258 LINE",
"95 -258 LINE",
"387 1610 LINE",
"610 1610 LINE",
"616 1664 LINE",
"341 1664 LINE"
);
}
);
width = 426;
}
);
note = bracketleft;
unicode = 005B;
},
{
glyphname = backslash;
lastChange = "2017-05-19 14:54:55 +0000";
layers = (
{
layerId = "3D6436C0-838D-49FE-97BE-67FAF848B66F";
paths = (
{
closed = 1;
nodes = (
"258 1457 LINE",
"202 1457 LINE",
"520 -126 LINE",
"576 -126 LINE"
);
}
);
width = 751;
}
);
note = backslash;
unicode = 005C;
},
{
glyphname = bracketright;
lastChange = "2017-05-19 14:54:55 +0000";
layers = (
{
layerId = "3D6436C0-838D-49FE-97BE-67FAF848B66F";
paths = (
{
closed = 1;
nodes = (
"79 -258 LINE",
"-143 -258 LINE",
"-150 -312 LINE",
"125 -312 LINE",
"434 1664 LINE",
"157 1664 LINE",
"150 1610 LINE",
"370 1610 LINE"
);
}
);
width = 426;
}
);
note = bracketright;
unicode = 005D;
},
{
glyphname = asciicircum;
lastChange = "2017-05-19 14:54:55 +0000";
layers = (
{
layerId = "3D6436C0-838D-49FE-97BE-67FAF848B66F";
paths = (
{
closed = 1;
nodes = (
"541 1380 LINE",
"684 728 LINE",
"743 728 LINE",
"575 1456 LINE",
"524 1456 LINE",
"110 730 LINE",
"171 730 LINE"
);
}
);
width = 824;
}
);
note = asciicircum;
unicode = 005E;
},
{
glyphname = underscore;
lastChange = "2017-05-19 14:54:55 +0000";
layers = (
{
layerId = "3D6436C0-838D-49FE-97BE-67FAF848B66F";
paths = (
{
closed = 1;
nodes = (
"-114 -54 LINE",
"708 -54 LINE",
"716 0 LINE",
"-106 0 LINE"
);
}
);
width = 820;
}
);
note = underscore;
unicode = 005F;
},
{
glyphname = grave;
lastChange = "2017-05-19 14:54:55 +0000";
layers = (
{
layerId = "3D6436C0-838D-49FE-97BE-67FAF848B66F";
paths = (
{
closed = 1;
nodes = (
"441 1269 LINE",
"497 1269 LINE",
"352 1537 LINE",
"289 1537 LINE"
);
}
);
width = 521;
}
);
note = grave;
unicode = 0060;
},
{
glyphname = a;
lastChange = "2017-05-19 14:54:55 +0000";
layers = (
{
layerId = "3D6436C0-838D-49FE-97BE-67FAF848B66F";
paths = (
{
closed = 1;
nodes = (
"803 9 LINE",
"797 44 OFFCURVE",
"796 79 OFFCURVE",
"799 114 CURVE SMOOTH",
"807 188 LINE",
"905 760 LINE SMOOTH",
"938 976 OFFCURVE",
"796 1102 OFFCURVE",
"587 1102 CURVE SMOOTH",
"394 1101 OFFCURVE",
"189 987 OFFCURVE",
"149 787 CURVE",
"203 785 LINE",
"244 956 OFFCURVE",
"420 1048 OFFCURVE",
"587 1048 CURVE SMOOTH",
"767 1048 OFFCURVE",
"882 946 OFFCURVE",
"853 762 CURVE SMOOTH",
"824 604 LINE",
"567 604 LINE SMOOTH",
"497 603 OFFCURVE",
"423 593 OFFCURVE",
"345 572 CURVE SMOOTH",
"188 531 OFFCURVE",
"58 439 OFFCURVE",
"31 274 CURVE SMOOTH",
"3 94 OFFCURVE",
"137 -19 OFFCURVE",
"309 -20 CURVE SMOOTH",
"488 -21 OFFCURVE",
"648 61 OFFCURVE",
"759 198 CURVE",
"744 125 OFFCURVE",
"737 59 OFFCURVE",
"740 0 CURVE",
"802 0 LINE"
);
},
{
closed = 1;
nodes = (
"241 34 OFFCURVE",
"184 55 OFFCURVE",
"136 98 CURVE SMOOTH",
"40 183 OFFCURVE",
"76 360 OFFCURVE",
"191 441 CURVE SMOOTH",
"292 513 OFFCURVE",
"430 549 OFFCURVE",
"605 549 CURVE SMOOTH",
"815 549 LINE",
"769 292 LINE",
"665 135 OFFCURVE",
"501 30 OFFCURVE",
"308 33 CURVE SMOOTH"
);
}
);
width = 1049;
}
);
leftKerningGroup = a;
note = a;
rightKerningGroup = a;
unicode = 0061;
},
{
glyphname = b;
lastChange = "2017-05-19 14:54:55 +0000";
layers = (
{
layerId = "3D6436C0-838D-49FE-97BE-67FAF848B66F";
paths = (
{
closed = 1;
nodes = (
"566 -19 OFFCURVE",
"644 6 OFFCURVE",
"709 57 CURVE SMOOTH",
"834 154 OFFCURVE",
"918 319 OFFCURVE",
"962 552 CURVE SMOOTH",
"975 631 OFFCURVE",
"976 714 OFFCURVE",
"966 799 CURVE SMOOTH",
"946 968 OFFCURVE",
"857 1102 OFFCURVE",
"656 1102 CURVE SMOOTH",
"491 1102 OFFCURVE",
"357 1015 OFFCURVE",
"264 886 CURVE",
"380 1536 LINE",
"326 1536 LINE",
"61 0 LINE",
"115 0 LINE",
"146 171 LINE",
"206 40 OFFCURVE",
"333 -20 OFFCURVE",
"473 -20 CURVE SMOOTH"
);
},
{
closed = 1;
nodes = (
"836 1048 OFFCURVE",
"905 921 OFFCURVE",
"916 768 CURVE SMOOTH",
"926 607 OFFCURVE",
"897 450 OFFCURVE",
"828 298 CURVE SMOOTH",
"760 147 OFFCURVE",
"648 35 OFFCURVE",
"473 34 CURVE SMOOTH",
"316 34 OFFCURVE",
"192 115 OFFCURVE",
"160 274 CURVE",
"249 770 LINE",
"305 935 OFFCURVE",
"489 1048 OFFCURVE",
"657 1048 CURVE SMOOTH"
);
}
);
width = 1087;
}
);
note = b;
rightKerningGroup = b;
unicode = 0062;
},
{
glyphname = c;
lastChange = "2017-05-19 14:54:55 +0000";
layers = (
{
layerId = "3D6436C0-838D-49FE-97BE-67FAF848B66F";
paths = (
{
closed = 1;
nodes = (
"338 35 OFFCURVE",
"269 60 OFFCURVE",
"223 110 CURVE SMOOTH",
"130 209 OFFCURVE",
"111 371 OFFCURVE",
"134 520 CURVE SMOOTH",
"141 562 LINE SMOOTH",
"154 641 OFFCURVE",
"180 718 OFFCURVE",
"217 793 CURVE SMOOTH",
"291 941 OFFCURVE",
"414 1048 OFFCURVE",
"595 1048 CURVE SMOOTH",
"786 1048 OFFCURVE",
"894 909 OFFCURVE",
"878 725 CURVE",
"932 725 LINE",
"948 941 OFFCURVE",
"817 1102 OFFCURVE",
"594 1102 CURVE SMOOTH",
"494 1102 OFFCURVE",
"409 1076 OFFCURVE",
"339 1023 CURVE SMOOTH",
"198 917 OFFCURVE",
"115 739 OFFCURVE",
"86 562 CURVE SMOOTH",
"80 520 LINE SMOOTH",
"68 435 OFFCURVE",
"71 352 OFFCURVE",
"88 269 CURVE SMOOTH",
"123 103 OFFCURVE",
"229 -20 OFFCURVE",
"430 -20 CURVE SMOOTH",
"643 -20 OFFCURVE",
"821 119 OFFCURVE",
"869 327 CURVE",
"815 327 LINE",
"766 148 OFFCURVE",
"617 34 OFFCURVE",
"429 34 CURVE SMOOTH"
);
}
);
width = 1008;
}
);
leftKerningGroup = c;
note = c;
rightKerningGroup = c;
unicode = 0063;
},
{
glyphname = d;
lastChange = "2017-05-19 14:54:55 +0000";
layers = (
{
layerId = "3D6436C0-838D-49FE-97BE-67FAF848B66F";
paths = (
{
closed = 1;
nodes = (
"1085 1536 LINE",
"1031 1536 LINE",
"917 883 LINE",
"866 1026 OFFCURVE",
"747 1102 OFFCURVE",
"596 1102 CURVE SMOOTH",
"497 1102 OFFCURVE",
"414 1074 OFFCURVE",
"347 1018 CURVE SMOOTH",
"214 905 OFFCURVE",
"140 723 OFFCURVE",
"109 552 CURVE",
"106 531 LINE SMOOTH",
"93 454 OFFCURVE",
"92 372 OFFCURVE",
"103 287 CURVE SMOOTH",
"123 116 OFFCURVE",
"211 -20 OFFCURVE",
"410 -20 CURVE SMOOTH",
"566 -20 OFFCURVE",
"704 53 OFFCURVE",
"800 174 CURVE",
"766 0 LINE",
"820 0 LINE"
);
},
{
closed = 1;
nodes = (
"142 477 OFFCURVE",
"171 632 OFFCURVE",
"238 781 CURVE SMOOTH",
"306 932 OFFCURVE",
"420 1048 OFFCURVE",
"596 1048 CURVE SMOOTH",
"769 1048 OFFCURVE",
"876 942 OFFCURVE",
"901 775 CURVE",
"811 269 LINE",
"724 124 OFFCURVE",
"581 34 OFFCURVE",
"408 34 CURVE SMOOTH",
"229 35 OFFCURVE",
"161 161 OFFCURVE",
"152 316 CURVE SMOOTH"
);
}
);
width = 1087;
}
);
leftKerningGroup = c;
note = d;
unicode = 0064;
},
{
glyphname = e;
lastChange = "2017-05-19 14:54:55 +0000";
layers = (
{
layerId = "3D6436C0-838D-49FE-97BE-67FAF848B66F";
paths = (
{
closed = 1;
nodes = (
"588 -19 OFFCURVE",
"349 9 OFFCURVE",
"245 109 CURVE SMOOTH",
"140 208 OFFCURVE",
"101 369 OFFCURVE",
"126 518 CURVE SMOOTH",
"134 562 LINE",
"137 577 LINE",
"923 577 LINE",
"932 640 LINE SMOOTH",
"942 716 OFFCURVE",
"937 789 OFFCURVE",
"916 860 CURVE SMOOTH",
"875 1001 OFFCURVE",
"771 1102 OFFCURVE",
"599 1102 CURVE SMOOTH",
"503 1102 OFFCURVE",
"419 1075 OFFCURVE",
"346 1022 CURVE SMOOTH",
"201 915 OFFCURVE",
"107 739 OFFCURVE",
"79 568 CURVE SMOOTH",
"71 518 LINE SMOOTH",
"59 433 OFFCURVE",
"65 349 OFFCURVE",
"89 267 CURVE SMOOTH",
"137 102 OFFCURVE",
"257 -20 OFFCURVE",
"452 -20 CURVE SMOOTH",
"599 -20 OFFCURVE",
"723 38 OFFCURVE",
"824 153 CURVE",
"788 181 LINE"
);
},
{
closed = 1;
nodes = (
"672 1047 OFFCURVE",
"731 1027 OFFCURVE",
"776 987 CURVE SMOOTH",
"865 906 OFFCURVE",
"899 772 OFFCURVE",
"876 644 CURVE",
"873 631 LINE",
"144 631 LINE",
"165 699 OFFCURVE",
"197 765 OFFCURVE",
"238 829 CURVE SMOOTH",
"321 957 OFFCURVE",
"442 1048 OFFCURVE",
"599 1048 CURVE SMOOTH"
);
}
);
width = 1001;
}
);
leftKerningGroup = c;
note = e;
rightKerningGroup = e;
unicode = 0065;
},
{
glyphname = f;
lastChange = "2017-05-19 14:54:55 +0000";
layers = (
{
layerId = "3D6436C0-838D-49FE-97BE-67FAF848B66F";
paths = (
{
closed = 1;
nodes = (
"382 1082 LINE",
"409 1231 LINE SMOOTH",
"436 1378 OFFCURVE",
"527 1500 OFFCURVE",
"682 1503 CURVE SMOOTH",
"717 1504 OFFCURVE",
"754 1499 OFFCURVE",
"793 1489 CURVE",
"808 1539 LINE",
"764 1551 OFFCURVE",
"722 1557 OFFCURVE",
"682 1557 CURVE SMOOTH",
"493 1554 OFFCURVE",
"386 1411 OFFCURVE",
"354 1236 CURVE SMOOTH",
"329 1082 LINE",
"145 1082 LINE",
"138 1027 LINE",
"318 1027 LINE",
"142 0 LINE",
"196 0 LINE",
"373 1027 LINE",
"651 1027 LINE",
"659 1082 LINE"
);
}
);
width = 626;
}
);
note = f;
unicode = 0066;
},
{
glyphname = g;
lastChange = "2017-05-19 14:54:55 +0000";
layers = (
{
layerId = "3D6436C0-838D-49FE-97BE-67FAF848B66F";
paths = (
{
closed = 1;
nodes = (
"614 -436 OFFCURVE",
"779 -226 OFFCURVE",
"822 21 CURVE SMOOTH",
"1004 1082 LINE",
"950 1082 LINE",
"914 885 LINE",
"863 1026 OFFCURVE",
"743 1102 OFFCURVE",
"594 1102 CURVE SMOOTH",
"495 1102 OFFCURVE",
"412 1074 OFFCURVE",
"345 1018 CURVE SMOOTH",
"212 905 OFFCURVE",
"138 723 OFFCURVE",
"107 552 CURVE",
"104 531 LINE SMOOTH",
"91 454 OFFCURVE",
"90 372 OFFCURVE",
"101 287 CURVE SMOOTH",
"121 116 OFFCURVE",
"209 -20 OFFCURVE",
"408 -20 CURVE SMOOTH",
"565 -20 OFFCURVE",
"695 44 OFFCURVE",
"796 172 CURVE",
"765 15 LINE SMOOTH",
"722 -201 OFFCURVE",
"583 -383 OFFCURVE",
"347 -383 CURVE SMOOTH",
"232 -383 OFFCURVE",
"141 -328 OFFCURVE",
"73 -218 CURVE",
"32 -252 LINE",
"106 -375 OFFCURVE",
"212 -436 OFFCURVE",
"350 -436 CURVE SMOOTH"
);
},
{
closed = 1;
nodes = (
"141 441 OFFCURVE",
"156 562 OFFCURVE",
"195 679 CURVE SMOOTH",
"272 913 OFFCURVE",
"403 1048 OFFCURVE",
"594 1048 CURVE SMOOTH",
"773 1048 OFFCURVE",
"874 936 OFFCURVE",
"897 767 CURVE",
"810 276 LINE",
"725 127 OFFCURVE",
"582 34 OFFCURVE",
"406 34 CURVE SMOOTH",
"227 35 OFFCURVE",
"159 161 OFFCURVE",
"150 316 CURVE SMOOTH"
);
}
);
width = 1089;
}
);
leftKerningGroup = c;
note = g;
unicode = 0067;
},
{
glyphname = h;
lastChange = "2017-05-19 14:54:55 +0000";
layers = (
{
layerId = "3D6436C0-838D-49FE-97BE-67FAF848B66F";
paths = (
{
closed = 1;
nodes = (
"887 1050 OFFCURVE",
"921 881 OFFCURVE",
"890 700 CURVE SMOOTH",
"769 0 LINE",
"823 0 LINE",
"944 700 LINE SMOOTH",
"977 913 OFFCURVE",
"919 1103 OFFCURVE",
"674 1102 CURVE SMOOTH",
"491 1101 OFFCURVE",
"348 979 OFFCURVE",
"256 830 CURVE",
"382 1536 LINE",
"328 1536 LINE",
"63 0 LINE",
"117 0 LINE",
"237 693 LINE",
"292 874 OFFCURVE",
"480 1046 OFFCURVE",
"672 1049 CURVE SMOOTH"
);
}
);
width = 1087;
}
);
note = h;
rightKerningGroup = h;
unicode = 0068;
},
{
glyphname = i;
lastChange = "2017-05-19 14:54:55 +0000";
layers = (
{
layerId = "3D6436C0-838D-49FE-97BE-67FAF848B66F";
paths = (
{
closed = 1;
nodes = (
"288 1393 OFFCURVE",
"311 1365 OFFCURVE",
"340 1365 CURVE SMOOTH",
"376 1365 OFFCURVE",
"397 1383 OFFCURVE",
"402 1418 CURVE SMOOTH",
"407 1447 OFFCURVE",
"385 1476 OFFCURVE",
"354 1476 CURVE SMOOTH",
"319 1476 OFFCURVE",
"298 1458 OFFCURVE",
"293 1422 CURVE SMOOTH"
);
},
{
closed = 1;
nodes = (
"75 0 LINE",
"129 0 LINE",
"315 1082 LINE",
"261 1082 LINE"
);
}
);
width = 409;
}
);
note = i;
unicode = 0069;
},
{
glyphname = j;
lastChange = "2017-05-19 14:54:55 +0000";
layers = (
{
layerId = "3D6436C0-838D-49FE-97BE-67FAF848B66F";
paths = (
{
closed = 1;
nodes = (
"294 1393 OFFCURVE",
"315 1365 OFFCURVE",
"346 1365 CURVE SMOOTH",
"382 1365 OFFCURVE",
"403 1383 OFFCURVE",
"408 1418 CURVE SMOOTH",
"412 1447 OFFCURVE",
"391 1476 OFFCURVE",
"360 1476 CURVE SMOOTH",
"325 1476 OFFCURVE",
"304 1458 OFFCURVE",
"299 1422 CURVE SMOOTH"
);
},
{
closed = 1;
nodes = (
"25 -266 OFFCURVE",
"-67 -386 OFFCURVE",
"-219 -383 CURVE SMOOTH",
"-245 -382 OFFCURVE",
"-274 -376 OFFCURVE",
"-306 -365 CURVE",
"-316 -417 LINE",
"-280 -430 OFFCURVE",
"-248 -437 OFFCURVE",
"-220 -437 CURVE SMOOTH",
"-35 -437 OFFCURVE",
"76 -301 OFFCURVE",
"107 -129 CURVE SMOOTH",
"316 1082 LINE",
"262 1082 LINE",
"52 -129 LINE SMOOTH"
);
}
);
width = 432;
}
);
note = j;
unicode = 006A;
},
{
glyphname = k;
lastChange = "2017-05-19 14:54:55 +0000";
layers = (
{
layerId = "3D6436C0-838D-49FE-97BE-67FAF848B66F";
paths = (
{
closed = 1;
nodes = (
"756 0 LINE",
"822 0 LINE",
"416 618 LINE",
"983 1081 LINE",
"900 1081 LINE",
"205 513 LINE",
"382 1536 LINE",
"328 1536 LINE",
"63 0 LINE",
"117 0 LINE",
"194 446 LINE",
"373 582 LINE",
"376 585 LINE"
);
}
);
width = 940;
}
);
note = k;
unicode = 006B;
},
{
glyphname = l;
lastChange = "2017-05-19 14:54:55 +0000";
layers = (
{
layerId = "3D6436C0-838D-49FE-97BE-67FAF848B66F";
paths = (
{
closed = 1;
nodes = (
"75 0 LINE",
"129 0 LINE",
"393 1536 LINE",
"339 1536 LINE"
);
}
);
width = 409;
}
);
note = l;
unicode = 006C;
},
{
glyphname = m;
lastChange = "2017-05-19 14:54:55 +0000";
layers = (
{
layerId = "3D6436C0-838D-49FE-97BE-67FAF848B66F";
paths = (
{
closed = 1;
nodes = (
"867 1050 OFFCURVE",
"916 903 OFFCURVE",
"885 720 CURVE SMOOTH",
"761 0 LINE",
"814 0 LINE",
"939 720 LINE",
"984 905 OFFCURVE",
"1188 1045 OFFCURVE",
"1372 1049 CURVE SMOOTH",
"1588 1053 OFFCURVE",
"1624 883 OFFCURVE",
"1593 700 CURVE SMOOTH",
"1473 0 LINE",
"1526 0 LINE",
"1647 700 LINE SMOOTH",
"1682 915 OFFCURVE",
"1619 1103 OFFCURVE",
"1374 1102 CURVE SMOOTH",
"1193 1101 OFFCURVE",
"1038 997 OFFCURVE",
"945 846 CURVE",
"941 1018 OFFCURVE",
"830 1103 OFFCURVE",
"662 1102 CURVE SMOOTH",
"479 1101 OFFCURVE",
"336 976 OFFCURVE",
"245 827 CURVE",
"293 1082 LINE",
"238 1082 LINE",
"52 0 LINE",
"106 0 LINE",
"225 684 LINE",
"278 868 OFFCURVE",
"464 1046 OFFCURVE",
"660 1049 CURVE SMOOTH"
);
}
);
width = 1781;
}
);
leftKerningGroup = m;
note = m;
rightKerningGroup = h;
unicode = 006D;
},
{
glyphname = n;
lastChange = "2017-05-19 14:54:55 +0000";
layers = (
{
layerId = "3D6436C0-838D-49FE-97BE-67FAF848B66F";
paths = (
{
closed = 1;
nodes = (
"887 1050 OFFCURVE",
"921 881 OFFCURVE",
"890 700 CURVE SMOOTH",
"769 0 LINE",
"823 0 LINE",
"944 700 LINE SMOOTH",
"977 913 OFFCURVE",
"919 1103 OFFCURVE",
"674 1102 CURVE SMOOTH",
"491 1101 OFFCURVE",
"348 979 OFFCURVE",
"256 830 CURVE",
"303 1082 LINE",
"249 1082 LINE",
"63 0 LINE",
"117 0 LINE",
"237 693 LINE",
"292 874 OFFCURVE",
"480 1046 OFFCURVE",
"672 1049 CURVE SMOOTH"
);
}
);
width = 1087;
}
);
leftKerningGroup = m;
note = n;
rightKerningGroup = h;
unicode = 006E;
},
{
glyphname = o;
lastChange = "2017-05-19 14:54:55 +0000";
layers = (
{
layerId = "3D6436C0-838D-49FE-97BE-67FAF848B66F";
paths = (
{
closed = 1;
nodes = (
"61 432 OFFCURVE",
"66 347 OFFCURVE",
"89 264 CURVE SMOOTH",
"134 99 OFFCURVE",
"255 -20 OFFCURVE",
"455 -20 CURVE SMOOTH",
"556 -20 OFFCURVE",
"644 6 OFFCURVE",
"719 59 CURVE SMOOTH",
"870 163 OFFCURVE",
"969 345 OFFCURVE",
"996 533 CURVE SMOOTH",
"1000 562 LINE SMOOTH",
"1013 650 OFFCURVE",
"1008 735 OFFCURVE",
"985 818 CURVE SMOOTH",
"939 983 OFFCURVE",
"820 1102 OFFCURVE",
"619 1102 CURVE SMOOTH",
"519 1102 OFFCURVE",
"431 1076 OFFCURVE",
"356 1024 CURVE SMOOTH",
"205 920 OFFCURVE",
"110 745 OFFCURVE",
"79 562 CURVE SMOOTH",
"73 520 LINE SMOOTH"
);
},
{
closed = 1;
nodes = (
"150 647 OFFCURVE",
"179 724 OFFCURVE",
"222 797 CURVE SMOOTH",
"308 944 OFFCURVE",
"444 1048 OFFCURVE",
"620 1048 CURVE SMOOTH",
"708 1048 OFFCURVE",
"778 1023 OFFCURVE",
"830 974 CURVE SMOOTH",
"933 874 OFFCURVE",
"969 713 OFFCURVE",
"946 562 CURVE SMOOTH",
"938 514 LINE SMOOTH",
"923 434 OFFCURVE",
"895 358 OFFCURVE",
"852 285 CURVE SMOOTH",
"767 139 OFFCURVE",
"631 34 OFFCURVE",
"454 34 CURVE SMOOTH",
"365 34 OFFCURVE",
"295 59 OFFCURVE",
"243 108 CURVE SMOOTH",
"139 207 OFFCURVE",
"104 367 OFFCURVE",
"127 520 CURVE SMOOTH",
"135 568 LINE SMOOTH"
);
}
);
width = 1093;
}
);
leftKerningGroup = o;
note = o;
rightKerningGroup = o;
unicode = 006F;
},
{
glyphname = p;
lastChange = "2017-05-19 14:54:55 +0000";
layers = (
{
layerId = "3D6436C0-838D-49FE-97BE-67FAF848B66F";
paths = (
{
closed = 1;
nodes = (
"566 -19 OFFCURVE",
"644 6 OFFCURVE",
"709 57 CURVE SMOOTH",
"834 154 OFFCURVE",
"918 319 OFFCURVE",
"962 552 CURVE SMOOTH",
"975 631 OFFCURVE",
"976 713 OFFCURVE",
"966 798 CURVE SMOOTH",
"946 969 OFFCURVE",
"857 1102 OFFCURVE",
"656 1102 CURVE SMOOTH",
"492 1102 OFFCURVE",
"359 1017 OFFCURVE",
"264 889 CURVE",
"301 1082 LINE",
"247 1082 LINE",
"-11 -416 LINE",
"43 -416 LINE",
"146 169 LINE",
"206 40 OFFCURVE",
"334 -20 OFFCURVE",
"473 -20 CURVE SMOOTH"
);
},
{
closed = 1;
nodes = (
"746 1048 OFFCURVE",
"811 1021 OFFCURVE",
"850 966 CURVE SMOOTH",
"928 857 OFFCURVE",
"930 687 OFFCURVE",
"907 552 CURVE SMOOTH",
"889 457 OFFCURVE",
"863 371 OFFCURVE",
"828 296 CURVE SMOOTH",
"758 144 OFFCURVE",
"646 35 OFFCURVE",
"473 34 CURVE SMOOTH",
"317 34 OFFCURVE",
"193 113 OFFCURVE",
"160 269 CURVE",
"250 775 LINE",
"306 939 OFFCURVE",
"492 1048 OFFCURVE",
"657 1048 CURVE SMOOTH"
);
}
);
width = 1087;
}
);
leftKerningGroup = m;
note = p;
rightKerningGroup = b;
unicode = 0070;
},
{
glyphname = q;
lastChange = "2017-05-19 14:54:55 +0000";
layers = (
{
layerId = "3D6436C0-838D-49FE-97BE-67FAF848B66F";
paths = (
{
closed = 1;
nodes = (
"917 889 LINE",
"864 1029 OFFCURVE",
"744 1102 OFFCURVE",
"596 1102 CURVE SMOOTH",
"497 1102 OFFCURVE",
"414 1074 OFFCURVE",
"347 1018 CURVE SMOOTH",
"214 905 OFFCURVE",
"140 723 OFFCURVE",
"109 552 CURVE",
"106 531 LINE SMOOTH",
"93 454 OFFCURVE",
"92 372 OFFCURVE",
"103 287 CURVE SMOOTH",
"123 116 OFFCURVE",
"211 -20 OFFCURVE",
"410 -20 CURVE SMOOTH",
"566 -20 OFFCURVE",
"696 43 OFFCURVE",
"799 169 CURVE",
"694 -416 LINE",
"748 -416 LINE",
"1006 1082 LINE",
"953 1082 LINE"
);
},
{
closed = 1;
nodes = (
"142 477 OFFCURVE",
"171 632 OFFCURVE",
"238 781 CURVE SMOOTH",
"306 932 OFFCURVE",
"420 1048 OFFCURVE",
"596 1048 CURVE SMOOTH",
"768 1048 OFFCURVE",
"874 938 OFFCURVE",
"901 775 CURVE",
"811 269 LINE",
"724 124 OFFCURVE",
"581 34 OFFCURVE",
"408 34 CURVE SMOOTH",
"229 35 OFFCURVE",
"161 161 OFFCURVE",
"152 316 CURVE SMOOTH"
);
}
);
width = 1087;
}
);
leftKerningGroup = c;
note = q;
unicode = 0071;
},
{
glyphname = r;
lastChange = "2017-05-19 14:54:55 +0000";
layers = (
{
layerId = "3D6436C0-838D-49FE-97BE-67FAF848B66F";
paths = (
{
closed = 1;
nodes = (
"721 1090 LINE",
"695 1098 OFFCURVE",
"670 1102 OFFCURVE",
"645 1102 CURVE SMOOTH",
"473 1103 OFFCURVE",
"344 999 OFFCURVE",
"261 856 CURVE",
"303 1082 LINE",
"249 1082 LINE",
"63 0 LINE",
"117 0 LINE",
"240 708 LINE",
"289 885 OFFCURVE",
"452 1050 OFFCURVE",
"643 1049 CURVE",
"708 1044 LINE"
);
}
);
width = 664;
}
);
note = r;
rightKerningGroup = r;
unicode = 0072;
},
{
glyphname = s;
lastChange = "2017-05-19 14:54:55 +0000";
layers = (
{
layerId = "3D6436C0-838D-49FE-97BE-67FAF848B66F";
paths = (
{
closed = 1;
nodes = (
"729 105 OFFCURVE",
"548 35 OFFCURVE",
"404 34 CURVE SMOOTH",
"248 33 OFFCURVE",
"97 99 OFFCURVE",
"105 275 CURVE",
"52 275 LINE",
"45 206 OFFCURVE",
"59 150 OFFCURVE",
"94 107 CURVE SMOOTH",
"162 19 OFFCURVE",
"284 -20 OFFCURVE",
"405 -20 CURVE SMOOTH",
"584 -20 OFFCURVE",
"785 68 OFFCURVE",
"814 264 CURVE SMOOTH",
"823 320 OFFCURVE",
"817 367 OFFCURVE",
"796 406 CURVE SMOOTH",
"755 482 OFFCURVE",
"669 534 OFFCURVE",
"493 582 CURVE SMOOTH",
"404 605 OFFCURVE",
"342 629 OFFCURVE",
"305 653 CURVE SMOOTH",
"232 701 OFFCURVE",
"212 752 OFFCURVE",
"227 831 CURVE SMOOTH",
"256 984 OFFCURVE",
"424 1048 OFFCURVE",
"564 1048 CURVE SMOOTH",
"719 1048 OFFCURVE",
"861 964 OFFCURVE",
"842 793 CURVE",
"896 793 LINE",
"917 1001 OFFCURVE",
"755 1102 OFFCURVE",
"563 1102 CURVE SMOOTH",
"478 1102 OFFCURVE",
"396 1080 OFFCURVE",
"315 1035 CURVE SMOOTH",
"153 946 OFFCURVE",
"143 748 OFFCURVE",
"205 672 CURVE SMOOTH",
"267 595 OFFCURVE",
"385 557 OFFCURVE",
"485 532 CURVE SMOOTH",
"693 479 OFFCURVE",
"785 392 OFFCURVE",
"760 265 CURVE SMOOTH"
);
}
);
width = 988;
}
);
leftKerningGroup = s;
note = s;
unicode = 0073;
},
{
glyphname = t;
lastChange = "2017-05-19 14:54:55 +0000";
layers = (
{
layerId = "3D6436C0-838D-49FE-97BE-67FAF848B66F";
paths = (
{
closed = 1;
nodes = (
"395 37 OFFCURVE",
"359 34 OFFCURVE",
"340 34 CURVE SMOOTH",
"209 37 OFFCURVE",
"209 155 OFFCURVE",
"226 259 CURVE SMOOTH",
"359 1027 LINE",
"599 1027 LINE",
"606 1082 LINE",
"369 1082 LINE",
"419 1374 LINE",
"364 1374 LINE",
"314 1082 LINE",
"119 1082 LINE",
"111 1027 LINE",
"304 1027 LINE",
"172 259 LINE SMOOTH",
"161 186 OFFCURVE",
"165 122 OFFCURVE",
"185 66 CURVE SMOOTH",
"224 -47 OFFCURVE",
"383 -24 OFFCURVE",
"451 -8 CURVE",
"449 43 LINE"
);
}
);
width = 629;
}
);
note = t;
unicode = 0074;
},
{
glyphname = u;
lastChange = "2017-05-19 14:54:55 +0000";
layers = (
{
layerId = "3D6436C0-838D-49FE-97BE-67FAF848B66F";
paths = (
{
closed = 1;
nodes = (
"1007 1082 LINE",
"952 1082 LINE",
"821 321 LINE",
"768 138 OFFCURVE",
"585 34 OFFCURVE",
"404 34 CURVE SMOOTH",
"189 34 OFFCURVE",
"151 213 OFFCURVE",
"180 393 CURVE SMOOTH",
"299 1082 LINE",
"245 1082 LINE",
"127 395 LINE SMOOTH",
"92 176 OFFCURVE",
"157 -20 OFFCURVE",
"406 -20 CURVE SMOOTH",
"574 -20 OFFCURVE",
"705 45 OFFCURVE",
"800 175 CURVE",
"766 0 LINE",
"821 0 LINE"
);
}
);
width = 1087;
}
);
leftKerningGroup = u;
note = u;
unicode = 0075;
},
{
glyphname = v;
lastChange = "2017-05-19 14:54:55 +0000";
layers = (
{
layerId = "3D6436C0-838D-49FE-97BE-67FAF848B66F";
paths = (
{
closed = 1;
nodes = (
"392 89 LINE",
"171 1083 LINE",
"115 1083 LINE",
"356 0 LINE",
"409 0 LINE",
"984 1081 LINE",
"925 1081 LINE"
);
}
);
width = 949;
}
);
leftKerningGroup = v;
note = v;
rightKerningGroup = v;
unicode = 0076;
},
{
glyphname = w;
lastChange = "2017-05-19 14:54:55 +0000";
layers = (
{
layerId = "3D6436C0-838D-49FE-97BE-67FAF848B66F";
paths = (
{
closed = 1;
nodes = (
"1088 317 LINE",
"988 83 LINE",
"855 1082 LINE",
"801 1082 LINE",
"322 84 LINE",
"306 308 LINE",
"223 1082 LINE",
"163 1083 LINE",
"283 0 LINE",
"337 0 LINE",
"730 809 LINE",
"818 1003 LINE",
"832 818 LINE",
"952 0 LINE",
"1006 0 LINE",
"1497 1081 LINE",
"1433 1081 LINE"
);
}
);
width = 1504;
}
);
note = w;
unicode = 0077;
},
{
glyphname = x;
lastChange = "2017-05-19 14:54:55 +0000";
layers = (
{
layerId = "3D6436C0-838D-49FE-97BE-67FAF848B66F";
paths = (
{
closed = 1;
nodes = (
"435 559 LINE",
"-41 0 LINE",
"28 0 LINE",
"462 507 LINE",
"738 0 LINE",
"802 0 LINE",
"499 551 LINE",
"951 1080 LINE",
"882 1081 LINE",
"472 603 LINE",
"212 1083 LINE",
"147 1083 LINE"
);
}
);
width = 949;
}
);
leftKerningGroup = x;
note = x;
rightKerningGroup = x;
unicode = 0078;
},
{
glyphname = y;
lastChange = "2017-05-19 14:54:55 +0000";
layers = (
{
layerId = "3D6436C0-838D-49FE-97BE-67FAF848B66F";
paths = (
{
closed = 1;
nodes = (
"161 -436 OFFCURVE",
"246 -311 OFFCURVE",
"317 -180 CURVE SMOOTH",
"1000 1081 LINE",
"939 1081 LINE",
"395 84 LINE",
"181 1083 LINE",
"124 1083 LINE",
"358 11 LINE",
"260 -172 LINE SMOOTH",
"201 -279 OFFCURVE",
"123 -385 OFFCURVE",
"-9 -384 CURVE SMOOTH",
"-20 -384 OFFCURVE",
"-43 -381 OFFCURVE",
"-77 -375 CURVE",
"-83 -426 LINE",
"-54 -433 OFFCURVE",
"-27 -437 OFFCURVE",
"-3 -437 CURVE SMOOTH"
);
}
);
width = 949;
}
);
leftKerningGroup = v;
note = y;
rightKerningGroup = v;
unicode = 0079;
},
{
glyphname = z;
lastChange = "2017-05-19 14:54:55 +0000";
layers = (
{
layerId = "3D6436C0-838D-49FE-97BE-67FAF848B66F";
paths = (
{
closed = 1;
nodes = (
"-12 44 LINE",
"-19 0 LINE",
"800 0 LINE",
"808 54 LINE",
"65 54 LINE",
"921 1034 LINE",
"928 1081 LINE",
"197 1082 LINE",
"189 1027 LINE",
"845 1027 LINE"
);
}
);
width = 949;
}
);
leftKerningGroup = z;
note = z;
rightKerningGroup = z;
unicode = 007A;
},
{
glyphname = braceleft;
lastChange = "2017-05-19 14:54:55 +0000";
layers = (
{
layerId = "3D6436C0-838D-49FE-97BE-67FAF848B66F";
paths = (
{
closed = 1;
nodes = (
"191 -189 OFFCURVE",
"255 -364 OFFCURVE",
"463 -440 CURVE",
"488 -396 LINE",
"305 -324 OFFCURVE",
"248 -168 OFFCURVE",
"276 20 CURVE SMOOTH",
"314 265 LINE SMOOTH",
"333 400 OFFCURVE",
"299 531 OFFCURVE",
"158 575 CURVE",
"302 616 OFFCURVE",
"387 723 OFFCURVE",
"414 898 CURVE SMOOTH",
"451 1138 LINE SMOOTH",
"486 1331 OFFCURVE",
"598 1486 OFFCURVE",
"787 1551 CURVE",
"778 1597 LINE",
"559 1525 OFFCURVE",
"431 1366 OFFCURVE",
"393 1119 CURVE SMOOTH",
"357 885 LINE SMOOTH",
"329 725 OFFCURVE",
"238 617 OFFCURVE",
"71 609 CURVE",
"62 543 LINE",
"233 534 OFFCURVE",
"285 424 OFFCURVE",
"261 265 CURVE SMOOTH",
"222 20 LINE SMOOTH"
);
}
);
width = 640;
}
);
note = braceleft;
unicode = 007B;
},
{
glyphname = bar;
lastChange = "2017-05-19 14:54:55 +0000";
layers = (
{
layerId = "3D6436C0-838D-49FE-97BE-67FAF848B66F";
paths = (
{
closed = 1;
nodes = (
"39 -270 LINE",
"93 -270 LINE",
"361 1456 LINE",
"307 1456 LINE"
);
}
);
width = 394;
}
);
note = bar;
unicode = 007C;
},
{
glyphname = braceright;
lastChange = "2017-05-19 14:54:55 +0000";
layers = (
{
layerId = "3D6436C0-838D-49FE-97BE-67FAF848B66F";
paths = (
{
closed = 1;
nodes = (
"443 1341 OFFCURVE",
"381 1519 OFFCURVE",
"172 1596 CURVE",
"152 1553 LINE",
"339 1482 OFFCURVE",
"386 1317 OFFCURVE",
"358 1132 CURVE SMOOTH",
"320 885 LINE SMOOTH",
"301 750 OFFCURVE",
"335 621 OFFCURVE",
"476 577 CURVE",
"333 535 OFFCURVE",
"247 427 OFFCURVE",
"220 252 CURVE SMOOTH",
"183 14 LINE SMOOTH",
"148 -181 OFFCURVE",
"31 -328 OFFCURVE",
"-156 -393 CURVE",
"-143 -441 LINE",
"69 -372 OFFCURVE",
"196 -222 OFFCURVE",
"237 9 CURVE SMOOTH",
"274 245 LINE SMOOTH",
"303 436 OFFCURVE",
"400 535 OFFCURVE",
"563 543 CURVE",
"572 609 LINE",
"403 618 OFFCURVE",
"349 726 OFFCURVE",
"373 885 CURVE SMOOTH",
"412 1132 LINE SMOOTH"
);
}
);
width = 640;
}
);
note = braceright;
unicode = 007D;
},
{
glyphname = asciitilde;
lastChange = "2017-05-19 14:54:55 +0000";
layers = (
{
layerId = "3D6436C0-838D-49FE-97BE-67FAF848B66F";
paths = (
{
closed = 1;
nodes = (
"1150 621 OFFCURVE",
"1076 497 OFFCURVE",
"927 496 CURVE SMOOTH",
"836 496 OFFCURVE",
"776 550 OFFCURVE",
"705 627 CURVE SMOOTH",
"634 703 OFFCURVE",
"553 775 OFFCURVE",
"438 774 CURVE SMOOTH",
"258 773 OFFCURVE",
"162 624 OFFCURVE",
"133 463 CURVE",
"188 462 LINE",
"216 595 OFFCURVE",
"288 719 OFFCURVE",
"439 720 CURVE SMOOTH",
"527 720 OFFCURVE",
"583 676 OFFCURVE",
"663 592 CURVE SMOOTH",
"742 507 OFFCURVE",
"816 442 OFFCURVE",
"928 443 CURVE SMOOTH",
"1104 446 OFFCURVE",
"1205 592 OFFCURVE",
"1233 751 CURVE",
"1177 753 LINE"
);
}
);
width = 1370;
}
);
note = asciitilde;
unicode = 007E;
},
{
glyphname = exclamdown;
lastChange = "2017-05-19 14:54:55 +0000";
layers = (
{
layerId = "3D6436C0-838D-49FE-97BE-67FAF848B66F";
paths = (
{
closed = 1;
nodes = (
"328 1075 OFFCURVE",
"305 1103 OFFCURVE",
"276 1103 CURVE SMOOTH",
"240 1103 OFFCURVE",
"219 1085 OFFCURVE",
"214 1050 CURVE SMOOTH",
"209 1021 OFFCURVE",
"231 992 OFFCURVE",
"262 992 CURVE SMOOTH",
"297 992 OFFCURVE",
"318 1010 OFFCURVE",
"323 1046 CURVE SMOOTH"
);
},
{
closed = 1;
nodes = (
"242 696 LINE",
"188 696 LINE",
"7 -359 LINE",
"61 -359 LINE"
);
}
);
width = 394;
}
);
note = exclamdown;
unicode = 00A1;
},
{
glyphname = cent;
lastChange = "2017-05-19 14:54:55 +0000";
layers = (
{
layerId = "3D6436C0-838D-49FE-97BE-67FAF848B66F";
paths = (
{
closed = 1;
nodes = (
"821 238 OFFCURVE",
"773 167 OFFCURVE",
"703 114 CURVE SMOOTH",
"562 8 OFFCURVE",
"342 10 OFFCURVE",
"251 110 CURVE SMOOTH",
"160 210 OFFCURVE",
"145 371 OFFCURVE",
"170 520 CURVE SMOOTH",
"177 562 LINE SMOOTH",
"192 641 OFFCURVE",
"219 718 OFFCURVE",
"257 793 CURVE SMOOTH",
"333 941 OFFCURVE",
"459 1048 OFFCURVE",
"640 1048 CURVE SMOOTH",
"831 1048 OFFCURVE",
"937 909 OFFCURVE",
"917 725 CURVE",
"971 725 LINE",
"990 929 OFFCURVE",
"879 1081 OFFCURVE",
"671 1101 CURVE",
"711 1318 LINE",
"656 1318 LINE",
"616 1101 LINE",
"327 1078 OFFCURVE",
"166 824 OFFCURVE",
"121 551 CURVE SMOOTH",
"116 520 LINE SMOOTH",
"103 439 OFFCURVE",
"103 358 OFFCURVE",
"117 279 CURVE SMOOTH",
"144 119 OFFCURVE",
"238 -3 OFFCURVE",
"427 -19 CURVE",
"386 -245 LINE",
"441 -245 LINE",
"482 -19 LINE",
"687 -2 OFFCURVE",
"852 124 OFFCURVE",
"901 327 CURVE",
"847 327 LINE"
);
}
);
width = 1077;
}
);
note = cent;
unicode = 00A2;
},
{
glyphname = sterling;
lastChange = "2017-05-19 14:54:55 +0000";
layers = (
{
layerId = "3D6436C0-838D-49FE-97BE-67FAF848B66F";
paths = (
{
closed = 1;
nodes = (
"933 54 LINE",
"198 53 LINE",
"273 132 OFFCURVE",
"300 242 OFFCURVE",
"315 343 CURVE SMOOTH",
"361 667 LINE",
"719 667 LINE",
"726 721 LINE",
"369 721 LINE",
"415 1039 LINE SMOOTH",
"448 1234 OFFCURVE",
"572 1421 OFFCURVE",
"788 1422 CURVE SMOOTH",
"989 1422 OFFCURVE",
"1063 1272 OFFCURVE",
"1036 1089 CURVE",
"1089 1089 LINE",
"1118 1302 OFFCURVE",
"1018 1476 OFFCURVE",
"787 1476 CURVE SMOOTH",
"542 1476 OFFCURVE",
"397 1262 OFFCURVE",
"360 1039 CURVE SMOOTH",
"315 721 LINE",
"111 721 LINE",
"103 667 LINE",
"307 667 LINE",
"259 336 LINE SMOOTH",
"243 240 OFFCURVE",
"213 98 OFFCURVE",
"113 54 CURVE",
"-1 54 LINE",
"-8 0 LINE",
"926 0 LINE"
);
}
);
width = 1116;
}
);
note = sterling;
unicode = 00A3;
},
{
glyphname = currency;
lastChange = "2017-05-19 14:54:55 +0000";
layers = (
{
layerId = "3D6436C0-838D-49FE-97BE-67FAF848B66F";
paths = (
{
closed = 1;
nodes = (
"1320 434 OFFCURVE",
"1378 776 OFFCURVE",
"1227 1028 CURVE",
"1448 1223 LINE",
"1411 1265 LINE",
"1191 1071 LINE",
"1097 1180 OFFCURVE",
"976 1234 OFFCURVE",
"828 1234 CURVE SMOOTH",
"683 1234 OFFCURVE",
"543 1180 OFFCURVE",
"409 1073 CURVE",
"261 1264 LINE",
"218 1227 LINE",
"369 1033 LINE",
"125 793 OFFCURVE",
"73 445 OFFCURVE",
"214 196 CURVE",
"8 15 LINE",
"44 -26 LINE",
"248 153 LINE",
"343 38 OFFCURVE",
"467 -20 OFFCURVE",
"621 -20 CURVE SMOOTH",
"782 -20 OFFCURVE",
"932 52 OFFCURVE",
"1053 155 CURVE",
"1194 -27 LINE",
"1238 11 LINE",
"1093 198 LINE"
);
},
{
closed = 1;
nodes = (
"218 706 OFFCURVE",
"257 799 OFFCURVE",
"317 886 CURVE SMOOTH",
"437 1061 OFFCURVE",
"621 1181 OFFCURVE",
"829 1181 CURVE SMOOTH",
"1032 1181 OFFCURVE",
"1172 1054 OFFCURVE",
"1229 879 CURVE SMOOTH",
"1286 703 OFFCURVE",
"1251 506 OFFCURVE",
"1131 331 CURVE SMOOTH",
"1011 155 OFFCURVE",
"827 33 OFFCURVE",
"620 33 CURVE SMOOTH",
"517 33 OFFCURVE",
"432 62 OFFCURVE",
"364 119 CURVE SMOOTH",
"227 233 OFFCURVE",
"167 423 OFFCURVE",
"200 608 CURVE SMOOTH"
);
}
);
width = 1457;
}
);
note = currency;
unicode = 00A4;
},
{
glyphname = yen;
lastChange = "2017-05-19 14:54:55 +0000";
layers = (
{
layerId = "3D6436C0-838D-49FE-97BE-67FAF848B66F";
paths = (
{
closed = 1;
nodes = (
"490 381 LINE",
"532 621 LINE",
"913 621 LINE",
"920 676 LINE",
"567 676 LINE",
"1119 1455 LINE",
"1056 1455 LINE",
"551 738 LINE",
"517 687 LINE",
"509 687 LINE",
"495 738 LINE",
"239 1457 LINE",
"179 1457 LINE",
"465 676 LINE",
"108 676 LINE",
"100 621 LINE",
"478 621 LINE",
"435 381 LINE",
"57 381 LINE",
"49 326 LINE",
"426 326 LINE",
"371 0 LINE",
"424 0 LINE",
"481 326 LINE",
"861 326 LINE",
"869 381 LINE"
);
}
);
width = 1007;
}
);
note = yen;
unicode = 00A5;
},
{
glyphname = brokenbar;
lastChange = "2017-05-19 14:54:55 +0000";
layers = (
{
layerId = "3D6436C0-838D-49FE-97BE-67FAF848B66F";
paths = (
{
closed = 1;
nodes = (
"184 698 LINE",
"238 698 LINE",
"368 1456 LINE",
"314 1456 LINE"
);
},
{
closed = 1;
nodes = (
"145 482 LINE",
"16 -270 LINE",
"70 -270 LINE",
"199 482 LINE"
);
}
);
width = 386;
}
);
note = brokenbar;
unicode = 00A6;
},
{
glyphname = section;
lastChange = "2017-05-19 14:54:55 +0000";
layers = (
{
layerId = "3D6436C0-838D-49FE-97BE-67FAF848B66F";
paths = (
{
closed = 1;
nodes = (
"915 8 OFFCURVE",
"828 102 OFFCURVE",
"692 163 CURVE",
"841 190 OFFCURVE",
"1005 263 OFFCURVE",
"1033 431 CURVE SMOOTH",
"1035 444 LINE SMOOTH",
"1046 522 OFFCURVE",
"1030 584 OFFCURVE",
"989 630 CURVE SMOOTH",
"905 721 OFFCURVE",
"756 766 OFFCURVE",
"634 803 CURVE SMOOTH",
"573 821 OFFCURVE",
"515 842 OFFCURVE",
"461 867 CURVE SMOOTH",
"352 915 OFFCURVE",
"279 993 OFFCURVE",
"307 1132 CURVE SMOOTH",
"347 1339 OFFCURVE",
"556 1422 OFFCURVE",
"747 1422 CURVE SMOOTH",
"972 1421 OFFCURVE",
"1098 1264 OFFCURVE",
"1065 1045 CURVE",
"1119 1045 LINE",
"1155 1305 OFFCURVE",
"1013 1476 OFFCURVE",
"746 1476 CURVE SMOOTH",
"527 1476 OFFCURVE",
"291 1366 OFFCURVE",
"252 1129 CURVE SMOOTH",
"228 981 OFFCURVE",
"305 885 OFFCURVE",
"433 824 CURVE",
"358 809 OFFCURVE",
"288 781 OFFCURVE",
"225 739 CURVE SMOOTH",
"97 654 OFFCURVE",
"62 448 OFFCURVE",
"157 344 CURVE SMOOTH",
"232 261 OFFCURVE",
"336 219 OFFCURVE",
"528 163 CURVE SMOOTH",
"624 135 OFFCURVE",
"694 106 OFFCURVE",
"739 77 CURVE SMOOTH",
"827 17 OFFCURVE",
"855 -50 OFFCURVE",
"834 -151 CURVE SMOOTH",
"794 -355 OFFCURVE",
"585 -440 OFFCURVE",
"397 -441 CURVE SMOOTH",
"162 -441 OFFCURVE",
"14 -302 OFFCURVE",
"50 -62 CURVE",
"-4 -64 LINE",
"-43 -337 OFFCURVE",
"131 -495 OFFCURVE",
"398 -495 CURVE SMOOTH",
"619 -495 OFFCURVE",
"851 -389 OFFCURVE",
"890 -149 CURVE SMOOTH"
);
},
{
closed = 1;
nodes = (
"482 231 OFFCURVE",
"419 252 OFFCURVE",
"355 276 CURVE SMOOTH",
"226 323 OFFCURVE",
"132 402 OFFCURVE",
"163 553 CURVE SMOOTH",
"196 720 OFFCURVE",
"353 784 OFFCURVE",
"506 796 CURVE",
"588 771 LINE SMOOTH",
"653 752 OFFCURVE",
"718 731 OFFCURVE",
"783 706 CURVE SMOOTH",
"911 657 OFFCURVE",
"1009 575 OFFCURVE",
"978 428 CURVE SMOOTH",
"942 257 OFFCURVE",
"748 203 OFFCURVE",
"597 196 CURVE",
"544 212 LINE SMOOTH"
);
}
);
width = 1186;
}
);
note = section;
unicode = 00A7;
},
{
glyphname = dieresis;
lastChange = "2017-05-19 14:54:55 +0000";
layers = (
{
layerId = "3D6436C0-838D-49FE-97BE-67FAF848B66F";
paths = (
{
closed = 1;
nodes = (
"292 1394 OFFCURVE",
"315 1366 OFFCURVE",
"344 1366 CURVE SMOOTH",
"380 1366 OFFCURVE",
"401 1384 OFFCURVE",
"406 1420 CURVE SMOOTH",
"410 1448 OFFCURVE",
"386 1477 OFFCURVE",
"357 1477 CURVE SMOOTH",
"322 1477 OFFCURVE",
"301 1459 OFFCURVE",
"296 1422 CURVE SMOOTH"
);
},
{
closed = 1;
nodes = (
"724 1394 OFFCURVE",
"745 1366 OFFCURVE",
"776 1366 CURVE SMOOTH",
"812 1366 OFFCURVE",
"832 1384 OFFCURVE",
"837 1420 CURVE SMOOTH",
"841 1448 OFFCURVE",
"818 1477 OFFCURVE",
"789 1477 CURVE SMOOTH",
"754 1477 OFFCURVE",
"733 1459 OFFCURVE",
"728 1422 CURVE SMOOTH"
);
}
);
width = 879;
}
);
note = dieresis;
unicode = 00A8;
},
{
glyphname = copyright;
lastChange = "2017-05-19 14:54:55 +0000";
layers = (
{
layerId = "3D6436C0-838D-49FE-97BE-67FAF848B66F";
paths = (
{
closed = 1;
nodes = (
"120 604 OFFCURVE",
"131 485 OFFCURVE",
"173 370 CURVE SMOOTH",
"256 141 OFFCURVE",
"447 -21 OFFCURVE",
"716 -21 CURVE SMOOTH",
"989 -21 OFFCURVE",
"1225 135 OFFCURVE",
"1376 364 CURVE SMOOTH",
"1527 592 OFFCURVE",
"1567 859 OFFCURVE",
"1484 1088 CURVE SMOOTH",
"1400 1316 OFFCURVE",
"1209 1476 OFFCURVE",
"940 1476 CURVE SMOOTH",
"804 1476 OFFCURVE",
"679 1441 OFFCURVE",
"565 1370 CURVE SMOOTH",
"337 1229 OFFCURVE",
"178 988 OFFCURVE",
"139 729 CURVE SMOOTH"
);
},
{
closed = 1;
nodes = (
"214 848 OFFCURVE",
"259 960 OFFCURVE",
"330 1065 CURVE SMOOTH",
"470 1276 OFFCURVE",
"690 1421 OFFCURVE",
"941 1421 CURVE SMOOTH",
"1188 1421 OFFCURVE",
"1361 1270 OFFCURVE",
"1434 1058 CURVE SMOOTH",
"1507 846 OFFCURVE",
"1468 604 OFFCURVE",
"1328 392 CURVE SMOOTH",
"1187 180 OFFCURVE",
"967 34 OFFCURVE",
"715 34 CURVE SMOOTH",
"591 34 OFFCURVE",
"487 68 OFFCURVE",
"403 137 CURVE SMOOTH",
"235 274 OFFCURVE",
"158 502 OFFCURVE",
"195 729 CURVE SMOOTH"
);
},
{
closed = 1;
nodes = (
"1026 541 OFFCURVE",
"995 479 OFFCURVE",
"950 430 CURVE SMOOTH",
"859 332 OFFCURVE",
"684 341 OFFCURVE",
"621 410 CURVE SMOOTH",
"558 479 OFFCURVE",
"544 590 OFFCURVE",
"559 689 CURVE SMOOTH",
"571 763 LINE SMOOTH",
"598 924 OFFCURVE",
"703 1101 OFFCURVE",
"884 1102 CURVE SMOOTH",
"1047 1102 OFFCURVE",
"1098 987 OFFCURVE",
"1079 842 CURVE",
"1130 842 LINE",
"1151 1018 OFFCURVE",
"1075 1156 OFFCURVE",
"884 1155 CURVE SMOOTH",
"671 1154 OFFCURVE",
"547 957 OFFCURVE",
"516 768 CURVE SMOOTH",
"504 689 LINE SMOOTH",
"496 629 OFFCURVE",
"499 569 OFFCURVE",
"513 510 CURVE SMOOTH",
"540 391 OFFCURVE",
"618 302 OFFCURVE",
"759 302 CURVE SMOOTH",
"951 302 OFFCURVE",
"1062 438 OFFCURVE",
"1093 615 CURVE",
"1041 616 LINE"
);
}
);
width = 1616;
}
);
note = copyright;
unicode = 00A9;
},
{
glyphname = ordfeminine;
lastChange = "2017-05-19 14:54:55 +0000";
layers = (
{
layerId = "3D6436C0-838D-49FE-97BE-67FAF848B66F";
paths = (
{
closed = 1;
nodes = (
"729 765 OFFCURVE",
"731 825 OFFCURVE",
"741 886 CURVE SMOOTH",
"795 1200 LINE SMOOTH",
"818 1348 OFFCURVE",
"755 1476 OFFCURVE",
"591 1476 CURVE SMOOTH",
"443 1476 OFFCURVE",
"305 1395 OFFCURVE",
"273 1244 CURVE",
"328 1244 LINE",
"360 1369 OFFCURVE",
"467 1423 OFFCURVE",
"592 1422 CURVE SMOOTH",
"724 1419 OFFCURVE",
"761 1318 OFFCURVE",
"740 1201 CURVE SMOOTH",
"726 1132 LINE",
"557 1132 LINE SMOOTH",
"404 1128 OFFCURVE",
"241 1068 OFFCURVE",
"214 900 CURVE SMOOTH",
"193 763 OFFCURVE",
"298 691 OFFCURVE",
"425 691 CURVE SMOOTH",
"528 692 OFFCURVE",
"617 749 OFFCURVE",
"681 824 CURVE",
"676 783 OFFCURVE",
"676 743 OFFCURVE",
"679 704 CURVE",
"736 705 LINE"
);
},
{
closed = 1;
nodes = (
"326 746 OFFCURVE",
"246 796 OFFCURVE",
"269 904 CURVE SMOOTH",
"297 1043 OFFCURVE",
"438 1075 OFFCURVE",
"562 1078 CURVE SMOOTH",
"720 1078 LINE",
"687 900 LINE",
"634 815 OFFCURVE",
"529 747 OFFCURVE",
"426 746 CURVE SMOOTH"
);
}
);
width = 871;
}
);
note = ordfeminine;
unicode = 00AA;
},
{
glyphname = guillemotleft;
lastChange = "2017-05-19 14:54:55 +0000";
layers = (
{
layerId = "3D6436C0-838D-49FE-97BE-67FAF848B66F";
paths = (
{
closed = 1;
nodes = (
"196 521 LINE",
"548 902 LINE",
"476 903 LINE",
"127 534 LINE",
"125 515 LINE",
"350 144 LINE",
"417 144 LINE"
);
},
{
closed = 1;
nodes = (
"474 521 LINE",
"826 902 LINE",
"754 903 LINE",
"405 534 LINE",
"403 515 LINE",
"628 144 LINE",
"695 144 LINE"
);
}
);
width = 888;
}
);
note = guillemotleft;
unicode = 00AB;
},
{
glyphname = logicalnot;
lastChange = "2017-05-19 14:54:55 +0000";
layers = (
{
layerId = "3D6436C0-838D-49FE-97BE-67FAF848B66F";
paths = (
{
closed = 1;
nodes = (
"852 700 LINE",
"800 396 LINE",
"854 396 LINE",
"916 753 LINE",
"143 753 LINE",
"136 700 LINE"
);
}
);
width = 1068;
}
);
note = logicalnot;
unicode = 00AC;
},
{
glyphname = registered;
lastChange = "2017-05-19 14:54:55 +0000";
layers = (
{
layerId = "3D6436C0-838D-49FE-97BE-67FAF848B66F";
paths = (
{
closed = 1;
nodes = (
"111 604 OFFCURVE",
"123 485 OFFCURVE",
"164 370 CURVE SMOOTH",
"247 141 OFFCURVE",
"438 -21 OFFCURVE",
"707 -21 CURVE SMOOTH",
"980 -21 OFFCURVE",
"1216 135 OFFCURVE",
"1367 364 CURVE SMOOTH",
"1518 592 OFFCURVE",
"1559 859 OFFCURVE",
"1475 1088 CURVE SMOOTH",
"1391 1316 OFFCURVE",
"1201 1476 OFFCURVE",
"932 1476 CURVE SMOOTH",
"795 1476 OFFCURVE",
"670 1441 OFFCURVE",
"556 1371 CURVE SMOOTH",
"328 1230 OFFCURVE",
"169 989 OFFCURVE",
"130 729 CURVE SMOOTH"
);
},
{
closed = 1;
nodes = (
"204 848 OFFCURVE",
"249 960 OFFCURVE",
"320 1066 CURVE SMOOTH",
"461 1277 OFFCURVE",
"681 1421 OFFCURVE",
"932 1421 CURVE SMOOTH",
"1180 1421 OFFCURVE",
"1352 1270 OFFCURVE",
"1426 1058 CURVE SMOOTH",
"1500 846 OFFCURVE",
"1459 604 OFFCURVE",
"1319 392 CURVE SMOOTH",
"1178 180 OFFCURVE",
"958 34 OFFCURVE",
"707 34 CURVE SMOOTH",
"583 34 OFFCURVE",
"479 68 OFFCURVE",
"395 137 CURVE SMOOTH",
"226 274 OFFCURVE",
"149 502 OFFCURVE",
"185 729 CURVE SMOOTH"
);
},
{
closed = 1;
nodes = (
"965 675 OFFCURVE",
"1014 617 OFFCURVE",
"997 504 CURVE SMOOTH",
"983 398 LINE SMOOTH",
"980 374 OFFCURVE",
"980 350 OFFCURVE",
"983 326 CURVE",
"1041 326 LINE",
"1043 342 LINE",
"1043 405 LINE",
"1046 469 LINE",
"1052 505 LINE SMOOTH",
"1066 608 OFFCURVE",
"1034 676 OFFCURVE",
"955 709 CURVE",
"1062 755 OFFCURVE",
"1123 824 OFFCURVE",
"1137 916 CURVE SMOOTH",
"1162 1084 OFFCURVE",
"1040 1153 OFFCURVE",
"889 1156 CURVE SMOOTH",
"660 1156 LINE",
"532 326 LINE",
"586 326 LINE",
"641 678 LINE",
"850 678 LINE SMOOTH"
);
},
{
closed = 1;
nodes = (
"1013 1098 OFFCURVE",
"1109 1058 OFFCURVE",
"1082 917 CURVE SMOOTH",
"1059 800 OFFCURVE",
"956 738 OFFCURVE",
"843 734 CURVE",
"649 734 LINE",
"707 1101 LINE",
"889 1101 LINE SMOOTH"
);
}
);
width = 1624;
}
);
note = registered;
unicode = 00AE;
},
{
glyphname = macron;
lastChange = "2017-05-19 14:54:55 +0000";
layers = (
{
layerId = "3D6436C0-838D-49FE-97BE-67FAF848B66F";
paths = (
{
closed = 1;
nodes = (
"250 1383 LINE",
"801 1383 LINE",
"808 1436 LINE",
"256 1436 LINE"
);
}
);
width = 787;
}
);
note = macron;
unicode = 00AF;
},
{
glyphname = degree;
lastChange = "2017-05-19 14:54:55 +0000";
layers = (
{
layerId = "3D6436C0-838D-49FE-97BE-67FAF848B66F";
paths = (
{
closed = 1;
nodes = (
"241 1112 OFFCURVE",
"326 999 OFFCURVE",
"455 999 CURVE SMOOTH",
"584 1000 OFFCURVE",
"697 1111 OFFCURVE",
"717 1236 CURVE SMOOTH",
"736 1356 OFFCURVE",
"655 1476 OFFCURVE",
"527 1476 CURVE SMOOTH",
"396 1476 OFFCURVE",
"281 1363 OFFCURVE",
"261 1236 CURVE SMOOTH"
);
},
{
closed = 1;
nodes = (
"335 1336 OFFCURVE",
"423 1421 OFFCURVE",
"528 1421 CURVE SMOOTH",
"629 1420 OFFCURVE",
"680 1329 OFFCURVE",
"661 1236 CURVE SMOOTH",
"642 1139 OFFCURVE",
"557 1055 OFFCURVE",
"454 1055 CURVE SMOOTH",
"354 1056 OFFCURVE",
"297 1141 OFFCURVE",
"316 1236 CURVE SMOOTH"
);
}
);
width = 760;
}
);
note = degree;
unicode = 00B0;
},
{
glyphname = plusminus;
lastChange = "2017-05-19 14:54:55 +0000";
layers = (
{
layerId = "3D6436C0-838D-49FE-97BE-67FAF848B66F";
paths = (
{
closed = 1;
nodes = (
"584 805 LINE",
"655 1267 LINE",
"602 1267 LINE",
"530 805 LINE",
"99 805 LINE",
"93 751 LINE",
"522 751 LINE",
"450 289 LINE",
"504 289 LINE",
"576 751 LINE",
"983 751 LINE",
"989 805 LINE"
);
},
{
closed = 1;
nodes = (
"24 -1 LINE",
"835 -1 LINE",
"842 53 LINE",
"31 53 LINE"
);
}
);
width = 1045;
}
);
note = plusminus;
unicode = 00B1;
},
{
glyphname = twosuperior;
lastChange = "2017-05-19 14:54:55 +0000";
layers = (
{
layerId = "3D6436C0-838D-49FE-97BE-67FAF848B66F";
paths = (
{
closed = 1;
nodes = (
"481 962 LINE SMOOTH",
"561 1033 OFFCURVE",
"681 1129 OFFCURVE",
"700 1248 CURVE SMOOTH",
"723 1385 OFFCURVE",
"619 1464 OFFCURVE",
"490 1464 CURVE SMOOTH",
"343 1463 OFFCURVE",
"222 1371 OFFCURVE",
"191 1227 CURVE",
"246 1227 LINE",
"261 1286 OFFCURVE",
"290 1332 OFFCURVE",
"334 1365 CURVE SMOOTH",
"422 1432 OFFCURVE",
"554 1428 OFFCURVE",
"616 1371 CURVE SMOOTH",
"678 1314 OFFCURVE",
"651 1192 OFFCURVE",
"571 1113 CURVE SMOOTH",
"491 1038 LINE",
"123 708 LINE",
"116 664 LINE",
"644 664 LINE",
"651 713 LINE",
"193 713 LINE"
);
}
);
width = 716;
}
);
note = twosuperior;
unicode = 00B2;
},
{
glyphname = threesuperior;
lastChange = "2017-05-19 14:54:55 +0000";
layers = (
{
layerId = "3D6436C0-838D-49FE-97BE-67FAF848B66F";
paths = (
{
closed = 1;
nodes = (
"514 1038 OFFCURVE",
"636 1005 OFFCURVE",
"612 874 CURVE SMOOTH",
"589 757 OFFCURVE",
"479 701 OFFCURVE",
"368 701 CURVE SMOOTH",
"256 702 OFFCURVE",
"164 762 OFFCURVE",
"177 881 CURVE",
"124 881 LINE",
"111 732 OFFCURVE",
"229 653 OFFCURVE",
"369 653 CURVE SMOOTH",
"506 654 OFFCURVE",
"643 730 OFFCURVE",
"666 875 CURVE SMOOTH",
"681 974 OFFCURVE",
"621 1038 OFFCURVE",
"530 1067 CURVE",
"614 1098 OFFCURVE",
"696 1151 OFFCURVE",
"712 1246 CURVE SMOOTH",
"735 1386 OFFCURVE",
"626 1464 OFFCURVE",
"495 1464 CURVE SMOOTH",
"358 1463 OFFCURVE",
"234 1383 OFFCURVE",
"205 1247 CURVE",
"258 1247 LINE",
"289 1355 OFFCURVE",
"385 1415 OFFCURVE",
"496 1414 CURVE SMOOTH",
"596 1414 OFFCURVE",
"681 1358 OFFCURVE",
"658 1249 CURVE SMOOTH",
"634 1136 OFFCURVE",
"514 1093 OFFCURVE",
"411 1090 CURVE SMOOTH",
"345 1090 LINE",
"337 1041 LINE",
"409 1041 LINE SMOOTH"
);
}
);
width = 716;
}
);
note = threesuperior;
unicode = 00B3;
},
{
glyphname = acute;
lastChange = "2017-05-19 14:54:55 +0000";
layers = (
{
layerId = "3D6436C0-838D-49FE-97BE-67FAF848B66F";
paths = (
{
closed = 1;
nodes = (
"517 1534 LINE",
"449 1535 LINE",
"226 1272 LINE",
"288 1271 LINE"
);
}
);
width = 496;
}
);
note = acute;
unicode = 00B4;
},
{
glyphname = mu;
lastChange = "2017-05-19 14:54:55 +0000";
layers = (
{
layerId = "3D6436C0-838D-49FE-97BE-67FAF848B66F";
paths = (
{
closed = 1;
nodes = (
"588 -20 OFFCURVE",
"720 65 OFFCURVE",
"808 205 CURVE",
"771 0 LINE",
"822 0 LINE",
"1008 1082 LINE",
"954 1082 LINE",
"839 413 LINE",
"790 193 OFFCURVE",
"645 34 OFFCURVE",
"410 34 CURVE SMOOTH",
"333 34 OFFCURVE",
"277 55 OFFCURVE",
"242 98 CURVE SMOOTH",
"173 182 OFFCURVE",
"169 317 OFFCURVE",
"190 440 CURVE SMOOTH",
"300 1082 LINE",
"248 1082 LINE",
"-10 -416 LINE",
"42 -416 LINE",
"145 171 LINE",
"186 44 OFFCURVE",
"288 -20 OFFCURVE",
"420 -20 CURVE SMOOTH"
);
}
);
width = 1087;
}
);
note = mu;
unicode = 00B5;
},
{
glyphname = paragraph;
lastChange = "2017-05-19 14:54:55 +0000";
layers = (
{
layerId = "3D6436C0-838D-49FE-97BE-67FAF848B66F";
paths = (
{
closed = 1;
nodes = (
"726 1456 LINE SMOOTH",
"439 1456 OFFCURVE",
"208 1272 OFFCURVE",
"163 988 CURVE SMOOTH",
"116 711 OFFCURVE",
"289 524 OFFCURVE",
"565 520 CURVE SMOOTH",
"680 520 LINE",
"591 0 LINE",
"645 0 LINE",
"897 1456 LINE"
);
}
);
width = 918;
}
);
note = paragraph;
unicode = 00B6;
},
{
glyphname = periodcentered;
lastChange = "2017-05-19 14:54:55 +0000";
layers = (
{
layerId = "3D6436C0-838D-49FE-97BE-67FAF848B66F";
paths = (
{
closed = 1;
nodes = (
"187 679 OFFCURVE",
"209 651 OFFCURVE",
"238 651 CURVE SMOOTH",
"274 651 OFFCURVE",
"295 669 OFFCURVE",
"301 704 CURVE SMOOTH",
"305 733 OFFCURVE",
"282 762 OFFCURVE",
"253 762 CURVE SMOOTH",
"218 762 OFFCURVE",
"197 744 OFFCURVE",
"191 708 CURVE SMOOTH"
);
}
);
width = 458;
}
);
note = periodcentered;
unicode = 00B7;
},
{
glyphname = cedilla;
lastChange = "2017-05-19 14:54:55 +0000";
layers = (
{
layerId = "3D6436C0-838D-49FE-97BE-67FAF848B66F";
paths = (
{
closed = 1;
nodes = (
"73 -131 OFFCURVE",
"183 -142 OFFCURVE",
"162 -245 CURVE SMOOTH",
"138 -353 OFFCURVE",
"0 -382 OFFCURVE",
"-93 -386 CURVE",
"-94 -435 LINE",
"30 -431 OFFCURVE",
"194 -392 OFFCURVE",
"217 -245 CURVE SMOOTH",
"232 -142 OFFCURVE",
"167 -90 OFFCURVE",
"72 -77 CURVE",
"97 0 LINE",
"44 0 LINE",
"0 -120 LINE"
);
}
);
width = 475;
}
);
note = cedilla;
unicode = 00B8;
},
{
glyphname = onesuperior;
lastChange = "2017-05-19 14:54:55 +0000";
layers = (
{
layerId = "3D6436C0-838D-49FE-97BE-67FAF848B66F";
paths = (
{
closed = 1;
nodes = (
"256 1358 LINE",
"249 1306 LINE",
"502 1384 LINE",
"378 664 LINE",
"432 664 LINE",
"566 1455 LINE",
"555 1455 LINE"
);
}
);
width = 716;
}
);
note = onesuperior;
unicode = 00B9;
},
{
glyphname = ordmasculine;
lastChange = "2017-05-19 14:54:55 +0000";
layers = (
{
layerId = "3D6436C0-838D-49FE-97BE-67FAF848B66F";
paths = (
{
closed = 1;
nodes = (
"190 852 OFFCURVE",
"270 690 OFFCURVE",
"461 690 CURVE SMOOTH",
"653 690 OFFCURVE",
"777 847 OFFCURVE",
"809 1024 CURVE SMOOTH",
"829 1141 LINE SMOOTH",
"854 1313 OFFCURVE",
"777 1476 OFFCURVE",
"585 1476 CURVE SMOOTH",
"394 1476 OFFCURVE",
"268 1318 OFFCURVE",
"236 1141 CURVE SMOOTH",
"217 1024 LINE SMOOTH"
);
},
{
closed = 1;
nodes = (
"323 1291 OFFCURVE",
"425 1422 OFFCURVE",
"586 1422 CURVE SMOOTH",
"749 1421 OFFCURVE",
"800 1282 OFFCURVE",
"776 1141 CURVE SMOOTH",
"754 1019 LINE SMOOTH",
"723 874 OFFCURVE",
"621 744 OFFCURVE",
"461 744 CURVE SMOOTH",
"296 744 OFFCURVE",
"246 880 OFFCURVE",
"270 1024 CURVE SMOOTH",
"292 1146 LINE SMOOTH"
);
}
);
width = 887;
}
);
note = ordmasculine;
unicode = 00BA;
},
{
glyphname = guillemotright;
lastChange = "2017-05-19 14:54:55 +0000";
layers = (
{
layerId = "3D6436C0-838D-49FE-97BE-67FAF848B66F";
paths = (
{
closed = 1;
nodes = (
"401 554 LINE",
"49 173 LINE",
"121 172 LINE",
"468 541 LINE",
"471 560 LINE",
"248 941 LINE",
"182 941 LINE"
);
},
{
closed = 1;
nodes = (
"683 554 LINE",
"331 173 LINE",
"403 172 LINE",
"750 541 LINE",
"753 560 LINE",
"530 941 LINE",
"464 941 LINE"
);
}
);
width = 880;
}
);
note = guillemotright;
unicode = 00BB;
},
{
glyphname = onequarter;
lastChange = "2017-05-19 14:54:55 +0000";
layers = (
{
layerId = "3D6436C0-838D-49FE-97BE-67FAF848B66F";
paths = (
{
closed = 1;
nodes = (
"270 1358 LINE",
"263 1306 LINE",
"516 1384 LINE",
"392 664 LINE",
"446 664 LINE",
"580 1455 LINE",
"569 1455 LINE"
);
},
{
closed = 1;
nodes = (
"255 172 LINE",
"298 140 LINE",
"1183 1275 LINE",
"1140 1307 LINE"
);
},
{
closed = 1;
nodes = (
"1068 204 LINE",
"1034 0 LINE",
"1086 0 LINE",
"1121 204 LINE",
"1264 204 LINE",
"1272 253 LINE",
"1130 253 LINE",
"1221 789 LINE",
"1160 788 LINE",
"663 236 LINE",
"659 205 LINE"
);
},
{
closed = 1;
nodes = (
"1158 720 LINE",
"1076 253 LINE",
"738 253 LINE",
"1106 654 LINE"
);
}
);
width = 1433;
}
);
note = onequarter;
unicode = 00BC;
},
{
glyphname = onehalf;
lastChange = "2017-05-19 14:54:55 +0000";
layers = (
{
layerId = "3D6436C0-838D-49FE-97BE-67FAF848B66F";
paths = (
{
closed = 1;
nodes = (
"213 172 LINE",
"256 140 LINE",
"1141 1275 LINE",
"1098 1307 LINE"
);
},
{
closed = 1;
nodes = (
"247 1358 LINE",
"240 1306 LINE",
"493 1384 LINE",
"369 664 LINE",
"423 664 LINE",
"557 1455 LINE",
"546 1455 LINE"
);
},
{
closed = 1;
nodes = (
"1085 298 LINE SMOOTH",
"1165 369 OFFCURVE",
"1285 465 OFFCURVE",
"1304 584 CURVE SMOOTH",
"1327 721 OFFCURVE",
"1223 800 OFFCURVE",
"1094 800 CURVE SMOOTH",
"947 799 OFFCURVE",
"825 707 OFFCURVE",
"796 563 CURVE",
"850 563 LINE",
"865 622 OFFCURVE",
"894 668 OFFCURVE",
"938 701 CURVE SMOOTH",
"1026 768 OFFCURVE",
"1158 764 OFFCURVE",
"1220 707 CURVE SMOOTH",
"1282 650 OFFCURVE",
"1255 528 OFFCURVE",
"1175 449 CURVE SMOOTH",
"1095 374 LINE",
"727 44 LINE",
"720 0 LINE",
"1248 0 LINE",
"1256 49 LINE",
"798 49 LINE"
);
}
);
width = 1473;
}
);
note = onehalf;
unicode = 00BD;
},
{
glyphname = threequarters;
lastChange = "2017-05-19 14:54:55 +0000";
layers = (
{
layerId = "3D6436C0-838D-49FE-97BE-67FAF848B66F";
paths = (
{
closed = 1;
nodes = (
"412 172 LINE",
"455 140 LINE",
"1340 1275 LINE",
"1297 1307 LINE"
);
},
{
closed = 1;
nodes = (
"1203 204 LINE",
"1169 0 LINE",
"1221 0 LINE",
"1256 204 LINE",
"1399 204 LINE",
"1407 253 LINE",
"1265 253 LINE",
"1356 789 LINE",
"1295 788 LINE",
"798 236 LINE",
"794 205 LINE"
);
},
{
closed = 1;
nodes = (
"1293 720 LINE",
"1211 253 LINE",
"873 253 LINE",
"1241 654 LINE"
);
},
{
closed = 1;
nodes = (
"557 1038 OFFCURVE",
"680 1005 OFFCURVE",
"655 874 CURVE SMOOTH",
"632 757 OFFCURVE",
"522 701 OFFCURVE",
"411 701 CURVE SMOOTH",
"300 702 OFFCURVE",
"207 762 OFFCURVE",
"220 881 CURVE",
"167 881 LINE",
"154 732 OFFCURVE",
"273 653 OFFCURVE",
"412 653 CURVE SMOOTH",
"549 654 OFFCURVE",
"686 730 OFFCURVE",
"709 875 CURVE SMOOTH",
"724 974 OFFCURVE",
"663 1038 OFFCURVE",
"574 1067 CURVE",
"657 1098 OFFCURVE",
"739 1151 OFFCURVE",
"755 1246 CURVE SMOOTH",
"778 1386 OFFCURVE",
"669 1464 OFFCURVE",
"538 1464 CURVE SMOOTH",
"402 1463 OFFCURVE",
"279 1383 OFFCURVE",
"248 1247 CURVE",
"301 1247 LINE",
"332 1355 OFFCURVE",
"429 1415 OFFCURVE",
"540 1414 CURVE SMOOTH",
"640 1414 OFFCURVE",
"724 1358 OFFCURVE",
"701 1249 CURVE SMOOTH",
"677 1136 OFFCURVE",
"558 1093 OFFCURVE",
"455 1090 CURVE SMOOTH",
"388 1090 LINE",
"380 1041 LINE",
"453 1041 LINE SMOOTH"
);
}
);
width = 1548;
}
);
note = threequarters;
unicode = 00BE;
},
{
glyphname = questiondown;
lastChange = "2017-05-19 14:54:55 +0000";
layers = (
{
layerId = "3D6436C0-838D-49FE-97BE-67FAF848B66F";
paths = (
{
closed = 1;
nodes = (
"605 1073 OFFCURVE",
"584 1101 OFFCURVE",
"553 1101 CURVE SMOOTH",
"517 1101 OFFCURVE",
"496 1083 OFFCURVE",
"491 1048 CURVE SMOOTH",
"486 1019 OFFCURVE",
"508 990 OFFCURVE",
"539 990 CURVE SMOOTH",
"574 990 OFFCURVE",
"595 1008 OFFCURVE",
"600 1044 CURVE SMOOTH"
);
},
{
closed = 1;
nodes = (
"433 671 OFFCURVE",
"412 632 OFFCURVE",
"401 577 CURVE SMOOTH",
"389 522 OFFCURVE",
"361 477 OFFCURVE",
"318 444 CURVE SMOOTH",
"169 328 OFFCURVE",
"30 182 OFFCURVE",
"-2 -15 CURVE SMOOTH",
"-35 -215 OFFCURVE",
"70 -381 OFFCURVE",
"283 -381 CURVE SMOOTH",
"500 -381 OFFCURVE",
"642 -225 OFFCURVE",
"685 -22 CURVE",
"630 -22 LINE",
"590 -193 OFFCURVE",
"467 -328 OFFCURVE",
"282 -328 CURVE SMOOTH",
"95 -328 OFFCURVE",
"20 -189 OFFCURVE",
"51 -17 CURVE SMOOTH",
"79 136 OFFCURVE",
"143 226 OFFCURVE",
"350 405 CURVE SMOOTH",
"453 493 OFFCURVE",
"491 563 OFFCURVE",
"515 695 CURVE",
"462 695 LINE"
);
}
);
width = 885;
}
);
note = questiondown;
unicode = 00BF;
},
{
glyphname = AE;
lastChange = "2017-05-19 14:54:55 +0000";
layers = (
{
layerId = "3D6436C0-838D-49FE-97BE-67FAF848B66F";
paths = (
{
closed = 1;
nodes = (
"1032 732 LINE",
"1601 732 LINE",
"1608 786 LINE",
"1039 786 LINE",
"1121 1402 LINE",
"1797 1402 LINE",
"1804 1456 LINE",
"1049 1456 LINE",
"-56 0 LINE",
"11 0 LINE",
"333 425 LINE",
"938 425 LINE",
"881 0 LINE",
"1613 0 LINE",
"1620 54 LINE",
"942 54 LINE"
);
},
{
closed = 1;
nodes = (
"944 478 LINE",
"373 478 LINE",
"1067 1392 LINE"
);
}
);
width = 1762;
}
);
note = AE;
unicode = 00C6;
},
{
glyphname = multiply;
lastChange = "2017-05-19 14:54:55 +0000";
layers = (
{
layerId = "3D6436C0-838D-49FE-97BE-67FAF848B66F";
paths = (
{
closed = 1;
nodes = (
"922 791 LINE",
"887 832 LINE",
"478 469 LINE",
"195 832 LINE",
"153 795 LINE",
"438 432 LINE",
"-4 38 LINE",
"31 -1 LINE",
"472 389 LINE",
"776 -1 LINE",
"818 34 LINE",
"512 426 LINE"
);
}
);
width = 1020;
}
);
note = multiply;
unicode = 00D7;
},
{
glyphname = Oslash;
lastChange = "2017-05-19 14:54:55 +0000";
layers = (
{
layerId = "3D6436C0-838D-49FE-97BE-67FAF848B66F";
paths = (
{
closed = 1;
nodes = (
"680 -20 OFFCURVE",
"784 11 OFFCURVE",
"873 72 CURVE SMOOTH",
"1049 195 OFFCURVE",
"1160 403 OFFCURVE",
"1199 619 CURVE SMOOTH",
"1235 831 LINE SMOOTH",
"1260 983 OFFCURVE",
"1254 1139 OFFCURVE",
"1185 1275 CURVE",
"1359 1493 LINE",
"1291 1494 LINE",
"1151 1320 LINE",
"1067 1428 OFFCURVE",
"941 1476 OFFCURVE",
"808 1476 CURVE SMOOTH",
"688 1476 OFFCURVE",
"584 1445 OFFCURVE",
"496 1384 CURVE SMOOTH",
"319 1260 OFFCURVE",
"208 1053 OFFCURVE",
"169 837 CURVE SMOOTH",
"132 619 LINE SMOOTH",
"104 452 OFFCURVE",
"116 274 OFFCURVE",
"217 131 CURVE",
"54 -73 LINE",
"122 -74 LINE",
"256 92 LINE",
"336 17 OFFCURVE",
"437 -20 OFFCURVE",
"560 -20 CURVE SMOOTH"
);
},
{
closed = 1;
nodes = (
"171 468 OFFCURVE",
"174 544 OFFCURVE",
"187 619 CURVE SMOOTH",
"224 833 LINE SMOOTH",
"241 932 OFFCURVE",
"275 1027 OFFCURVE",
"326 1117 CURVE SMOOTH",
"426 1296 OFFCURVE",
"589 1422 OFFCURVE",
"808 1422 CURVE SMOOTH",
"932 1422 OFFCURVE",
"1047 1378 OFFCURVE",
"1120 1275 CURVE",
"250 177 LINE",
"207 243 OFFCURVE",
"182 314 OFFCURVE",
"177 391 CURVE SMOOTH"
);
},
{
closed = 1;
nodes = (
"1198 969 OFFCURVE",
"1194 904 OFFCURVE",
"1183 839 CURVE SMOOTH",
"1143 613 LINE SMOOTH",
"1124 515 OFFCURVE",
"1090 422 OFFCURVE",
"1040 334 CURVE SMOOTH",
"939 157 OFFCURVE",
"777 34 OFFCURVE",
"560 34 CURVE SMOOTH",
"447 34 OFFCURVE",
"356 68 OFFCURVE",
"287 137 CURVE",
"1151 1227 LINE",
"1178 1166 OFFCURVE",
"1192 1102 OFFCURVE",
"1195 1036 CURVE SMOOTH"
);
}
);
width = 1323;
}
);
leftKerningGroup = C;
note = Oslash;
unicode = 00D8;
},
{
glyphname = Thorn;
lastChange = "2017-05-19 14:54:55 +0000";
layers = (
{
layerId = "3D6436C0-838D-49FE-97BE-67FAF848B66F";
paths = (
{
closed = 1;
nodes = (
"816 341 OFFCURVE",
"1027 486 OFFCURVE",
"1068 738 CURVE SMOOTH",
"1109 991 OFFCURVE",
"933 1143 OFFCURVE",
"686 1143 CURVE SMOOTH",
"341 1143 LINE",
"395 1456 LINE",
"341 1456 LINE",
"90 0 LINE",
"144 0 LINE",
"202 334 LINE",
"571 334 LINE SMOOTH"
);
},
{
closed = 1;
nodes = (
"906 1084 OFFCURVE",
"1054 951 OFFCURVE",
"1013 736 CURVE SMOOTH",
"973 517 OFFCURVE",
"771 388 OFFCURVE",
"555 388 CURVE SMOOTH",
"211 388 LINE",
"333 1089 LINE",
"699 1089 LINE SMOOTH"
);
}
);
width = 1182;
}
);
note = Thorn;
unicode = 00DE;
},
{
glyphname = germandbls;
lastChange = "2017-05-19 14:54:55 +0000";
layers = (
{
layerId = "3D6436C0-838D-49FE-97BE-67FAF848B66F";
paths = (
{
closed = 1;
nodes = (
"321 1225 OFFCURVE",
"357 1307 OFFCURVE",
"412 1378 CURVE SMOOTH",
"522 1518 OFFCURVE",
"717 1501 OFFCURVE",
"794 1414 CURVE SMOOTH",
"871 1327 OFFCURVE",
"835 1202 OFFCURVE",
"782 1113 CURVE SMOOTH",
"703 980 LINE SMOOTH",
"676 935 OFFCURVE",
"659 885 OFFCURVE",
"652 831 CURVE SMOOTH",
"635 714 OFFCURVE",
"709 638 OFFCURVE",
"793 567 CURVE SMOOTH",
"877 496 OFFCURVE",
"948 421 OFFCURVE",
"927 306 CURVE SMOOTH",
"895 141 OFFCURVE",
"723 33 OFFCURVE",
"563 32 CURVE SMOOTH",
"475 32 OFFCURVE",
"377 59 OFFCURVE",
"309 116 CURVE",
"279 69 LINE",
"355 4 OFFCURVE",
"473 -21 OFFCURVE",
"572 -21 CURVE SMOOTH",
"753 -20 OFFCURVE",
"950 110 OFFCURVE",
"979 297 CURVE SMOOTH",
"999 420 OFFCURVE",
"926 499 OFFCURVE",
"842 572 CURVE SMOOTH",
"800 608 OFFCURVE",
"764 646 OFFCURVE",
"735 686 CURVE SMOOTH",
"675 766 OFFCURVE",
"705 887 OFFCURVE",
"760 976 CURVE SMOOTH",
"842 1110 LINE SMOOTH",
"869 1155 OFFCURVE",
"887 1204 OFFCURVE",
"895 1257 CURVE SMOOTH",
"919 1417 OFFCURVE",
"790 1534 OFFCURVE",
"635 1535 CURVE SMOOTH",
"407 1536 OFFCURVE",
"289 1347 OFFCURVE",
"252 1143 CURVE SMOOTH",
"55 0 LINE",
"109 0 LINE",
"305 1131 LINE SMOOTH"
);
}
);
width = 1148;
}
);
note = germandbls;
unicode = 00DF;
},
{
glyphname = ae;
lastChange = "2017-05-19 14:54:55 +0000";
layers = (
{
layerId = "3D6436C0-838D-49FE-97BE-67FAF848B66F";
paths = (
{
closed = 1;
nodes = (
"1257 -9 OFFCURVE",
"1016 12 OFFCURVE",
"920 104 CURVE SMOOTH",
"824 195 OFFCURVE",
"798 351 OFFCURVE",
"830 510 CURVE SMOOTH",
"841 564 LINE",
"844 578 LINE",
"1604 577 LINE",
"1619 660 LINE SMOOTH",
"1656 892 OFFCURVE",
"1555 1102 OFFCURVE",
"1298 1102 CURVE SMOOTH",
"1107 1101 OFFCURVE",
"961 970 OFFCURVE",
"869 815 CURVE",
"870 991 OFFCURVE",
"765 1102 OFFCURVE",
"588 1102 CURVE SMOOTH",
"383 1102 OFFCURVE",
"189 988 OFFCURVE",
"148 779 CURVE",
"200 772 LINE",
"243 953 OFFCURVE",
"409 1048 OFFCURVE",
"588 1048 CURVE SMOOTH",
"787 1047 OFFCURVE",
"838 893 OFFCURVE",
"809 720 CURVE SMOOTH",
"793 630 LINE",
"515 630 LINE SMOOTH",
"291 630 OFFCURVE",
"72 521 OFFCURVE",
"35 284 CURVE SMOOTH",
"3 87 OFFCURVE",
"148 -20 OFFCURVE",
"332 -20 CURVE SMOOTH",
"509 -20 OFFCURVE",
"682 67 OFFCURVE",
"779 216 CURVE",
"777 216 LINE",
"780 230 LINE",
"828 67 OFFCURVE",
"960 -20 OFFCURVE",
"1128 -20 CURVE SMOOTH",
"1269 -20 OFFCURVE",
"1393 27 OFFCURVE",
"1499 120 CURVE",
"1474 164 LINE"
);
},
{
closed = 1;
nodes = (
"1519 1048 OFFCURVE",
"1601 860 OFFCURVE",
"1564 664 CURVE SMOOTH",
"1557 632 LINE",
"851 632 LINE",
"873 699 OFFCURVE",
"904 765 OFFCURVE",
"944 829 CURVE SMOOTH",
"1024 956 OFFCURVE",
"1141 1048 OFFCURVE",
"1298 1048 CURVE SMOOTH"
);
},
{
closed = 1;
nodes = (
"176 32 OFFCURVE",
"58 116 OFFCURVE",
"89 280 CURVE SMOOTH",
"128 483 OFFCURVE",
"326 575 OFFCURVE",
"518 575 CURVE SMOOTH",
"784 575 LINE",
"722 226 LINE",
"646 102 OFFCURVE",
"470 33 OFFCURVE",
"331 32 CURVE SMOOTH"
);
}
);
width = 1683;
}
);
note = ae;
unicode = 00E6;
},
{
glyphname = eth;
lastChange = "2017-05-19 14:54:55 +0000";
layers = (
{
layerId = "3D6436C0-838D-49FE-97BE-67FAF848B66F";
paths = (
{
closed = 1;
nodes = (
"607 -19 OFFCURVE",
"692 13 OFFCURVE",
"763 76 CURVE SMOOTH",
"908 206 OFFCURVE",
"995 414 OFFCURVE",
"1024 701 CURVE SMOOTH",
"1043 885 OFFCURVE",
"1044 1102 OFFCURVE",
"900 1307 CURVE",
"1102 1411 LINE",
"1079 1461 LINE",
"862 1349 LINE",
"777 1439 OFFCURVE",
"661 1515 OFFCURVE",
"513 1576 CURVE",
"487 1528 LINE",
"607 1479 OFFCURVE",
"723 1417 OFFCURVE",
"811 1321 CURVE",
"576 1199 LINE",
"598 1149 LINE",
"851 1279 LINE",
"949 1147 OFFCURVE",
"991 981 OFFCURVE",
"976 780 CURVE",
"908 900 OFFCURVE",
"773 953 OFFCURVE",
"638 953 CURVE SMOOTH",
"497 953 OFFCURVE",
"385 904 OFFCURVE",
"301 807 CURVE SMOOTH",
"133 612 OFFCURVE",
"111 380 OFFCURVE",
"160 232 CURVE SMOOTH",
"209 83 OFFCURVE",
"328 -20 OFFCURVE",
"507 -20 CURVE SMOOTH"
);
},
{
closed = 1;
nodes = (
"238 693 OFFCURVE",
"390 895 OFFCURVE",
"638 895 CURVE SMOOTH",
"789 895 OFFCURVE",
"929 824 OFFCURVE",
"969 672 CURVE",
"959 617 LINE",
"944 535 LINE SMOOTH",
"931 463 OFFCURVE",
"906 389 OFFCURVE",
"871 312 CURVE SMOOTH",
"800 158 OFFCURVE",
"683 38 OFFCURVE",
"511 38 CURVE SMOOTH",
"274 38 OFFCURVE",
"159 250 OFFCURVE",
"198 465 CURVE SMOOTH"
);
}
);
width = 1148;
}
);
note = eth;
unicode = 00F0;
},
{
glyphname = divide;
lastChange = "2017-05-19 14:54:55 +0000";
layers = (
{
layerId = "3D6436C0-838D-49FE-97BE-67FAF848B66F";
paths = (
{
closed = 1;
nodes = (
"591 1052 OFFCURVE",
"612 1024 OFFCURVE",
"643 1024 CURVE SMOOTH",
"679 1024 OFFCURVE",
"700 1042 OFFCURVE",
"705 1077 CURVE SMOOTH",
"709 1106 OFFCURVE",
"686 1135 OFFCURVE",
"657 1135 CURVE SMOOTH",
"622 1135 OFFCURVE",
"601 1117 OFFCURVE",
"596 1081 CURVE SMOOTH"
);
},
{
closed = 1;
nodes = (
"86 686 LINE",
"1056 686 LINE",
"1063 738 LINE",
"93 738 LINE"
);
},
{
closed = 1;
nodes = (
"456 274 OFFCURVE",
"477 246 OFFCURVE",
"508 246 CURVE SMOOTH",
"544 246 OFFCURVE",
"565 264 OFFCURVE",
"570 299 CURVE SMOOTH",
"575 328 OFFCURVE",
"553 357 OFFCURVE",
"522 357 CURVE SMOOTH",
"487 357 OFFCURVE",
"466 339 OFFCURVE",
"461 303 CURVE SMOOTH"
);
}
);
width = 1124;
}
);
note = divide;
unicode = 00F7;
},
{
glyphname = oslash;
lastChange = "2017-05-19 14:54:55 +0000";
layers = (
{
layerId = "3D6436C0-838D-49FE-97BE-67FAF848B66F";
paths = (
{
closed = 1;
nodes = (
"543 -20 OFFCURVE",
"631 6 OFFCURVE",
"707 57 CURVE SMOOTH",
"858 160 OFFCURVE",
"957 333 OFFCURVE",
"990 520 CURVE SMOOTH",
"998 562 LINE",
"1023 725 OFFCURVE",
"1003 898 OFFCURVE",
"879 1015 CURVE",
"1011 1217 LINE",
"947 1218 LINE",
"833 1047 LINE",
"770 1084 OFFCURVE",
"701 1102 OFFCURVE",
"625 1102 CURVE SMOOTH",
"524 1102 OFFCURVE",
"436 1076 OFFCURVE",
"359 1023 CURVE SMOOTH",
"206 918 OFFCURVE",
"107 740 OFFCURVE",
"76 556 CURVE SMOOTH",
"70 520 LINE SMOOTH",
"43 353 OFFCURVE",
"66 174 OFFCURVE",
"201 57 CURVE",
"69 -143 LINE",
"134 -144 LINE",
"248 27 LINE",
"309 -4 OFFCURVE",
"374 -20 OFFCURVE",
"443 -20 CURVE SMOOTH"
);
},
{
closed = 1;
nodes = (
"147 642 OFFCURVE",
"177 719 OFFCURVE",
"221 794 CURVE SMOOTH",
"309 942 OFFCURVE",
"449 1048 OFFCURVE",
"626 1048 CURVE SMOOTH",
"693 1048 OFFCURVE",
"753 1031 OFFCURVE",
"806 997 CURVE",
"228 108 LINE",
"116 215 OFFCURVE",
"99 373 OFFCURVE",
"124 520 CURVE SMOOTH",
"132 562 LINE SMOOTH"
);
},
{
closed = 1;
nodes = (
"921 439 OFFCURVE",
"891 362 OFFCURVE",
"847 288 CURVE SMOOTH",
"759 140 OFFCURVE",
"621 34 OFFCURVE",
"442 34 CURVE SMOOTH",
"381 34 OFFCURVE",
"325 48 OFFCURVE",
"274 76 CURVE",
"850 963 LINE",
"950 855 OFFCURVE",
"967 703 OFFCURVE",
"944 562 CURVE SMOOTH",
"936 520 LINE SMOOTH"
);
}
);
width = 1087;
}
);
note = oslash;
unicode = 00F8;
},
{
glyphname = thorn;
lastChange = "2017-05-19 14:54:55 +0000";
layers = (
{
layerId = "3D6436C0-838D-49FE-97BE-67FAF848B66F";
paths = (
{
closed = 1;
nodes = (
"566 -19 OFFCURVE",
"644 6 OFFCURVE",
"709 57 CURVE SMOOTH",
"834 154 OFFCURVE",
"918 319 OFFCURVE",
"962 552 CURVE SMOOTH",
"975 631 OFFCURVE",
"976 713 OFFCURVE",
"966 798 CURVE SMOOTH",
"946 969 OFFCURVE",
"857 1102 OFFCURVE",
"656 1102 CURVE SMOOTH",
"492 1102 OFFCURVE",
"359 1017 OFFCURVE",
"264 889 CURVE",
"380 1536 LINE",
"326 1536 LINE",
"-11 -416 LINE",
"43 -416 LINE",
"146 169 LINE",
"206 40 OFFCURVE",
"334 -20 OFFCURVE",
"473 -20 CURVE SMOOTH"
);
},
{
closed = 1;
nodes = (
"746 1048 OFFCURVE",
"811 1021 OFFCURVE",
"850 966 CURVE SMOOTH",
"928 857 OFFCURVE",
"930 687 OFFCURVE",
"907 552 CURVE SMOOTH",
"889 457 OFFCURVE",
"863 371 OFFCURVE",
"828 296 CURVE SMOOTH",
"758 144 OFFCURVE",
"646 35 OFFCURVE",
"473 34 CURVE SMOOTH",
"317 34 OFFCURVE",
"193 113 OFFCURVE",
"160 269 CURVE",
"250 775 LINE",
"306 939 OFFCURVE",
"492 1048 OFFCURVE",
"657 1048 CURVE SMOOTH"
);
}
);
width = 1087;
}
);
note = thorn;
rightKerningGroup = b;
unicode = 00FE;
},
{
glyphname = dcroat;
lastChange = "2017-05-19 14:54:55 +0000";
layers = (
{
layerId = "3D6436C0-838D-49FE-97BE-67FAF848B66F";
paths = (
{
closed = 1;
nodes = (
"1041 1281 LINE",
"1198 1281 LINE",
"1205 1335 LINE",
"1051 1335 LINE",
"1085 1536 LINE",
"1031 1536 LINE",
"996 1335 LINE",
"634 1335 LINE",
"627 1281 LINE",
"988 1281 LINE",
"917 883 LINE",
"866 1026 OFFCURVE",
"747 1102 OFFCURVE",
"596 1102 CURVE SMOOTH",
"497 1102 OFFCURVE",
"414 1074 OFFCURVE",
"347 1018 CURVE SMOOTH",
"214 905 OFFCURVE",
"140 723 OFFCURVE",
"109 552 CURVE",
"106 531 LINE SMOOTH",
"93 454 OFFCURVE",
"92 372 OFFCURVE",
"103 287 CURVE SMOOTH",
"123 116 OFFCURVE",
"211 -20 OFFCURVE",
"410 -20 CURVE SMOOTH",
"566 -20 OFFCURVE",
"704 53 OFFCURVE",
"800 174 CURVE",
"766 0 LINE",
"820 0 LINE"
);
},
{
closed = 1;
nodes = (
"142 477 OFFCURVE",
"171 632 OFFCURVE",
"238 781 CURVE SMOOTH",
"306 932 OFFCURVE",
"420 1048 OFFCURVE",
"596 1048 CURVE SMOOTH",
"769 1048 OFFCURVE",
"876 942 OFFCURVE",
"901 775 CURVE",
"811 269 LINE",
"724 124 OFFCURVE",
"581 34 OFFCURVE",
"408 34 CURVE SMOOTH",
"229 35 OFFCURVE",
"161 161 OFFCURVE",
"152 316 CURVE SMOOTH"
);
}
);
width = 1087;
}
);
note = dcroat;
unicode = 0111;
},
{
glyphname = Hbar;
lastChange = "2017-05-19 14:54:55 +0000";
layers = (
{
layerId = "3D6436C0-838D-49FE-97BE-67FAF848B66F";
paths = (
{
closed = 1;
nodes = (
"1235 1028 LINE",
"1387 1028 LINE",
"1394 1081 LINE",
"1245 1081 LINE",
"1309 1456 LINE",
"1255 1456 LINE",
"1190 1081 LINE",
"290 1081 LINE",
"354 1456 LINE",
"300 1456 LINE",
"236 1081 LINE",
"100 1081 LINE",
"93 1028 LINE",
"226 1028 LINE",
"50 0 LINE",
"103 0 LINE",
"228 722 LINE",
"1128 722 LINE",
"1004 0 LINE",
"1058 0 LINE"
);
},
{
closed = 1;
nodes = (
"1182 1028 LINE",
"1137 776 LINE",
"237 776 LINE",
"281 1028 LINE"
);
}
);
width = 1347;
}
);
note = Hbar;
unicode = 0126;
},
{
glyphname = dotlessi;
lastChange = "2017-05-19 14:54:55 +0000";
layers = (
{
layerId = "3D6436C0-838D-49FE-97BE-67FAF848B66F";
paths = (
{
closed = 1;
nodes = (
"71 0 LINE",
"125 0 LINE",
"311 1082 LINE",
"257 1082 LINE"
);
}
);
width = 394;
}
);
note = dotlessi;
unicode = 0131;
},
{
glyphname = kgreenlandic;
lastChange = "2017-05-19 14:54:55 +0000";
layers = (
{
layerId = "3D6436C0-838D-49FE-97BE-67FAF848B66F";
paths = (
{
closed = 1;
nodes = (
"432 550 LINE",
"1017 1080 LINE",
"946 1081 LINE",
"385 582 LINE",
"217 582 LINE",
"303 1082 LINE",
"248 1082 LINE",
"62 0 LINE",
"117 0 LINE",
"208 529 LINE",
"373 529 LINE",
"825 0 LINE",
"892 0 LINE"
);
}
);
width = 1051;
}
);
note = kgreenlandic;
unicode = 0138;
},
{
glyphname = Lslash;
lastChange = "2017-05-19 14:54:55 +0000";
layers = (
{
layerId = "3D6436C0-838D-49FE-97BE-67FAF848B66F";
paths = (
{
closed = 1;
nodes = (
"263 732 LINE",
"623 845 LINE",
"631 901 LINE",
"273 793 LINE",
"387 1456 LINE",
"332 1456 LINE",
"215 775 LINE",
"26 715 LINE",
"18 659 LINE",
"204 714 LINE",
"80 0 LINE",
"861 0 LINE",
"869 54 LINE",
"145 54 LINE"
);
}
);
width = 1029;
}
);
note = Lslash;
unicode = 0141;
},
{
glyphname = lslash;
lastChange = "2017-05-19 14:54:55 +0000";
layers = (
{
layerId = "3D6436C0-838D-49FE-97BE-67FAF848B66F";
paths = (
{
closed = 1;
nodes = (
"322 853 LINE",
"440 1536 LINE",
"386 1536 LINE",
"264 830 LINE",
"40 743 LINE",
"32 685 LINE",
"253 767 LINE",
"121 0 LINE",
"175 0 LINE",
"311 789 LINE",
"521 871 LINE",
"529 929 LINE"
);
}
);
width = 490;
}
);
note = lslash;
unicode = 0142;
},
{
glyphname = Eng;
lastChange = "2017-05-19 14:54:55 +0000";
layers = (
{
layerId = "3D6436C0-838D-49FE-97BE-67FAF848B66F";
paths = (
{
closed = 1;
nodes = (
"381 1366 LINE",
"1057 0 LINE",
"1041 -84 LINE SMOOTH",
"1013 -233 OFFCURVE",
"927 -383 OFFCURVE",
"762 -383 CURVE SMOOTH",
"733 -383 OFFCURVE",
"703 -377 OFFCURVE",
"670 -366 CURVE",
"651 -416 LINE",
"693 -430 OFFCURVE",
"730 -437 OFFCURVE",
"761 -437 CURVE SMOOTH",
"961 -437 OFFCURVE",
"1063 -266 OFFCURVE",
"1095 -89 CURVE SMOOTH",
"1361 1456 LINE",
"1307 1456 LINE",
"1071 92 LINE",
"392 1456 LINE",
"340 1456 LINE",
"90 0 LINE",
"144 0 LINE"
);
}
);
width = 1407;
}
);
note = Eng;
unicode = 014A;
},
{
glyphname = eng;
lastChange = "2017-05-19 14:54:55 +0000";
layers = (
{
layerId = "3D6436C0-838D-49FE-97BE-67FAF848B66F";
paths = (
{
closed = 1;
nodes = (
"674 -436 OFFCURVE",
"776 -268 OFFCURVE",
"808 -89 CURVE SMOOTH",
"932 631 LINE SMOOTH",
"945 706 OFFCURVE",
"947 781 OFFCURVE",
"940 855 CURVE SMOOTH",
"924 998 OFFCURVE",
"848 1102 OFFCURVE",
"664 1102 CURVE SMOOTH",
"487 1102 OFFCURVE",
"350 1006 OFFCURVE",
"259 858 CURVE",
"296 1082 LINE",
"248 1082 LINE",
"61 0 LINE",
"115 0 LINE",
"233 681 LINE",
"259 782 OFFCURVE",
"311 868 OFFCURVE",
"389 940 CURVE SMOOTH",
"545 1083 OFFCURVE",
"767 1069 OFFCURVE",
"834 984 CURVE SMOOTH",
"901 899 OFFCURVE",
"900 762 OFFCURVE",
"879 639 CURVE SMOOTH",
"754 -83 LINE SMOOTH",
"729 -228 OFFCURVE",
"642 -384 OFFCURVE",
"474 -384 CURVE SMOOTH",
"441 -384 OFFCURVE",
"404 -378 OFFCURVE",
"363 -366 CURVE",
"343 -416 LINE",
"394 -430 OFFCURVE",
"438 -437 OFFCURVE",
"474 -437 CURVE SMOOTH"
);
}
);
width = 1087;
}
);
note = eng;
unicode = 014B;
},
{
glyphname = OE;
lastChange = "2017-05-19 14:54:55 +0000";
layers = (
{
layerId = "3D6436C0-838D-49FE-97BE-67FAF848B66F";
paths = (
{
closed = 1;
nodes = (
"962 722 LINE",
"1670 722 LINE",
"1678 776 LINE",
"970 776 LINE",
"1079 1402 LINE",
"1887 1402 LINE",
"1894 1456 LINE",
"1075 1456 LINE",
"836 1475 LINE",
"756 1476 LINE SMOOTH",
"645 1475 OFFCURVE",
"548 1446 OFFCURVE",
"465 1389 CURVE SMOOTH",
"298 1275 OFFCURVE",
"191 1083 OFFCURVE",
"155 880 CURVE SMOOTH",
"103 576 LINE SMOOTH",
"88 479 OFFCURVE",
"91 386 OFFCURVE",
"114 295 CURVE SMOOTH",
"159 113 OFFCURVE",
"288 -18 OFFCURVE",
"509 -21 CURVE SMOOTH",
"581 -20 LINE",
"833 0 LINE",
"1644 0 LINE",
"1651 54 LINE",
"845 54 LINE"
);
},
{
closed = 1;
nodes = (
"247 1074 OFFCURVE",
"346 1245 OFFCURVE",
"495 1345 CURVE SMOOTH",
"644 1445 OFFCURVE",
"868 1429 OFFCURVE",
"1029 1410 CURVE",
"788 46 LINE",
"593 26 OFFCURVE",
"385 8 OFFCURVE",
"273 117 CURVE SMOOTH",
"161 226 OFFCURVE",
"128 403 OFFCURVE",
"157 576 CURVE SMOOTH",
"211 887 LINE SMOOTH"
);
}
);
width = 1817;
}
);
leftKerningGroup = C;
note = OE;
unicode = 0152;
},
{
glyphname = oe;
lastChange = "2017-05-19 14:54:55 +0000";
layers = (
{
layerId = "3D6436C0-838D-49FE-97BE-67FAF848B66F";
paths = (
{
closed = 1;
nodes = (
"1556 76 OFFCURVE",
"1437 33 OFFCURVE",
"1298 34 CURVE SMOOTH",
"1215 35 OFFCURVE",
"1150 59 OFFCURVE",
"1101 108 CURVE SMOOTH",
"1004 204 OFFCURVE",
"972 359 OFFCURVE",
"997 500 CURVE SMOOTH",
"1010 564 LINE",
"1013 578 LINE",
"1796 577 LINE",
"1811 660 LINE SMOOTH",
"1847 891 OFFCURVE",
"1733 1102 OFFCURVE",
"1480 1102 CURVE SMOOTH",
"1261 1102 OFFCURVE",
"1096 933 OFFCURVE",
"1007 748 CURVE",
"987 955 OFFCURVE",
"842 1102 OFFCURVE",
"630 1102 CURVE SMOOTH",
"529 1102 OFFCURVE",
"441 1076 OFFCURVE",
"364 1023 CURVE SMOOTH",
"211 918 OFFCURVE",
"112 740 OFFCURVE",
"81 556 CURVE SMOOTH",
"75 520 LINE SMOOTH",
"61 433 OFFCURVE",
"65 348 OFFCURVE",
"87 265 CURVE SMOOTH",
"130 100 OFFCURVE",
"247 -20 OFFCURVE",
"448 -20 CURVE SMOOTH",
"675 -20 OFFCURVE",
"846 136 OFFCURVE",
"941 331 CURVE",
"952 236 OFFCURVE",
"989 154 OFFCURVE",
"1053 85 CURVE SMOOTH",
"1180 -54 OFFCURVE",
"1472 -70 OFFCURVE",
"1679 121 CURVE",
"1655 165 LINE"
);
},
{
closed = 1;
nodes = (
"151 642 OFFCURVE",
"181 719 OFFCURVE",
"226 794 CURVE SMOOTH",
"314 942 OFFCURVE",
"454 1048 OFFCURVE",
"631 1048 CURVE SMOOTH",
"720 1048 OFFCURVE",
"789 1023 OFFCURVE",
"840 974 CURVE SMOOTH",
"941 874 OFFCURVE",
"973 713 OFFCURVE",
"948 562 CURVE SMOOTH",
"941 520 LINE SMOOTH",
"926 439 OFFCURVE",
"896 362 OFFCURVE",
"852 288 CURVE SMOOTH",
"764 140 OFFCURVE",
"626 34 OFFCURVE",
"447 34 CURVE SMOOTH",
"358 34 OFFCURVE",
"288 59 OFFCURVE",
"237 108 CURVE SMOOTH",
"135 207 OFFCURVE",
"104 368 OFFCURVE",
"129 520 CURVE SMOOTH",
"136 562 LINE SMOOTH"
);
},
{
closed = 1;
nodes = (
"1696 1048 OFFCURVE",
"1792 859 OFFCURVE",
"1756 664 CURVE SMOOTH",
"1749 631 LINE",
"1020 631 LINE",
"1088 835 OFFCURVE",
"1242 1048 OFFCURVE",
"1481 1048 CURVE SMOOTH"
);
}
);
width = 1866;
}
);
leftKerningGroup = c;
note = oe;
unicode = 0153;
},
{
glyphname = longs;
lastChange = "2017-05-19 14:54:55 +0000";
layers = (
{
layerId = "3D6436C0-838D-49FE-97BE-67FAF848B66F";
paths = (
{
closed = 1;
nodes = (
"361 1376 OFFCURVE",
"451 1500 OFFCURVE",
"604 1503 CURVE SMOOTH",
"640 1504 OFFCURVE",
"677 1499 OFFCURVE",
"715 1489 CURVE",
"730 1539 LINE",
"687 1551 OFFCURVE",
"645 1557 OFFCURVE",
"604 1557 CURVE SMOOTH",
"415 1554 OFFCURVE",
"309 1409 OFFCURVE",
"278 1236 CURVE SMOOTH",
"65 0 LINE",
"119 0 LINE",
"333 1236 LINE SMOOTH"
);
}
);
width = 409;
}
);
note = longs;
unicode = 017F;
},
{
glyphname = uni0181;
lastChange = "2017-05-19 14:54:55 +0000";
layers = (
{
layerId = "3D6436C0-838D-49FE-97BE-67FAF848B66F";
paths = (
{
closed = 1;
nodes = (
"1248 573 OFFCURVE",
"1140 722 OFFCURVE",
"969 753 CURVE",
"1052 772 OFFCURVE",
"1121 810 OFFCURVE",
"1174 869 CURVE SMOOTH",
"1281 985 OFFCURVE",
"1315 1190 OFFCURVE",
"1244 1299 CURVE SMOOTH",
"1172 1407 OFFCURVE",
"1029 1455 OFFCURVE",
"872 1456 CURVE SMOOTH",
"509 1456 LINE SMOOTH",
"321 1456 OFFCURVE",
"149 1368 OFFCURVE",
"118 1171 CURVE SMOOTH",
"115 1152 OFFCURVE",
"114 1134 OFFCURVE",
"115 1115 CURVE",
"120 1059 LINE",
"172 1071 LINE",
"167 1105 OFFCURVE",
"167 1136 OFFCURVE",
"171 1165 CURVE SMOOTH",
"182 1234 OFFCURVE",
"316 1388 OFFCURVE",
"412 1424 CURVE SMOOTH",
"447 1437 OFFCURVE",
"475 1429 OFFCURVE",
"498 1402 CURVE",
"252 0 LINE",
"712 0 LINE SMOOTH",
"963 0 OFFCURVE",
"1181 145 OFFCURVE",
"1221 401 CURVE SMOOTH"
);
},
{
closed = 1;
nodes = (
"941 1401 OFFCURVE",
"1003 1391 OFFCURVE",
"1062 1371 CURVE SMOOTH",
"1178 1331 OFFCURVE",
"1250 1243 OFFCURVE",
"1221 1087 CURVE SMOOTH",
"1178 859 OFFCURVE",
"983 773 OFFCURVE",
"764 773 CURVE SMOOTH",
"440 773 LINE",
"550 1402 LINE",
"875 1402 LINE SMOOTH"
);
},
{
closed = 1;
nodes = (
"1126 175 OFFCURVE",
"933 54 OFFCURVE",
"710 54 CURVE SMOOTH",
"316 54 LINE",
"431 719 LINE",
"853 719 LINE SMOOTH",
"1041 715 OFFCURVE",
"1204 604 OFFCURVE",
"1167 399 CURVE SMOOTH"
);
}
);
width = 1361;
}
);
note = uni0181;
unicode = 0181;
},
{
glyphname = uni0183;
lastChange = "2017-05-19 14:54:55 +0000";
layers = (
{
layerId = "3D6436C0-838D-49FE-97BE-67FAF848B66F";
paths = (
{
closed = 1;
nodes = (
"146 171 LINE",
"176 106 OFFCURVE",
"221 58 OFFCURVE",
"280 27 CURVE SMOOTH",
"398 -35 OFFCURVE",
"580 -44 OFFCURVE",
"709 57 CURVE SMOOTH",
"834 154 OFFCURVE",
"918 319 OFFCURVE",
"962 552 CURVE SMOOTH",
"975 631 OFFCURVE",
"976 714 OFFCURVE",
"966 799 CURVE SMOOTH",
"946 968 OFFCURVE",
"857 1102 OFFCURVE",
"656 1102 CURVE SMOOTH",
"491 1102 OFFCURVE",
"357 1015 OFFCURVE",
"264 886 CURVE",
"372 1482 LINE",
"1025 1482 LINE",
"1032 1536 LINE",
"327 1536 LINE",
"61 0 LINE",
"115 0 LINE"
);
},
{
closed = 1;
nodes = (
"836 1048 OFFCURVE",
"905 921 OFFCURVE",
"916 768 CURVE SMOOTH",
"926 607 OFFCURVE",
"897 450 OFFCURVE",
"828 298 CURVE SMOOTH",
"760 147 OFFCURVE",
"648 35 OFFCURVE",
"473 34 CURVE SMOOTH",
"316 34 OFFCURVE",
"192 115 OFFCURVE",
"160 274 CURVE",
"249 770 LINE",
"305 935 OFFCURVE",
"489 1048 OFFCURVE",
"657 1048 CURVE SMOOTH"
);
}
);
width = 1087;
}
);
note = uni0183;
rightKerningGroup = b;
unicode = 0183;
},
{
glyphname = uni0184;
lastChange = "2017-05-19 14:54:55 +0000";
layers = (
{
layerId = "3D6436C0-838D-49FE-97BE-67FAF848B66F";
paths = (
{
closed = 1;
nodes = (
"1073 655 OFFCURVE",
"875 785 OFFCURVE",
"635 788 CURVE SMOOTH",
"283 788 LINE",
"397 1456 LINE",
"343 1455 LINE",
"195 1231 LINE",
"189 1191 LINE",
"261 972 LINE",
"92 0 LINE",
"502 0 LINE SMOOTH",
"754 0 OFFCURVE",
"987 130 OFFCURVE",
"1030 394 CURVE SMOOTH"
);
},
{
closed = 1;
nodes = (
"638 734 LINE SMOOTH",
"839 731 OFFCURVE",
"1018 623 OFFCURVE",
"975 396 CURVE SMOOTH",
"932 165 OFFCURVE",
"721 54 OFFCURVE",
"497 54 CURVE SMOOTH",
"156 54 LINE",
"274 734 LINE"
);
}
);
width = 1166;
}
);
note = uni0184;
unicode = 0184;
},
{
glyphname = uni0185;
lastChange = "2017-05-19 14:54:55 +0000";
layers = (
{
layerId = "3D6436C0-838D-49FE-97BE-67FAF848B66F";
paths = (
{
closed = 1;
nodes = (
"578 -19 OFFCURVE",
"656 6 OFFCURVE",
"721 57 CURVE SMOOTH",
"846 154 OFFCURVE",
"930 319 OFFCURVE",
"974 552 CURVE",
"986 631 OFFCURVE",
"987 714 OFFCURVE",
"977 799 CURVE SMOOTH",
"957 968 OFFCURVE",
"868 1102 OFFCURVE",
"667 1102 CURVE SMOOTH",
"503 1102 OFFCURVE",
"369 1015 OFFCURVE",
"276 886 CURVE",
"391 1536 LINE",
"336 1535 LINE",
"189 1311 LINE",
"182 1271 LINE",
"254 1052 LINE",
"73 0 LINE",
"127 0 LINE",
"158 171 LINE",
"217 40 OFFCURVE",
"345 -20 OFFCURVE",
"485 -20 CURVE SMOOTH"
);
},
{
closed = 1;
nodes = (
"758 1048 OFFCURVE",
"822 1021 OFFCURVE",
"861 966 CURVE SMOOTH",
"938 856 OFFCURVE",
"940 685 OFFCURVE",
"917 552 CURVE SMOOTH",
"914 531 LINE",
"900 456 OFFCURVE",
"876 381 OFFCURVE",
"843 305 CURVE SMOOTH",
"775 152 OFFCURVE",
"661 35 OFFCURVE",
"485 34 CURVE SMOOTH",
"326 34 OFFCURVE",
"204 115 OFFCURVE",
"172 274 CURVE",
"260 770 LINE",
"317 935 OFFCURVE",
"501 1048 OFFCURVE",
"669 1048 CURVE SMOOTH"
);
}
);
width = 1079;
}
);
note = uni0185;
rightKerningGroup = b;
unicode = 0185;
},
{
glyphname = uni0186;
lastChange = "2017-05-19 14:54:55 +0000";
layers = (
{
layerId = "3D6436C0-838D-49FE-97BE-67FAF848B66F";
paths = (
{
closed = 1;
nodes = (
"98 304 OFFCURVE",
"132 192 OFFCURVE",
"207 107 CURVE SMOOTH",
"357 -63 OFFCURVE",
"667 -50 OFFCURVE",
"839 75 CURVE SMOOTH",
"1010 200 OFFCURVE",
"1115 410 OFFCURVE",
"1152 619 CURVE SMOOTH",
"1190 837 LINE SMOOTH",
"1206 936 OFFCURVE",
"1204 1034 OFFCURVE",
"1184 1133 CURVE SMOOTH",
"1144 1329 OFFCURVE",
"1019 1475 OFFCURVE",
"783 1476 CURVE SMOOTH",
"486 1477 OFFCURVE",
"281 1290 OFFCURVE",
"204 1011 CURVE",
"258 1011 LINE",
"297 1136 OFFCURVE",
"361 1236 OFFCURVE",
"449 1311 CURVE SMOOTH",
"625 1460 OFFCURVE",
"917 1451 OFFCURVE",
"1029 1330 CURVE SMOOTH",
"1140 1209 OFFCURVE",
"1165 1013 OFFCURVE",
"1136 837 CURVE SMOOTH",
"1096 611 LINE SMOOTH",
"1078 517 OFFCURVE",
"1045 426 OFFCURVE",
"997 338 CURVE SMOOTH",
"901 162 OFFCURVE",
"745 35 OFFCURVE",
"534 34 CURVE SMOOTH",
"277 34 OFFCURVE",
"146 195 OFFCURVE",
"158 444 CURVE",
"105 444 LINE"
);
}
);
width = 1287;
}
);
note = uni0186;
rightKerningGroup = D;
unicode = 0186;
},
{
glyphname = uni0187;
lastChange = "2017-05-19 14:54:55 +0000";
layers = (
{
layerId = "3D6436C0-838D-49FE-97BE-67FAF848B66F";
paths = (
{
closed = 1;
nodes = (
"1526 1487 OFFCURVE",
"1556 1481 OFFCURVE",
"1589 1470 CURVE",
"1609 1520 LINE",
"1567 1534 OFFCURVE",
"1530 1541 OFFCURVE",
"1499 1541 CURVE SMOOTH",
"1311 1541 OFFCURVE",
"1242 1377 OFFCURVE",
"1206 1218 CURVE",
"1178 1310 OFFCURVE",
"1126 1376 OFFCURVE",
"1050 1416 CURVE SMOOTH",
"897 1496 OFFCURVE",
"665 1506 OFFCURVE",
"494 1381 CURVE SMOOTH",
"322 1256 OFFCURVE",
"217 1046 OFFCURVE",
"180 837 CURVE SMOOTH",
"143 619 LINE SMOOTH",
"126 520 OFFCURVE",
"128 422 OFFCURVE",
"148 324 CURVE SMOOTH",
"188 127 OFFCURVE",
"313 -19 OFFCURVE",
"549 -20 CURVE SMOOTH",
"846 -21 OFFCURVE",
"1051 166 OFFCURVE",
"1128 445 CURVE",
"1074 445 LINE",
"1035 320 OFFCURVE",
"972 220 OFFCURVE",
"884 145 CURVE SMOOTH",
"707 -4 OFFCURVE",
"415 5 OFFCURVE",
"304 126 CURVE SMOOTH",
"192 247 OFFCURVE",
"167 443 OFFCURVE",
"196 619 CURVE SMOOTH",
"236 845 LINE SMOOTH",
"254 939 OFFCURVE",
"287 1030 OFFCURVE",
"336 1118 CURVE SMOOTH",
"432 1294 OFFCURVE",
"587 1421 OFFCURVE",
"799 1422 CURVE SMOOTH",
"1055 1422 OFFCURVE",
"1186 1261 OFFCURVE",
"1174 1012 CURVE",
"1228 1012 LINE",
"1258 1188 LINE SMOOTH",
"1282 1325 OFFCURVE",
"1334 1487 OFFCURVE",
"1498 1487 CURVE SMOOTH"
);
}
);
width = 1361;
}
);
leftKerningGroup = C;
note = uni0187;
unicode = 0187;
},
{
glyphname = uni0188;
lastChange = "2017-05-19 14:54:55 +0000";
layers = (
{
layerId = "3D6436C0-838D-49FE-97BE-67FAF848B66F";
paths = (
{
closed = 1;
nodes = (
"1212 1080 OFFCURVE",
"1242 1074 OFFCURVE",
"1275 1063 CURVE",
"1295 1113 LINE",
"1253 1127 OFFCURVE",
"1216 1134 OFFCURVE",
"1185 1134 CURVE SMOOTH",
"1038 1133 OFFCURVE",
"962 1033 OFFCURVE",
"915 906 CURVE",
"867 1038 OFFCURVE",
"739 1102 OFFCURVE",
"602 1102 CURVE SMOOTH",
"502 1102 OFFCURVE",
"417 1076 OFFCURVE",
"346 1023 CURVE SMOOTH",
"207 919 OFFCURVE",
"118 756 OFFCURVE",
"81 533 CURVE SMOOTH",
"79 520 LINE SMOOTH",
"66 436 OFFCURVE",
"67 353 OFFCURVE",
"83 270 CURVE SMOOTH",
"114 104 OFFCURVE",
"217 -20 OFFCURVE",
"420 -20 CURVE SMOOTH",
"635 -20 OFFCURVE",
"813 119 OFFCURVE",
"864 327 CURVE",
"810 327 LINE",
"784 238 OFFCURVE",
"736 167 OFFCURVE",
"666 114 CURVE SMOOTH",
"525 8 OFFCURVE",
"305 10 OFFCURVE",
"214 110 CURVE SMOOTH",
"123 210 OFFCURVE",
"108 371 OFFCURVE",
"133 520 CURVE SMOOTH",
"140 562 LINE SMOOTH",
"155 641 OFFCURVE",
"182 718 OFFCURVE",
"220 793 CURVE SMOOTH",
"296 941 OFFCURVE",
"422 1048 OFFCURVE",
"603 1048 CURVE SMOOTH",
"795 1048 OFFCURVE",
"900 909 OFFCURVE",
"881 725 CURVE",
"934 725 LINE",
"945 786 LINE SMOOTH",
"970 926 OFFCURVE",
"1023 1080 OFFCURVE",
"1184 1080 CURVE SMOOTH"
);
}
);
width = 1245;
}
);
leftKerningGroup = c;
note = uni0188;
unicode = 0188;
},
{
glyphname = uni018A;
lastChange = "2017-05-19 14:54:55 +0000";
layers = (
{
layerId = "3D6436C0-838D-49FE-97BE-67FAF848B66F";
paths = (
{
closed = 1;
nodes = (
"115 1152 OFFCURVE",
"114 1134 OFFCURVE",
"115 1115 CURVE",
"120 1059 LINE",
"172 1071 LINE",
"167 1105 OFFCURVE",
"167 1136 OFFCURVE",
"171 1165 CURVE SMOOTH",
"182 1234 OFFCURVE",
"316 1388 OFFCURVE",
"412 1424 CURVE SMOOTH",
"447 1437 OFFCURVE",
"475 1429 OFFCURVE",
"498 1402 CURVE",
"252 0 LINE",
"651 0 LINE SMOOTH",
"992 3 OFFCURVE",
"1277 273 OFFCURVE",
"1342 657 CURVE SMOOTH",
"1369 817 LINE SMOOTH",
"1387 927 OFFCURVE",
"1380 1030 OFFCURVE",
"1349 1127 CURVE SMOOTH",
"1285 1320 OFFCURVE",
"1130 1453 OFFCURVE",
"891 1456 CURVE SMOOTH",
"509 1456 LINE SMOOTH",
"321 1456 OFFCURVE",
"149 1368 OFFCURVE",
"118 1171 CURVE SMOOTH"
);
},
{
closed = 1;
nodes = (
"1002 1400 OFFCURVE",
"1089 1371 OFFCURVE",
"1158 1316 CURVE SMOOTH",
"1294 1205 OFFCURVE",
"1349 1017 OFFCURVE",
"1316 820 CURVE SMOOTH",
"1287 656 LINE SMOOTH",
"1224 303 OFFCURVE",
"955 54 OFFCURVE",
"644 54 CURVE SMOOTH",
"316 54 LINE",
"550 1402 LINE",
"896 1402 LINE SMOOTH"
);
}
);
width = 1471;
}
);
note = uni018A;
rightKerningGroup = D;
unicode = 018A;
},
{
glyphname = uni018B;
lastChange = "2017-05-19 14:54:55 +0000";
layers = (
{
layerId = "3D6436C0-838D-49FE-97BE-67FAF848B66F";
paths = (
{
closed = 1;
nodes = (
"280 1456 LINE",
"272 1402 LINE",
"1055 1402 LINE",
"948 788 LINE",
"594 788 LINE SMOOTH",
"341 788 OFFCURVE",
"108 658 OFFCURVE",
"65 394 CURVE SMOOTH",
"22 133 OFFCURVE",
"220 4 OFFCURVE",
"460 0 CURVE SMOOTH",
"866 0 LINE",
"1119 1456 LINE"
);
},
{
closed = 1;
nodes = (
"250 57 OFFCURVE",
"78 167 OFFCURVE",
"121 396 CURVE SMOOTH",
"164 624 OFFCURVE",
"378 734 OFFCURVE",
"598 734 CURVE SMOOTH",
"939 734 LINE",
"821 54 LINE",
"457 54 LINE SMOOTH"
);
}
);
width = 1163;
}
);
note = uni018B;
rightKerningGroup = H;
unicode = 018B;
},
{
glyphname = uni018C;
lastChange = "2017-05-19 14:54:55 +0000";
layers = (
{
layerId = "3D6436C0-838D-49FE-97BE-67FAF848B66F";
paths = (
{
closed = 1;
nodes = (
"917 883 LINE",
"866 1026 OFFCURVE",
"747 1102 OFFCURVE",
"596 1102 CURVE SMOOTH",
"497 1102 OFFCURVE",
"414 1074 OFFCURVE",
"347 1018 CURVE SMOOTH",
"214 905 OFFCURVE",
"140 723 OFFCURVE",
"109 552 CURVE",
"106 531 LINE SMOOTH",
"93 454 OFFCURVE",
"92 372 OFFCURVE",
"103 287 CURVE SMOOTH",
"123 116 OFFCURVE",
"211 -20 OFFCURVE",
"410 -20 CURVE SMOOTH",
"566 -20 OFFCURVE",
"704 53 OFFCURVE",
"800 174 CURVE",
"766 0 LINE",
"820 0 LINE",
"1086 1536 LINE",
"378 1536 LINE",
"371 1482 LINE",
"1022 1482 LINE"
);
},
{
closed = 1;
nodes = (
"142 477 OFFCURVE",
"171 632 OFFCURVE",
"238 781 CURVE SMOOTH",
"306 932 OFFCURVE",
"420 1048 OFFCURVE",
"596 1048 CURVE SMOOTH",
"769 1048 OFFCURVE",
"876 942 OFFCURVE",
"901 775 CURVE",
"811 269 LINE",
"724 124 OFFCURVE",
"581 34 OFFCURVE",
"408 34 CURVE SMOOTH",
"229 35 OFFCURVE",
"161 161 OFFCURVE",
"152 316 CURVE SMOOTH"
);
}
);
width = 1087;
}
);
note = uni018C;
unicode = 018C;
},
{
glyphname = uni018D;
lastChange = "2017-05-19 14:54:55 +0000";
layers = (
{
layerId = "3D6436C0-838D-49FE-97BE-67FAF848B66F";
paths = (
{
closed = 1;
nodes = (
"603 -258 OFFCURVE",
"531 -200 OFFCURVE",
"456 -145 CURVE SMOOTH",
"381 -90 OFFCURVE",
"314 -25 OFFCURVE",
"257 50 CURVE",
"302 39 OFFCURVE",
"352 33 OFFCURVE",
"407 34 CURVE SMOOTH",
"699 39 OFFCURVE",
"940 247 OFFCURVE",
"993 534 CURVE SMOOTH",
"1001 581 LINE SMOOTH",
"1014 668 OFFCURVE",
"1010 752 OFFCURVE",
"987 832 CURVE SMOOTH",
"941 991 OFFCURVE",
"820 1102 OFFCURVE",
"624 1102 CURVE SMOOTH",
"351 1102 OFFCURVE",
"130 880 OFFCURVE",
"77 563 CURVE SMOOTH",
"73 539 LINE SMOOTH",
"30 261 OFFCURVE",
"141 25 OFFCURVE",
"408 -170 CURVE SMOOTH",
"470 -215 OFFCURVE",
"530 -266 OFFCURVE",
"588 -321 CURVE",
"7 -322 LINE",
"-1 -375 LINE",
"664 -375 LINE",
"672 -321 LINE"
);
},
{
closed = 1;
nodes = (
"885 284 OFFCURVE",
"663 88 OFFCURVE",
"406 88 CURVE SMOOTH",
"353 88 OFFCURVE",
"292 97 OFFCURVE",
"221 114 CURVE",
"122 230 OFFCURVE",
"103 395 OFFCURVE",
"127 539 CURVE SMOOTH",
"132 566 LINE SMOOTH",
"187 850 OFFCURVE",
"386 1048 OFFCURVE",
"625 1048 CURVE SMOOTH",
"712 1048 OFFCURVE",
"781 1025 OFFCURVE",
"833 979 CURVE SMOOTH",
"936 886 OFFCURVE",
"972 733 OFFCURVE",
"947 581 CURVE SMOOTH",
"937 529 LINE SMOOTH"
);
}
);
width = 1087;
}
);
note = uni018D;
unicode = 018D;
},
{
glyphname = uni018E;
lastChange = "2017-05-19 14:54:55 +0000";
layers = (
{
layerId = "3D6436C0-838D-49FE-97BE-67FAF848B66F";
paths = (
{
closed = 1;
nodes = (
"916 786 LINE",
"207 786 LINE",
"200 732 LINE",
"907 732 LINE",
"789 54 LINE",
"-18 54 LINE",
"-26 0 LINE",
"834 0 LINE",
"1087 1456 LINE",
"224 1456 LINE",
"217 1402 LINE",
"1023 1402 LINE"
);
}
);
width = 1131;
}
);
note = uni018E;
rightKerningGroup = H;
unicode = 018E;
},
{
glyphname = uni018F;
lastChange = "2017-05-19 14:54:55 +0000";
layers = (
{
layerId = "3D6436C0-838D-49FE-97BE-67FAF848B66F";
paths = (
{
closed = 1;
nodes = (
"753 -19 OFFCURVE",
"862 15 OFFCURVE",
"955 82 CURVE SMOOTH",
"1142 217 OFFCURVE",
"1260 440 OFFCURVE",
"1300 663 CURVE SMOOTH",
"1329 835 LINE SMOOTH",
"1348 949 OFFCURVE",
"1343 1055 OFFCURVE",
"1314 1152 CURVE SMOOTH",
"1256 1347 OFFCURVE",
"1102 1476 OFFCURVE",
"853 1476 CURVE SMOOTH",
"666 1476 OFFCURVE",
"501 1422 OFFCURVE",
"358 1313 CURVE",
"383 1268 LINE",
"679 1473 OFFCURVE",
"994 1448 OFFCURVE",
"1130 1340 CURVE SMOOTH",
"1266 1232 OFFCURVE",
"1311 1044 OFFCURVE",
"1275 835 CURVE SMOOTH",
"1253 711 LINE",
"170 711 LINE",
"149 588 LINE SMOOTH",
"130 476 OFFCURVE",
"137 374 OFFCURVE",
"170 282 CURVE SMOOTH",
"234 98 OFFCURVE",
"393 -20 OFFCURVE",
"629 -20 CURVE SMOOTH"
);
},
{
closed = 1;
nodes = (
"310 34 OFFCURVE",
"148 285 OFFCURVE",
"203 584 CURVE SMOOTH",
"217 656 LINE",
"1246 656 LINE",
"1223 555 OFFCURVE",
"1186 458 OFFCURVE",
"1133 363 CURVE SMOOTH",
"1027 173 OFFCURVE",
"858 34 OFFCURVE",
"629 34 CURVE SMOOTH"
);
}
);
width = 1408;
}
);
note = uni018F;
rightKerningGroup = D;
unicode = 018F;
},
{
glyphname = uni0190;
lastChange = "2017-05-19 14:54:55 +0000";
layers = (
{
layerId = "3D6436C0-838D-49FE-97BE-67FAF848B66F";
paths = (
{
closed = 1;
nodes = (
"574 771 OFFCURVE",
"507 781 OFFCURVE",
"444 800 CURVE SMOOTH",
"316 838 OFFCURVE",
"235 924 OFFCURVE",
"266 1087 CURVE SMOOTH",
"310 1323 OFFCURVE",
"533 1422 OFFCURVE",
"754 1422 CURVE SMOOTH",
"961 1421 OFFCURVE",
"1136 1298 OFFCURVE",
"1104 1075 CURVE",
"1158 1075 LINE",
"1190 1326 OFFCURVE",
"989 1475 OFFCURVE",
"753 1476 CURVE SMOOTH",
"500 1477 OFFCURVE",
"254 1352 OFFCURVE",
"211 1083 CURVE SMOOTH",
"184 918 OFFCURVE",
"278 798 OFFCURVE",
"431 746 CURVE",
"336 723 OFFCURVE",
"256 682 OFFCURVE",
"191 624 CURVE SMOOTH",
"59 507 OFFCURVE",
"26 278 OFFCURVE",
"106 158 CURVE SMOOTH",
"185 37 OFFCURVE",
"340 -21 OFFCURVE",
"504 -21 CURVE SMOOTH",
"767 -21 OFFCURVE",
"1009 138 OFFCURVE",
"1061 403 CURVE",
"1006 404 LINE",
"980 287 OFFCURVE",
"919 196 OFFCURVE",
"822 131 CURVE SMOOTH",
"629 2 OFFCURVE",
"427 21 OFFCURVE",
"299 69 CURVE SMOOTH",
"171 116 OFFCURVE",
"90 217 OFFCURVE",
"121 382 CURVE SMOOTH",
"169 639 OFFCURVE",
"401 712 OFFCURVE",
"636 715 CURVE SMOOTH",
"811 715 LINE",
"819 771 LINE",
"643 771 LINE SMOOTH"
);
}
);
width = 1289;
}
);
note = uni0190;
unicode = 0190;
},
{
glyphname = uni0191;
lastChange = "2017-05-19 14:54:55 +0000";
layers = (
{
layerId = "3D6436C0-838D-49FE-97BE-67FAF848B66F";
paths = (
{
closed = 1;
nodes = (
"341 1456 LINE",
"74 -83 LINE SMOOTH",
"49 -228 OFFCURVE",
"-38 -383 OFFCURVE",
"-205 -383 CURVE SMOOTH",
"-234 -383 OFFCURVE",
"-264 -377 OFFCURVE",
"-297 -366 CURVE",
"-316 -416 LINE",
"-274 -430 OFFCURVE",
"-237 -437 OFFCURVE",
"-206 -437 CURVE SMOOTH",
"-6 -437 OFFCURVE",
"96 -266 OFFCURVE",
"128 -89 CURVE SMOOTH",
"267 716 LINE",
"991 716 LINE",
"999 772 LINE",
"276 772 LINE",
"386 1402 LINE",
"1209 1402 LINE",
"1216 1456 LINE"
);
}
);
width = 1137;
}
);
note = uni0191;
unicode = 0191;
},
{
glyphname = florin;
lastChange = "2017-05-19 14:54:55 +0000";
layers = (
{
layerId = "3D6436C0-838D-49FE-97BE-67FAF848B66F";
paths = (
{
closed = 1;
nodes = (
"398 1230 LINE SMOOTH",
"422 1375 OFFCURVE",
"511 1500 OFFCURVE",
"666 1503 CURVE SMOOTH",
"701 1504 OFFCURVE",
"738 1499 OFFCURVE",
"777 1489 CURVE",
"792 1540 LINE",
"748 1551 OFFCURVE",
"706 1557 OFFCURVE",
"666 1557 CURVE SMOOTH",
"477 1554 OFFCURVE",
"372 1411 OFFCURVE",
"344 1236 CURVE SMOOTH",
"320 1082 LINE",
"137 1082 LINE",
"130 1027 LINE",
"311 1027 LINE",
"138 -83 LINE SMOOTH",
"115 -228 OFFCURVE",
"32 -383 OFFCURVE",
"-136 -383 CURVE SMOOTH",
"-164 -383 OFFCURVE",
"-195 -377 OFFCURVE",
"-228 -366 CURVE",
"-247 -416 LINE",
"-204 -430 OFFCURVE",
"-167 -437 OFFCURVE",
"-137 -437 CURVE SMOOTH",
"63 -437 OFFCURVE",
"163 -266 OFFCURVE",
"192 -89 CURVE SMOOTH",
"366 1027 LINE",
"644 1027 LINE",
"650 1082 LINE",
"374 1082 LINE"
);
}
);
width = 625;
}
);
note = florin;
unicode = 0192;
},
{
glyphname = uni0193;
lastChange = "2017-05-19 14:54:55 +0000";
layers = (
{
layerId = "3D6436C0-838D-49FE-97BE-67FAF848B66F";
paths = (
{
closed = 1;
nodes = (
"1316 1328 OFFCURVE",
"1368 1487 OFFCURVE",
"1531 1487 CURVE SMOOTH",
"1559 1487 OFFCURVE",
"1589 1481 OFFCURVE",
"1622 1470 CURVE",
"1642 1520 LINE",
"1599 1534 OFFCURVE",
"1562 1541 OFFCURVE",
"1532 1541 CURVE SMOOTH",
"1351 1540 OFFCURVE",
"1280 1390 OFFCURVE",
"1243 1235 CURVE",
"1182 1408 OFFCURVE",
"1010 1476 OFFCURVE",
"837 1476 CURVE SMOOTH",
"722 1476 OFFCURVE",
"620 1446 OFFCURVE",
"533 1387 CURVE SMOOTH",
"357 1268 OFFCURVE",
"243 1069 OFFCURVE",
"206 858 CURVE SMOOTH",
"165 620 LINE SMOOTH",
"148 516 OFFCURVE",
"153 415 OFFCURVE",
"178 318 CURVE SMOOTH",
"228 122 OFFCURVE",
"367 -19 OFFCURVE",
"604 -20 CURVE SMOOTH",
"775 -20 OFFCURVE",
"995 20 OFFCURVE",
"1114 156 CURVE",
"1200 660 LINE",
"713 660 LINE",
"706 605 LINE",
"1136 605 LINE",
"1061 181 LINE",
"1003 126 OFFCURVE",
"932 87 OFFCURVE",
"847 66 CURVE SMOOTH",
"677 23 OFFCURVE",
"471 6 OFFCURVE",
"348 123 CURVE SMOOTH",
"224 240 OFFCURVE",
"187 433 OFFCURVE",
"219 620 CURVE SMOOTH",
"260 855 LINE SMOOTH",
"277 950 OFFCURVE",
"311 1041 OFFCURVE",
"362 1128 CURVE SMOOTH",
"464 1301 OFFCURVE",
"626 1422 OFFCURVE",
"837 1422 CURVE SMOOTH",
"1066 1422 OFFCURVE",
"1215 1294 OFFCURVE",
"1215 1062 CURVE",
"1269 1062 LINE",
"1292 1193 LINE SMOOTH"
);
}
);
width = 1394;
}
);
leftKerningGroup = C;
note = uni0193;
unicode = 0193;
},
{
glyphname = uni0194;
lastChange = "2017-05-19 14:54:55 +0000";
layers = (
{
layerId = "3D6436C0-838D-49FE-97BE-67FAF848B66F";
paths = (
{
closed = 1;
nodes = (
"597 -138 OFFCURVE",
"596 -99 OFFCURVE",
"589 -59 CURVE",
"540 153 LINE",
"1303 1455 LINE",
"1242 1455 LINE",
"523 218 LINE",
"237 1457 LINE",
"179 1457 LINE",
"491 156 LINE",
"387 -20 LINE SMOOTH",
"358 -72 OFFCURVE",
"339 -124 OFFCURVE",
"332 -176 CURVE SMOOTH",
"320 -252 OFFCURVE",
"343 -337 OFFCURVE",
"435 -337 CURVE SMOOTH",
"524 -336 OFFCURVE",
"577 -257 OFFCURVE",
"590 -176 CURVE SMOOTH"
);
},
{
closed = 1;
nodes = (
"387 -141 OFFCURVE",
"399 -106 OFFCURVE",
"416 -71 CURVE SMOOTH",
"433 -37 OFFCURVE",
"464 18 OFFCURVE",
"509 95 CURVE",
"538 -32 OFFCURVE",
"549 -96 OFFCURVE",
"538 -160 CURVE SMOOTH",
"527 -225 OFFCURVE",
"497 -283 OFFCURVE",
"436 -282 CURVE SMOOTH",
"376 -282 OFFCURVE",
"373 -223 OFFCURVE",
"381 -176 CURVE SMOOTH"
);
}
);
width = 1186;
}
);
note = uni0194;
unicode = 0194;
},
{
glyphname = uni0195;
lastChange = "2017-05-19 14:54:55 +0000";
layers = (
{
layerId = "3D6436C0-838D-49FE-97BE-67FAF848B66F";
paths = (
{
closed = 1;
nodes = (
"493 1101 OFFCURVE",
"348 978 OFFCURVE",
"256 830 CURVE",
"382 1536 LINE",
"328 1536 LINE",
"63 0 LINE",
"117 0 LINE",
"237 693 LINE",
"264 783 OFFCURVE",
"320 865 OFFCURVE",
"403 938 CURVE SMOOTH",
"570 1085 OFFCURVE",
"766 1066 OFFCURVE",
"835 998 CURVE SMOOTH",
"903 929 OFFCURVE",
"909 811 OFFCURVE",
"888 690 CURVE SMOOTH",
"849 464 LINE SMOOTH",
"838 395 OFFCURVE",
"836 322 OFFCURVE",
"843 246 CURVE SMOOTH",
"856 95 OFFCURVE",
"931 -21 OFFCURVE",
"1114 -21 CURVE SMOOTH",
"1199 -21 OFFCURVE",
"1270 1 OFFCURVE",
"1326 45 CURVE SMOOTH",
"1434 130 OFFCURVE",
"1506 279 OFFCURVE",
"1543 494 CURVE SMOOTH",
"1644 1082 LINE",
"1590 1082 LINE",
"1484 469 LINE SMOOTH",
"1473 404 OFFCURVE",
"1453 337 OFFCURVE",
"1424 270 CURVE SMOOTH",
"1367 134 OFFCURVE",
"1269 33 OFFCURVE",
"1113 33 CURVE SMOOTH",
"1035 33 OFFCURVE",
"980 57 OFFCURVE",
"947 104 CURVE SMOOTH",
"882 199 OFFCURVE",
"883 346 OFFCURVE",
"903 463 CURVE SMOOTH",
"942 692 LINE SMOOTH",
"977 907 OFFCURVE",
"926 1103 OFFCURVE",
"674 1102 CURVE SMOOTH"
);
}
);
width = 1722;
}
);
note = uni0195;
unicode = 0195;
},
{
glyphname = uni0198;
lastChange = "2017-05-19 14:54:55 +0000";
layers = (
{
layerId = "3D6436C0-838D-49FE-97BE-67FAF848B66F";
paths = (
{
closed = 1;
nodes = (
"546 801 LINE",
"968 1264 LINE SMOOTH",
"1036 1339 OFFCURVE",
"1111 1420 OFFCURVE",
"1216 1420 CURVE SMOOTH",
"1284 1420 OFFCURVE",
"1330 1377 OFFCURVE",
"1369 1325 CURVE",
"1410 1361 LINE",
"1353 1436 OFFCURVE",
"1289 1475 OFFCURVE",
"1218 1476 CURVE SMOOTH",
"1174 1477 OFFCURVE",
"1134 1467 OFFCURVE",
"1098 1448 CURVE SMOOTH",
"1061 1429 OFFCURVE",
"1008 1381 OFFCURVE",
"937 1306 CURVE SMOOTH",
"237 542 LINE",
"395 1456 LINE",
"341 1456 LINE",
"90 0 LINE",
"144 0 LINE",
"222 452 LINE",
"508 759 LINE",
"1021 0 LINE",
"1087 0 LINE"
);
}
);
width = 1261;
}
);
note = uni0198;
rightKerningGroup = K;
unicode = 0198;
},
{
glyphname = uni0199;
lastChange = "2017-05-19 14:54:55 +0000";
layers = (
{
layerId = "3D6436C0-838D-49FE-97BE-67FAF848B66F";
paths = (
{
closed = 1;
nodes = (
"594 1503 OFFCURVE",
"624 1497 OFFCURVE",
"657 1486 CURVE",
"676 1536 LINE",
"634 1550 OFFCURVE",
"597 1557 OFFCURVE",
"566 1557 CURVE SMOOTH",
"369 1557 OFFCURVE",
"300 1376 OFFCURVE",
"271 1209 CURVE SMOOTH",
"63 0 LINE",
"117 0 LINE",
"194 446 LINE",
"373 582 LINE",
"376 585 LINE",
"756 0 LINE",
"822 0 LINE",
"416 618 LINE",
"983 1081 LINE",
"900 1081 LINE",
"205 513 LINE",
"325 1203 LINE SMOOTH",
"349 1339 OFFCURVE",
"401 1503 OFFCURVE",
"566 1503 CURVE SMOOTH"
);
}
);
width = 940;
}
);
note = uni0199;
unicode = 0199;
},
{
glyphname = uni019B;
lastChange = "2017-05-19 14:54:55 +0000";
layers = (
{
layerId = "3D6436C0-838D-49FE-97BE-67FAF848B66F";
paths = (
{
closed = 1;
nodes = (
"893 46 OFFCURVE",
"855 38 OFFCURVE",
"822 85 CURVE SMOOTH",
"805 108 OFFCURVE",
"788 170 OFFCURVE",
"770 270 CURVE SMOOTH",
"594 1240 LINE",
"802 1321 LINE",
"810 1379 LINE",
"583 1294 LINE",
"566 1403 OFFCURVE",
"522 1521 OFFCURVE",
"391 1518 CURVE SMOOTH",
"378 1518 OFFCURVE",
"360 1515 OFFCURVE",
"338 1508 CURVE",
"340 1458 LINE",
"390 1464 LINE",
"497 1463 OFFCURVE",
"517 1361 OFFCURVE",
"532 1274 CURVE",
"321 1193 LINE",
"313 1135 LINE",
"544 1220 LINE",
"570 1080 LINE",
"-45 0 LINE",
"15 0 LINE",
"587 1002 LINE",
"590 978 LINE",
"724 211 LINE SMOOTH",
"741 115 OFFCURVE",
"770 -7 OFFCURVE",
"897 -6 CURVE SMOOTH",
"912 -6 OFFCURVE",
"930 -3 OFFCURVE",
"951 4 CURVE",
"950 55 LINE"
);
}
);
width = 1087;
}
);
note = uni019B;
unicode = 019B;
},
{
glyphname = uni019C;
lastChange = "2017-05-19 14:54:55 +0000";
layers = (
{
layerId = "3D6436C0-838D-49FE-97BE-67FAF848B66F";
paths = (
{
closed = 1;
nodes = (
"1811 1456 LINE",
"1756 1456 LINE",
"1562 336 LINE",
"1536 243 OFFCURVE",
"1483 169 OFFCURVE",
"1403 115 CURVE SMOOTH",
"1243 6 OFFCURVE",
"1041 11 OFFCURVE",
"976 105 CURVE SMOOTH",
"911 199 OFFCURVE",
"912 346 OFFCURVE",
"932 463 CURVE SMOOTH",
"1103 1456 LINE",
"1049 1456 LINE",
"876 453 LINE",
"869 393 LINE",
"852 285 OFFCURVE",
"802 198 OFFCURVE",
"717 132 CURVE SMOOTH",
"548 0 OFFCURVE",
"333 11 OFFCURVE",
"268 105 CURVE SMOOTH",
"203 199 OFFCURVE",
"204 346 OFFCURVE",
"224 463 CURVE SMOOTH",
"395 1456 LINE",
"341 1456 LINE",
"173 482 LINE SMOOTH",
"159 403 OFFCURVE",
"156 324 OFFCURVE",
"164 245 CURVE SMOOTH",
"179 94 OFFCURVE",
"254 -21 OFFCURVE",
"437 -21 CURVE SMOOTH",
"630 -21 OFFCURVE",
"781 79 OFFCURVE",
"869 247 CURVE",
"884 86 OFFCURVE",
"978 -21 OFFCURVE",
"1145 -21 CURVE SMOOTH",
"1313 -21 OFFCURVE",
"1445 47 OFFCURVE",
"1541 184 CURVE",
"1505 0 LINE",
"1560 0 LINE"
);
}
);
width = 1857;
}
);
note = uni019C;
rightKerningGroup = H;
unicode = 019C;
},
{
glyphname = uni019D;
lastChange = "2017-05-19 14:54:55 +0000";
layers = (
{
layerId = "3D6436C0-838D-49FE-97BE-67FAF848B66F";
paths = (
{
closed = 1;
nodes = (
"1359 1456 LINE",
"1305 1456 LINE",
"1069 93 LINE",
"392 1456 LINE",
"339 1456 LINE",
"74 -83 LINE SMOOTH",
"49 -228 OFFCURVE",
"-38 -383 OFFCURVE",
"-205 -383 CURVE SMOOTH",
"-234 -383 OFFCURVE",
"-264 -377 OFFCURVE",
"-297 -366 CURVE",
"-316 -416 LINE",
"-274 -430 OFFCURVE",
"-237 -437 OFFCURVE",
"-206 -437 CURVE SMOOTH",
"-6 -437 OFFCURVE",
"97 -266 OFFCURVE",
"129 -89 CURVE SMOOTH",
"381 1366 LINE",
"1057 0 LINE",
"1109 0 LINE"
);
}
);
width = 1406;
}
);
note = uni019D;
rightKerningGroup = H;
unicode = 019D;
},
{
glyphname = Ohorn;
lastChange = "2017-05-19 14:54:55 +0000";
layers = (
{
layerId = "3D6436C0-838D-49FE-97BE-67FAF848B66F";
paths = (
{
closed = 1;
nodes = (
"709 -20 OFFCURVE",
"813 11 OFFCURVE",
"902 72 CURVE SMOOTH",
"1078 195 OFFCURVE",
"1189 403 OFFCURVE",
"1228 619 CURVE SMOOTH",
"1265 837 LINE SMOOTH",
"1285 954 OFFCURVE",
"1283 1070 OFFCURVE",
"1254 1185 CURVE",
"1459 1209 OFFCURVE",
"1542 1348 OFFCURVE",
"1578 1540 CURVE",
"1524 1541 LINE",
"1489 1366 OFFCURVE",
"1418 1250 OFFCURVE",
"1229 1238 CURVE",
"1157 1395 OFFCURVE",
"1008 1476 OFFCURVE",
"837 1476 CURVE SMOOTH",
"718 1476 OFFCURVE",
"614 1445 OFFCURVE",
"525 1384 CURVE SMOOTH",
"348 1260 OFFCURVE",
"237 1053 OFFCURVE",
"198 837 CURVE SMOOTH",
"161 619 LINE SMOOTH",
"144 516 OFFCURVE",
"148 416 OFFCURVE",
"171 318 CURVE SMOOTH",
"217 122 OFFCURVE",
"350 -20 OFFCURVE",
"589 -20 CURVE SMOOTH"
);
},
{
closed = 1;
nodes = (
"1153 515 OFFCURVE",
"1119 422 OFFCURVE",
"1069 334 CURVE SMOOTH",
"968 157 OFFCURVE",
"806 34 OFFCURVE",
"589 34 CURVE SMOOTH",
"479 34 OFFCURVE",
"394 64 OFFCURVE",
"335 123 CURVE SMOOTH",
"215 241 OFFCURVE",
"184 434 OFFCURVE",
"216 619 CURVE SMOOTH",
"253 833 LINE SMOOTH",
"270 932 OFFCURVE",
"304 1027 OFFCURVE",
"355 1117 CURVE SMOOTH",
"455 1296 OFFCURVE",
"618 1422 OFFCURVE",
"837 1422 CURVE SMOOTH",
"947 1422 OFFCURVE",
"1032 1393 OFFCURVE",
"1092 1334 CURVE SMOOTH",
"1211 1217 OFFCURVE",
"1243 1024 OFFCURVE",
"1212 839 CURVE SMOOTH",
"1172 613 LINE SMOOTH"
);
}
);
width = 1407;
}
);
leftKerningGroup = C;
note = Ohorn;
unicode = 01A0;
},
{
glyphname = ohorn;
lastChange = "2017-05-19 14:54:55 +0000";
layers = (
{
layerId = "3D6436C0-838D-49FE-97BE-67FAF848B66F";
paths = (
{
closed = 1;
nodes = (
"538 -20 OFFCURVE",
"621 3 OFFCURVE",
"694 49 CURVE SMOOTH",
"839 141 OFFCURVE",
"942 303 OFFCURVE",
"983 484 CURVE SMOOTH",
"1023 664 OFFCURVE",
"1010 793 OFFCURVE",
"966 901 CURVE",
"1133 928 OFFCURVE",
"1198 1038 OFFCURVE",
"1227 1195 CURVE",
"1172 1196 LINE",
"1143 1052 OFFCURVE",
"1086 965 OFFCURVE",
"931 954 CURVE",
"859 1054 OFFCURVE",
"748 1102 OFFCURVE",
"625 1102 CURVE SMOOTH",
"524 1102 OFFCURVE",
"436 1076 OFFCURVE",
"359 1023 CURVE SMOOTH",
"206 918 OFFCURVE",
"107 740 OFFCURVE",
"76 556 CURVE SMOOTH",
"70 520 LINE SMOOTH",
"56 433 OFFCURVE",
"60 348 OFFCURVE",
"82 265 CURVE SMOOTH",
"125 100 OFFCURVE",
"243 -20 OFFCURVE",
"443 -20 CURVE SMOOTH"
);
},
{
closed = 1;
nodes = (
"147 642 OFFCURVE",
"177 719 OFFCURVE",
"221 794 CURVE SMOOTH",
"309 942 OFFCURVE",
"449 1048 OFFCURVE",
"626 1048 CURVE SMOOTH",
"715 1048 OFFCURVE",
"784 1023 OFFCURVE",
"835 974 CURVE SMOOTH",
"936 874 OFFCURVE",
"969 713 OFFCURVE",
"944 562 CURVE SMOOTH",
"936 520 LINE SMOOTH",
"921 439 OFFCURVE",
"891 362 OFFCURVE",
"847 288 CURVE SMOOTH",
"759 140 OFFCURVE",
"621 34 OFFCURVE",
"442 34 CURVE SMOOTH",
"353 34 OFFCURVE",
"284 59 OFFCURVE",
"233 108 CURVE SMOOTH",
"131 207 OFFCURVE",
"99 368 OFFCURVE",
"124 520 CURVE SMOOTH",
"132 562 LINE SMOOTH"
);
}
);
width = 1088;
}
);
leftKerningGroup = c;
note = ohorn;
unicode = 01A1;
},
{
glyphname = uni01A2;
lastChange = "2017-05-19 14:54:55 +0000";
layers = (
{
layerId = "3D6436C0-838D-49FE-97BE-67FAF848B66F";
paths = (
{
closed = 1;
nodes = (
"751 -21 OFFCURVE",
"972 20 OFFCURVE",
"1092 156 CURVE",
"1284 1273 LINE",
"1451 1384 LINE",
"1140 -416 LINE",
"1193 -416 LINE",
"1515 1456 LINE",
"1464 1455 LINE",
"1266 1325 LINE",
"1215 1385 OFFCURVE",
"1149 1425 OFFCURVE",
"1066 1446 CURVE SMOOTH",
"901 1486 OFFCURVE",
"697 1506 OFFCURVE",
"516 1383 CURVE SMOOTH",
"335 1260 OFFCURVE",
"219 1054 OFFCURVE",
"180 835 CURVE SMOOTH",
"143 620 LINE SMOOTH",
"126 516 OFFCURVE",
"130 415 OFFCURVE",
"155 317 CURVE SMOOTH",
"205 121 OFFCURVE",
"343 -20 OFFCURVE",
"582 -21 CURVE SMOOTH"
);
},
{
closed = 1;
nodes = (
"959 1422 OFFCURVE",
"1159 1397 OFFCURVE",
"1232 1274 CURVE",
"1039 181 LINE",
"981 126 OFFCURVE",
"910 87 OFFCURVE",
"825 66 CURVE SMOOTH",
"655 22 OFFCURVE",
"448 5 OFFCURVE",
"325 122 CURVE SMOOTH",
"201 239 OFFCURVE",
"165 433 OFFCURVE",
"197 620 CURVE SMOOTH",
"235 840 LINE SMOOTH",
"254 939 OFFCURVE",
"290 1033 OFFCURVE",
"343 1122 CURVE SMOOTH",
"447 1298 OFFCURVE",
"615 1421 OFFCURVE",
"832 1422 CURVE SMOOTH"
);
}
);
width = 1562;
}
);
leftKerningGroup = C;
note = uni01A2;
rightKerningGroup = H;
unicode = 01A2;
},
{
glyphname = uni01A3;
lastChange = "2017-05-19 14:54:55 +0000";
layers = (
{
layerId = "3D6436C0-838D-49FE-97BE-67FAF848B66F";
paths = (
{
closed = 1;
nodes = (
"807 -416 LINE",
"1065 1081 LINE",
"1017 1081 LINE",
"872 991 LINE",
"807 1065 OFFCURVE",
"718 1102 OFFCURVE",
"606 1102 CURVE SMOOTH",
"506 1102 OFFCURVE",
"421 1076 OFFCURVE",
"350 1023 CURVE SMOOTH",
"211 919 OFFCURVE",
"122 756 OFFCURVE",
"85 533 CURVE SMOOTH",
"83 520 LINE SMOOTH",
"69 436 OFFCURVE",
"70 353 OFFCURVE",
"86 270 CURVE SMOOTH",
"118 104 OFFCURVE",
"222 -21 OFFCURVE",
"423 -21 CURVE SMOOTH",
"539 -21 OFFCURVE",
"642 17 OFFCURVE",
"733 94 CURVE",
"876 931 LINE",
"1000 1010 LINE",
"754 -416 LINE"
);
},
{
closed = 1;
nodes = (
"332 34 OFFCURVE",
"263 59 OFFCURVE",
"218 109 CURVE SMOOTH",
"127 209 OFFCURVE",
"112 371 OFFCURVE",
"137 520 CURVE SMOOTH",
"144 562 LINE SMOOTH",
"159 641 OFFCURVE",
"186 718 OFFCURVE",
"224 793 CURVE SMOOTH",
"300 941 OFFCURVE",
"426 1048 OFFCURVE",
"607 1048 CURVE SMOOTH",
"699 1048 OFFCURVE",
"773 1018 OFFCURVE",
"829 958 CURVE",
"679 115 LINE",
"598 60 OFFCURVE",
"513 33 OFFCURVE",
"423 33 CURVE SMOOTH"
);
}
);
width = 1147;
}
);
note = uni01A3;
unicode = 01A3;
},
{
glyphname = uni01A4;
lastChange = "2017-05-19 14:54:55 +0000";
layers = (
{
layerId = "3D6436C0-838D-49FE-97BE-67FAF848B66F";
paths = (
{
closed = 1;
nodes = (
"1069 615 OFFCURVE",
"1286 759 OFFCURVE",
"1330 1031 CURVE SMOOTH",
"1374 1299 OFFCURVE",
"1201 1452 OFFCURVE",
"942 1456 CURVE SMOOTH",
"509 1456 LINE SMOOTH",
"321 1456 OFFCURVE",
"149 1368 OFFCURVE",
"118 1171 CURVE SMOOTH",
"115 1152 OFFCURVE",
"114 1134 OFFCURVE",
"115 1115 CURVE",
"120 1059 LINE",
"172 1071 LINE",
"167 1105 OFFCURVE",
"167 1136 OFFCURVE",
"171 1165 CURVE SMOOTH",
"182 1234 OFFCURVE",
"316 1388 OFFCURVE",
"412 1424 CURVE SMOOTH",
"447 1437 OFFCURVE",
"475 1429 OFFCURVE",
"498 1402 CURVE",
"253 0 LINE",
"307 0 LINE",
"413 615 LINE",
"798 615 LINE SMOOTH"
);
},
{
closed = 1;
nodes = (
"1171 1397 OFFCURVE",
"1319 1262 OFFCURVE",
"1276 1029 CURVE SMOOTH",
"1232 793 OFFCURVE",
"1030 669 OFFCURVE",
"795 669 CURVE SMOOTH",
"422 669 LINE",
"550 1402 LINE",
"946 1402 LINE SMOOTH"
);
}
);
width = 1356;
}
);
note = uni01A4;
rightKerningGroup = P;
unicode = 01A4;
},
{
glyphname = uni01A5;
lastChange = "2017-05-19 14:54:55 +0000";
layers = (
{
layerId = "3D6436C0-838D-49FE-97BE-67FAF848B66F";
paths = (
{
closed = 1;
nodes = (
"566 -19 OFFCURVE",
"644 6 OFFCURVE",
"709 57 CURVE SMOOTH",
"834 154 OFFCURVE",
"918 319 OFFCURVE",
"962 552 CURVE SMOOTH",
"975 631 OFFCURVE",
"976 713 OFFCURVE",
"966 798 CURVE SMOOTH",
"946 969 OFFCURVE",
"857 1102 OFFCURVE",
"656 1102 CURVE SMOOTH",
"492 1102 OFFCURVE",
"359 1017 OFFCURVE",
"264 889 CURVE",
"282 976 LINE SMOOTH",
"310 1111 OFFCURVE",
"360 1270 OFFCURVE",
"523 1270 CURVE SMOOTH",
"551 1270 OFFCURVE",
"582 1264 OFFCURVE",
"615 1253 CURVE",
"634 1303 LINE",
"592 1317 OFFCURVE",
"555 1324 OFFCURVE",
"524 1324 CURVE SMOOTH",
"372 1323 OFFCURVE",
"295 1215 OFFCURVE",
"252 1082 CURVE",
"246 1082 LINE",
"-11 -416 LINE",
"43 -416 LINE",
"146 169 LINE",
"206 40 OFFCURVE",
"334 -20 OFFCURVE",
"473 -20 CURVE SMOOTH"
);
},
{
closed = 1;
nodes = (
"746 1048 OFFCURVE",
"811 1021 OFFCURVE",
"850 966 CURVE SMOOTH",
"928 857 OFFCURVE",
"930 687 OFFCURVE",
"907 552 CURVE SMOOTH",
"889 457 OFFCURVE",
"863 371 OFFCURVE",
"828 296 CURVE SMOOTH",
"758 144 OFFCURVE",
"646 35 OFFCURVE",
"473 34 CURVE SMOOTH",
"317 34 OFFCURVE",
"193 113 OFFCURVE",
"160 269 CURVE",
"250 775 LINE",
"306 939 OFFCURVE",
"492 1048 OFFCURVE",
"657 1048 CURVE SMOOTH"
);
}
);
width = 1087;
}
);
note = uni01A5;
unicode = 01A5;
},
{
glyphname = uni01A6;
lastChange = "2017-05-19 14:54:55 +0000";
layers = (
{
layerId = "3D6436C0-838D-49FE-97BE-67FAF848B66F";
paths = (
{
closed = 1;
nodes = (
"736 623 LINE",
"1162 -352 LINE",
"1218 -351 LINE",
"1219 -337 LINE",
"792 637 LINE",
"989 680 OFFCURVE",
"1146 835 OFFCURVE",
"1179 1036 CURVE SMOOTH",
"1223 1301 OFFCURVE",
"1033 1452 OFFCURVE",
"784 1456 CURVE SMOOTH",
"389 1456 LINE",
"403 1536 LINE",
"349 1536 LINE",
"85 0 LINE",
"138 0 LINE",
"246 623 LINE"
);
},
{
closed = 1;
nodes = (
"1004 1398 OFFCURVE",
"1168 1269 OFFCURVE",
"1125 1036 CURVE SMOOTH",
"1085 825 OFFCURVE",
"901 677 OFFCURVE",
"684 677 CURVE SMOOTH",
"255 677 LINE",
"381 1402 LINE",
"785 1402 LINE SMOOTH"
);
}
);
width = 1305;
}
);
note = uni01A6;
unicode = 01A6;
},
{
glyphname = uni01A7;
lastChange = "2017-05-19 14:54:55 +0000";
layers = (
{
layerId = "3D6436C0-838D-49FE-97BE-67FAF848B66F";
paths = (
{
closed = 1;
nodes = (
"107 428 OFFCURVE",
"141 492 OFFCURVE",
"196 539 CURVE SMOOTH",
"305 633 OFFCURVE",
"460 680 OFFCURVE",
"601 719 CURVE SMOOTH",
"741 758 OFFCURVE",
"909 809 OFFCURVE",
"1022 912 CURVE SMOOTH",
"1135 1015 OFFCURVE",
"1167 1218 OFFCURVE",
"1086 1323 CURVE SMOOTH",
"1005 1427 OFFCURVE",
"855 1476 OFFCURVE",
"714 1476 CURVE SMOOTH",
"451 1475 OFFCURVE",
"225 1308 OFFCURVE",
"174 1047 CURVE",
"228 1046 LINE",
"279 1275 OFFCURVE",
"483 1422 OFFCURVE",
"715 1422 CURVE SMOOTH",
"773 1422 OFFCURVE",
"832 1412 OFFCURVE",
"893 1392 CURVE SMOOTH",
"1013 1351 OFFCURVE",
"1099 1263 OFFCURVE",
"1074 1122 CURVE SMOOTH",
"1054 1015 OFFCURVE",
"1002 945 OFFCURVE",
"879 877 CURVE SMOOTH",
"818 843 OFFCURVE",
"720 808 OFFCURVE",
"585 772 CURVE SMOOTH",
"315 699 OFFCURVE",
"186 624 OFFCURVE",
"111 528 CURVE SMOOTH",
"35 431 OFFCURVE",
"-3 250 OFFCURVE",
"79 141 CURVE SMOOTH",
"161 32 OFFCURVE",
"312 -20 OFFCURVE",
"459 -20 CURVE SMOOTH",
"739 -21 OFFCURVE",
"993 122 OFFCURVE",
"1049 410 CURVE",
"995 410 LINE",
"939 157 OFFCURVE",
"706 33 OFFCURVE",
"458 34 CURVE SMOOTH",
"397 34 OFFCURVE",
"335 45 OFFCURVE",
"274 67 CURVE SMOOTH",
"151 111 OFFCURVE",
"65 202 OFFCURVE",
"92 349 CURVE SMOOTH"
);
}
);
width = 1175;
}
);
note = uni01A7;
unicode = 01A7;
},
{
glyphname = uni01A8;
lastChange = "2017-05-19 14:54:55 +0000";
layers = (
{
layerId = "3D6436C0-838D-49FE-97BE-67FAF848B66F";
paths = (
{
closed = 1;
nodes = (
"130 320 OFFCURVE",
"155 366 OFFCURVE",
"195 401 CURVE SMOOTH",
"275 471 OFFCURVE",
"382 507 OFFCURVE",
"493 533 CURVE SMOOTH",
"604 559 OFFCURVE",
"729 594 OFFCURVE",
"814 671 CURVE SMOOTH",
"898 747 OFFCURVE",
"922 902 OFFCURVE",
"862 983 CURVE SMOOTH",
"801 1063 OFFCURVE",
"690 1102 OFFCURVE",
"583 1102 CURVE SMOOTH",
"383 1102 OFFCURVE",
"199 999 OFFCURVE",
"159 794 CURVE",
"214 793 LINE",
"254 961 OFFCURVE",
"419 1048 OFFCURVE",
"583 1048 CURVE SMOOTH",
"711 1048 OFFCURVE",
"867 986 OFFCURVE",
"839 831 CURVE SMOOTH",
"824 752 OFFCURVE",
"789 703 OFFCURVE",
"703 656 CURVE SMOOTH",
"660 632 OFFCURVE",
"585 607 OFFCURVE",
"479 581 CURVE SMOOTH",
"267 528 OFFCURVE",
"176 474 OFFCURVE",
"120 400 CURVE SMOOTH",
"63 326 OFFCURVE",
"34 187 OFFCURVE",
"98 103 CURVE SMOOTH",
"161 19 OFFCURVE",
"278 -20 OFFCURVE",
"391 -20 CURVE SMOOTH",
"582 -20 OFFCURVE",
"790 70 OFFCURVE",
"830 274 CURVE",
"776 274 LINE",
"721 105 OFFCURVE",
"559 33 OFFCURVE",
"390 34 CURVE SMOOTH",
"346 35 OFFCURVE",
"301 43 OFFCURVE",
"256 59 CURVE SMOOTH",
"164 91 OFFCURVE",
"99 158 OFFCURVE",
"119 265 CURVE SMOOTH"
);
}
);
width = 990;
}
);
note = uni01A8;
unicode = 01A8;
},
{
glyphname = uni01AA;
lastChange = "2017-05-19 14:54:55 +0000";
layers = (
{
layerId = "3D6436C0-838D-49FE-97BE-67FAF848B66F";
paths = (
{
closed = 1;
nodes = (
"788 -377 OFFCURVE",
"754 -383 OFFCURVE",
"730 -382 CURVE",
"562 -382 OFFCURVE",
"540 -224 OFFCURVE",
"561 -89 CURVE SMOOTH",
"793 1249 LINE SMOOTH",
"820 1428 OFFCURVE",
"711 1581 OFFCURVE",
"523 1581 CURVE SMOOTH",
"430 1581 OFFCURVE",
"348 1548 OFFCURVE",
"278 1483 CURVE SMOOTH",
"137 1351 OFFCURVE",
"103 1146 OFFCURVE",
"203 1017 CURVE SMOOTH",
"303 888 OFFCURVE",
"543 873 OFFCURVE",
"712 1069 CURVE",
"508 -89 LINE SMOOTH",
"481 -257 OFFCURVE",
"528 -437 OFFCURVE",
"729 -437 CURVE SMOOTH",
"759 -437 OFFCURVE",
"795 -431 OFFCURVE",
"838 -418 CURVE",
"832 -365 LINE"
);
},
{
closed = 1;
nodes = (
"262 974 OFFCURVE",
"176 1101 OFFCURVE",
"205 1249 CURVE SMOOTH",
"233 1402 OFFCURVE",
"364 1527 OFFCURVE",
"524 1527 CURVE SMOOTH",
"676 1526 OFFCURVE",
"768 1397 OFFCURVE",
"740 1252 CURVE SMOOTH",
"712 1099 OFFCURVE",
"577 974 OFFCURVE",
"418 974 CURVE SMOOTH"
);
}
);
width = 925;
}
);
note = uni01AA;
unicode = 01AA;
},
{
glyphname = uni01AB;
lastChange = "2017-05-19 14:54:55 +0000";
layers = (
{
layerId = "3D6436C0-838D-49FE-97BE-67FAF848B66F";
paths = (
{
closed = 1;
nodes = (
"448 43 LINE",
"394 37 OFFCURVE",
"358 34 OFFCURVE",
"340 34 CURVE SMOOTH",
"209 37 OFFCURVE",
"209 155 OFFCURVE",
"226 259 CURVE SMOOTH",
"359 1027 LINE",
"599 1027 LINE",
"606 1082 LINE",
"369 1082 LINE",
"419 1374 LINE",
"364 1374 LINE",
"314 1082 LINE",
"119 1082 LINE",
"111 1027 LINE",
"304 1027 LINE",
"172 259 LINE SMOOTH",
"149 114 OFFCURVE",
"172 -19 OFFCURVE",
"343 -20 CURVE",
"398 -17 LINE",
"384 -88 LINE SMOOTH",
"357 -223 OFFCURVE",
"306 -382 OFFCURVE",
"143 -382 CURVE SMOOTH",
"115 -382 OFFCURVE",
"85 -376 OFFCURVE",
"52 -365 CURVE",
"32 -415 LINE",
"74 -429 OFFCURVE",
"111 -436 OFFCURVE",
"142 -436 CURVE SMOOTH",
"339 -436 OFFCURVE",
"408 -255 OFFCURVE",
"437 -88 CURVE SMOOTH",
"449 -8 LINE"
);
}
);
width = 629;
}
);
note = uni01AB;
unicode = 01AB;
},
{
glyphname = uni01AC;
lastChange = "2017-05-19 14:54:55 +0000";
layers = (
{
layerId = "3D6436C0-838D-49FE-97BE-67FAF848B66F";
paths = (
{
closed = 1;
nodes = (
"115 1152 OFFCURVE",
"114 1134 OFFCURVE",
"115 1115 CURVE",
"120 1059 LINE",
"172 1071 LINE",
"163 1134 OFFCURVE",
"170 1191 OFFCURVE",
"194 1242 CURVE SMOOTH",
"241 1345 OFFCURVE",
"373 1402 OFFCURVE",
"510 1402 CURVE SMOOTH",
"699 1402 LINE",
"457 0 LINE",
"511 0 LINE",
"753 1402 LINE",
"1268 1402 LINE",
"1275 1456 LINE",
"509 1456 LINE SMOOTH",
"321 1456 OFFCURVE",
"149 1368 OFFCURVE",
"118 1171 CURVE SMOOTH"
);
}
);
width = 1180;
}
);
note = uni01AC;
unicode = 01AC;
},
{
glyphname = uni01AD;
lastChange = "2017-05-19 14:54:55 +0000";
layers = (
{
layerId = "3D6436C0-838D-49FE-97BE-67FAF848B66F";
paths = (
{
closed = 1;
nodes = (
"663 1527 OFFCURVE",
"693 1521 OFFCURVE",
"726 1510 CURVE",
"746 1560 LINE",
"703 1574 OFFCURVE",
"666 1581 OFFCURVE",
"635 1581 CURVE SMOOTH",
"438 1581 OFFCURVE",
"369 1400 OFFCURVE",
"340 1233 CURVE SMOOTH",
"314 1082 LINE",
"119 1082 LINE",
"111 1027 LINE",
"304 1027 LINE",
"172 259 LINE SMOOTH",
"161 186 OFFCURVE",
"165 122 OFFCURVE",
"185 66 CURVE SMOOTH",
"224 -47 OFFCURVE",
"383 -24 OFFCURVE",
"451 -8 CURVE",
"449 43 LINE",
"395 37 OFFCURVE",
"359 34 OFFCURVE",
"340 34 CURVE SMOOTH",
"209 37 OFFCURVE",
"209 155 OFFCURVE",
"226 259 CURVE SMOOTH",
"359 1027 LINE",
"599 1027 LINE",
"606 1082 LINE",
"369 1082 LINE",
"394 1227 LINE SMOOTH",
"418 1363 OFFCURVE",
"470 1527 OFFCURVE",
"635 1527 CURVE SMOOTH"
);
}
);
width = 629;
}
);
note = uni01AD;
unicode = 01AD;
},
{
glyphname = uni01AE;
lastChange = "2017-05-19 14:54:55 +0000";
layers = (
{
layerId = "3D6436C0-838D-49FE-97BE-67FAF848B66F";
paths = (
{
closed = 1;
nodes = (
"447 -89 LINE SMOOTH",
"420 -257 OFFCURVE",
"467 -437 OFFCURVE",
"668 -437 CURVE SMOOTH",
"698 -437 OFFCURVE",
"734 -431 OFFCURVE",
"777 -418 CURVE",
"771 -365 LINE",
"732 -376 OFFCURVE",
"698 -382 OFFCURVE",
"669 -383 CURVE SMOOTH",
"500 -383 OFFCURVE",
"477 -224 OFFCURVE",
"500 -89 CURVE SMOOTH",
"759 1402 LINE",
"1274 1402 LINE",
"1281 1456 LINE",
"199 1456 LINE",
"192 1402 LINE",
"705 1402 LINE"
);
}
);
width = 1187;
}
);
leftKerningGroup = T;
note = uni01AE;
rightKerningGroup = T;
unicode = 01AE;
},
{
glyphname = Uhorn;
lastChange = "2017-05-19 14:54:55 +0000";
layers = (
{
layerId = "3D6436C0-838D-49FE-97BE-67FAF848B66F";
paths = (
{
closed = 1;
nodes = (
"858 -20 OFFCURVE",
"1071 181 OFFCURVE",
"1122 469 CURVE SMOOTH",
"1250 1195 LINE",
"1463 1211 OFFCURVE",
"1552 1353 OFFCURVE",
"1588 1550 CURVE",
"1534 1551 LINE",
"1501 1384 OFFCURVE",
"1435 1265 OFFCURVE",
"1254 1248 CURVE",
"1292 1456 LINE",
"1238 1456 LINE",
"1070 481 LINE SMOOTH",
"1025 220 OFFCURVE",
"822 34 OFFCURVE",
"559 34 CURVE SMOOTH",
"302 34 OFFCURVE",
"168 224 OFFCURVE",
"209 469 CURVE SMOOTH",
"379 1456 LINE",
"326 1456 LINE",
"155 469 LINE SMOOTH",
"111 186 OFFCURVE",
"268 -20 OFFCURVE",
"559 -20 CURVE SMOOTH"
);
}
);
width = 1324;
}
);
note = Uhorn;
unicode = 01AF;
},
{
glyphname = uhorn;
lastChange = "2017-05-19 14:54:55 +0000";
layers = (
{
layerId = "3D6436C0-838D-49FE-97BE-67FAF848B66F";
paths = (
{
closed = 1;
nodes = (
"977 894 LINE",
"1153 913 OFFCURVE",
"1223 1025 OFFCURVE",
"1254 1189 CURVE",
"1199 1190 LINE",
"1172 1057 OFFCURVE",
"1124 967 OFFCURVE",
"981 947 CURVE",
"1007 1082 LINE",
"952 1082 LINE",
"821 321 LINE",
"768 138 OFFCURVE",
"585 34 OFFCURVE",
"404 34 CURVE SMOOTH",
"189 34 OFFCURVE",
"151 213 OFFCURVE",
"180 393 CURVE SMOOTH",
"299 1082 LINE",
"245 1082 LINE",
"127 395 LINE SMOOTH",
"92 176 OFFCURVE",
"157 -20 OFFCURVE",
"406 -20 CURVE SMOOTH",
"574 -20 OFFCURVE",
"705 45 OFFCURVE",
"800 175 CURVE",
"766 0 LINE",
"821 0 LINE"
);
}
);
width = 1099;
}
);
leftKerningGroup = u;
note = uhorn;
unicode = 01B0;
},
{
glyphname = uni01B1;
lastChange = "2017-05-19 14:54:55 +0000";
layers = (
{
layerId = "3D6436C0-838D-49FE-97BE-67FAF848B66F";
paths = (
{
closed = 1;
nodes = (
"1093 522 OFFCURVE",
"1061 431 OFFCURVE",
"1013 342 CURVE SMOOTH",
"916 164 OFFCURVE",
"761 34 OFFCURVE",
"554 34 CURVE SMOOTH",
"451 34 OFFCURVE",
"372 64 OFFCURVE",
"317 125 CURVE SMOOTH",
"208 245 OFFCURVE",
"181 437 OFFCURVE",
"210 605 CURVE SMOOTH",
"224 689 LINE SMOOTH",
"279 1017 OFFCURVE",
"438 1247 OFFCURVE",
"699 1378 CURVE",
"712 1456 LINE",
"287 1456 LINE",
"279 1402 LINE",
"634 1403 LINE",
"374 1264 OFFCURVE",
"227 1008 OFFCURVE",
"176 724 CURVE SMOOTH",
"156 607 LINE SMOOTH",
"140 510 OFFCURVE",
"142 414 OFFCURVE",
"162 318 CURVE SMOOTH",
"201 125 OFFCURVE",
"323 -20 OFFCURVE",
"555 -20 CURVE SMOOTH",
"670 -20 OFFCURVE",
"769 11 OFFCURVE",
"854 73 CURVE SMOOTH",
"1022 196 OFFCURVE",
"1126 402 OFFCURVE",
"1163 607 CURVE SMOOTH",
"1183 724 LINE SMOOTH",
"1224 981 OFFCURVE",
"1180 1237 OFFCURVE",
"964 1401 CURVE",
"1321 1402 LINE",
"1329 1456 LINE",
"908 1456 LINE",
"895 1378 LINE",
"1135 1243 OFFCURVE",
"1172 976 OFFCURVE",
"1129 724 CURVE SMOOTH",
"1110 616 LINE SMOOTH"
);
}
);
width = 1320;
}
);
note = uni01B1;
unicode = 01B1;
},
{
glyphname = uni01B2;
lastChange = "2017-05-19 14:54:55 +0000";
layers = (
{
layerId = "3D6436C0-838D-49FE-97BE-67FAF848B66F";
paths = (
{
closed = 1;
nodes = (
"872 -21 OFFCURVE",
"1086 181 OFFCURVE",
"1138 469 CURVE SMOOTH",
"1251 1122 LINE SMOOTH",
"1260 1173 OFFCURVE",
"1263 1228 OFFCURVE",
"1260 1286 CURVE SMOOTH",
"1253 1394 OFFCURVE",
"1204 1476 OFFCURVE",
"1069 1476 CURVE SMOOTH",
"1038 1476 OFFCURVE",
"1002 1470 OFFCURVE",
"961 1457 CURVE",
"966 1404 LINE",
"1054 1428 OFFCURVE",
"1142 1437 OFFCURVE",
"1182 1373 CURVE SMOOTH",
"1221 1309 OFFCURVE",
"1211 1208 OFFCURVE",
"1198 1128 CURVE SMOOTH",
"1085 480 LINE SMOOTH",
"1040 220 OFFCURVE",
"838 33 OFFCURVE",
"574 33 CURVE SMOOTH",
"317 33 OFFCURVE",
"184 224 OFFCURVE",
"225 469 CURVE SMOOTH",
"395 1456 LINE",
"341 1456 LINE",
"171 469 LINE SMOOTH",
"126 186 OFFCURVE",
"283 -21 OFFCURVE",
"575 -21 CURVE SMOOTH"
);
}
);
width = 1353;
}
);
note = uni01B2;
unicode = 01B2;
},
{
glyphname = uni01B3;
lastChange = "2017-05-19 14:54:55 +0000";
layers = (
{
layerId = "3D6436C0-838D-49FE-97BE-67FAF848B66F";
paths = (
{
closed = 1;
nodes = (
"1164 1277 OFFCURVE",
"1249 1420 OFFCURVE",
"1372 1420 CURVE SMOOTH",
"1440 1420 OFFCURVE",
"1485 1376 OFFCURVE",
"1524 1325 CURVE",
"1565 1361 LINE",
"1506 1438 OFFCURVE",
"1443 1476 OFFCURVE",
"1374 1476 CURVE SMOOTH",
"1299 1476 OFFCURVE",
"1236 1446 OFFCURVE",
"1185 1385 CURVE SMOOTH",
"1082 1258 LINE",
"622 647 LINE",
"587 598 LINE",
"571 647 LINE",
"248 1457 LINE",
"179 1457 LINE",
"557 558 LINE",
"461 0 LINE",
"515 0 LINE",
"611 552 LINE",
"1095 1186 LINE SMOOTH"
);
}
);
width = 1186;
}
);
note = uni01B3;
unicode = 01B3;
},
{
glyphname = uni01B4;
lastChange = "2017-05-19 14:54:55 +0000";
layers = (
{
layerId = "3D6436C0-838D-49FE-97BE-67FAF848B66F";
paths = (
{
closed = 1;
nodes = (
"158 -436 OFFCURVE",
"244 -316 OFFCURVE",
"317 -180 CURVE SMOOTH",
"994 1066 LINE SMOOTH",
"1015 1104 OFFCURVE",
"1043 1143 OFFCURVE",
"1079 1184 CURVE SMOOTH",
"1150 1264 OFFCURVE",
"1255 1270 OFFCURVE",
"1354 1181 CURVE",
"1388 1222 LINE",
"1326 1275 OFFCURVE",
"1265 1301 OFFCURVE",
"1204 1301 CURVE SMOOTH",
"1068 1298 OFFCURVE",
"980 1157 OFFCURVE",
"921 1049 CURVE SMOOTH",
"393 81 LINE",
"374 191 LINE",
"181 1083 LINE",
"124 1083 LINE",
"358 11 LINE",
"260 -172 LINE SMOOTH",
"203 -275 OFFCURVE",
"126 -384 OFFCURVE",
"-5 -384 CURVE SMOOTH",
"-24 -384 OFFCURVE",
"-48 -381 OFFCURVE",
"-77 -375 CURVE",
"-83 -426 LINE",
"-55 -433 OFFCURVE",
"-30 -437 OFFCURVE",
"-7 -437 CURVE SMOOTH"
);
}
);
width = 1181;
}
);
note = uni01B4;
unicode = 01B4;
},
{
glyphname = uni01B5;
lastChange = "2017-05-19 14:54:55 +0000";
layers = (
{
layerId = "3D6436C0-838D-49FE-97BE-67FAF848B66F";
paths = (
{
closed = 1;
nodes = (
"608 783 LINE",
"212 783 LINE",
"204 729 LINE",
"563 729 LINE",
"-6 44 LINE",
"-13 0 LINE",
"993 0 LINE",
"1001 54 LINE",
"71 54 LINE",
"635 729 LINE",
"1008 729 LINE",
"1015 783 LINE",
"679 783 LINE",
"1207 1418 LINE",
"1212 1455 LINE",
"276 1456 LINE",
"269 1403 LINE",
"1127 1403 LINE"
);
}
);
width = 1187;
}
);
note = uni01B5;
unicode = 01B5;
},
{
glyphname = uni01B6;
lastChange = "2017-05-19 14:54:55 +0000";
layers = (
{
layerId = "3D6436C0-838D-49FE-97BE-67FAF848B66F";
paths = (
{
closed = 1;
nodes = (
"456 583 LINE",
"168 583 LINE",
"161 529 LINE",
"409 529 LINE",
"-12 44 LINE",
"-19 0 LINE",
"800 0 LINE",
"808 54 LINE",
"65 54 LINE",
"481 529 LINE",
"771 529 LINE",
"778 583 LINE",
"529 583 LINE",
"921 1034 LINE",
"928 1081 LINE",
"197 1082 LINE",
"189 1027 LINE",
"845 1027 LINE"
);
}
);
width = 949;
}
);
leftKerningGroup = z;
note = uni01B6;
rightKerningGroup = z;
unicode = 01B6;
},
{
glyphname = uni01B7;
lastChange = "2017-05-19 14:54:55 +0000";
layers = (
{
layerId = "3D6436C0-838D-49FE-97BE-67FAF848B66F";
paths = (
{
closed = 1;
nodes = (
"399 754 LINE",
"392 711 LINE",
"618 710 LINE SMOOTH",
"822 706 OFFCURVE",
"935 590 OFFCURVE",
"971 425 CURVE SMOOTH",
"1006 260 OFFCURVE",
"971 63 OFFCURVE",
"875 -103 CURVE SMOOTH",
"778 -269 OFFCURVE",
"623 -382 OFFCURVE",
"415 -382 CURVE SMOOTH",
"154 -382 OFFCURVE",
"25 -224 OFFCURVE",
"40 31 CURVE",
"-13 31 LINE",
"-28 -250 OFFCURVE",
"127 -436 OFFCURVE",
"416 -436 CURVE SMOOTH",
"645 -436 OFFCURVE",
"816 -313 OFFCURVE",
"921 -131 CURVE SMOOTH",
"1026 51 OFFCURVE",
"1063 273 OFFCURVE",
"1019 454 CURVE SMOOTH",
"974 635 OFFCURVE",
"842 760 OFFCURVE",
"613 764 CURVE SMOOTH",
"488 764 LINE",
"1164 1418 LINE",
"1170 1455 LINE",
"233 1456 LINE",
"226 1403 LINE",
"1073 1403 LINE"
);
}
);
width = 1235;
}
);
note = uni01B7;
unicode = 01B7;
},
{
glyphname = uni01B8;
lastChange = "2017-05-19 14:54:55 +0000";
layers = (
{
layerId = "3D6436C0-838D-49FE-97BE-67FAF848B66F";
paths = (
{
closed = 1;
nodes = (
"1289 1403 LINE",
"1296 1456 LINE",
"359 1456 LINE",
"353 1418 LINE",
"810 764 LINE",
"666 764 LINE SMOOTH",
"438 761 OFFCURVE",
"267 641 OFFCURVE",
"163 460 CURVE SMOOTH",
"58 279 OFFCURVE",
"20 58 OFFCURVE",
"65 -125 CURVE SMOOTH",
"110 -308 OFFCURVE",
"241 -436 OFFCURVE",
"470 -436 CURVE SMOOTH",
"767 -436 OFFCURVE",
"971 -249 OFFCURVE",
"1050 30 CURVE",
"995 30 LINE",
"956 -95 OFFCURVE",
"893 -195 OFFCURVE",
"805 -270 CURVE SMOOTH",
"628 -419 OFFCURVE",
"342 -408 OFFCURVE",
"226 -301 CURVE SMOOTH",
"110 -194 OFFCURVE",
"79 -16 OFFCURVE",
"111 164 CURVE SMOOTH",
"163 453 OFFCURVE",
"356 706 OFFCURVE",
"668 710 CURVE SMOOTH",
"882 710 LINE",
"890 754 LINE",
"433 1403 LINE"
);
}
);
width = 1235;
}
);
note = uni01B8;
unicode = 01B8;
},
{
glyphname = uni01B9;
lastChange = "2017-05-19 14:54:55 +0000";
layers = (
{
layerId = "3D6436C0-838D-49FE-97BE-67FAF848B66F";
paths = (
{
closed = 1;
nodes = (
"1075 1082 LINE",
"230 1082 LINE",
"217 1014 LINE",
"585 453 LINE",
"574 453 LINE SMOOTH",
"301 446 OFFCURVE",
"95 287 OFFCURVE",
"51 11 CURVE SMOOTH",
"12 -229 OFFCURVE",
"168 -395 OFFCURVE",
"407 -395 CURVE SMOOTH",
"663 -395 OFFCURVE",
"865 -219 OFFCURVE",
"913 28 CURVE",
"857 29 LINE",
"810 -188 OFFCURVE",
"631 -341 OFFCURVE",
"406 -341 CURVE SMOOTH",
"195 -341 OFFCURVE",
"65 -206 OFFCURVE",
"104 7 CURVE SMOOTH",
"149 255 OFFCURVE",
"328 400 OFFCURVE",
"577 404 CURVE SMOOTH",
"645 404 LINE",
"653 460 LINE",
"279 1026 LINE",
"1067 1027 LINE"
);
}
);
width = 1131;
}
);
note = uni01B9;
unicode = 01B9;
},
{
glyphname = uni01BA;
lastChange = "2017-05-19 14:54:55 +0000";
layers = (
{
layerId = "3D6436C0-838D-49FE-97BE-67FAF848B66F";
paths = (
{
closed = 1;
nodes = (
"716 334 OFFCURVE",
"677 283 OFFCURVE",
"588 236 CURVE SMOOTH",
"543 213 OFFCURVE",
"468 188 OFFCURVE",
"363 163 CURVE SMOOTH",
"258 137 OFFCURVE",
"168 102 OFFCURVE",
"93 59 CURVE SMOOTH",
"-57 -29 OFFCURVE",
"-74 -229 OFFCURVE",
"-10 -313 CURVE SMOOTH",
"53 -397 OFFCURVE",
"170 -437 OFFCURVE",
"283 -437 CURVE SMOOTH",
"474 -437 OFFCURVE",
"682 -346 OFFCURVE",
"722 -142 CURVE",
"668 -142 LINE",
"613 -311 OFFCURVE",
"451 -384 OFFCURVE",
"282 -383 CURVE SMOOTH",
"194 -382 OFFCURVE",
"93 -350 OFFCURVE",
"38 -282 CURVE SMOOTH",
"-18 -214 OFFCURVE",
"7 -85 OFFCURVE",
"87 -15 CURVE SMOOTH",
"167 55 OFFCURVE",
"274 91 OFFCURVE",
"385 117 CURVE SMOOTH",
"496 143 OFFCURVE",
"621 178 OFFCURVE",
"706 255 CURVE SMOOTH",
"790 331 OFFCURVE",
"814 484 OFFCURVE",
"755 564 CURVE SMOOTH",
"696 644 OFFCURVE",
"590 685 OFFCURVE",
"462 685 CURVE",
"899 1034 LINE",
"906 1081 LINE",
"174 1082 LINE",
"167 1027 LINE",
"805 1027 LINE",
"371 676 LINE",
"364 633 LINE",
"475 632 LINE SMOOTH",
"517 631 OFFCURVE",
"560 623 OFFCURVE",
"603 609 CURVE SMOOTH",
"690 580 OFFCURVE",
"751 519 OFFCURVE",
"731 415 CURVE SMOOTH"
);
}
);
width = 968;
}
);
note = uni01BA;
unicode = 01BA;
},
{
glyphname = uni01BB;
lastChange = "2017-05-19 14:54:55 +0000";
layers = (
{
layerId = "3D6436C0-838D-49FE-97BE-67FAF848B66F";
paths = (
{
closed = 1;
nodes = (
"675 601 LINE",
"753 681 LINE",
"1008 681 LINE",
"1016 735 LINE",
"797 734 LINE",
"886 834 OFFCURVE",
"979 949 OFFCURVE",
"1002 1085 CURVE SMOOTH",
"1041 1318 OFFCURVE",
"902 1477 OFFCURVE",
"666 1476 CURVE SMOOTH",
"421 1475 OFFCURVE",
"234 1277 OFFCURVE",
"190 1046 CURVE",
"244 1045 LINE",
"288 1248 OFFCURVE",
"450 1421 OFFCURVE",
"667 1422 CURVE SMOOTH",
"871 1422 OFFCURVE",
"984 1286 OFFCURVE",
"947 1085 CURVE SMOOTH",
"922 949 OFFCURVE",
"823 835 OFFCURVE",
"732 735 CURVE",
"396 735 LINE",
"389 681 LINE",
"687 682 LINE",
"607 604 LINE",
"52 54 LINE",
"45 0 LINE",
"890 0 LINE",
"898 54 LINE",
"126 54 LINE"
);
}
);
width = 1087;
}
);
note = uni01BB;
unicode = 01BB;
},
{
glyphname = uni01BC;
lastChange = "2017-05-19 14:54:55 +0000";
layers = (
{
layerId = "3D6436C0-838D-49FE-97BE-67FAF848B66F";
paths = (
{
closed = 1;
nodes = (
"252 763 LINE",
"292 747 LINE",
"393 824 OFFCURVE",
"505 863 OFFCURVE",
"627 862 CURVE SMOOTH",
"858 861 OFFCURVE",
"952 671 OFFCURVE",
"915 462 CURVE SMOOTH",
"874 234 OFFCURVE",
"743 34 OFFCURVE",
"492 34 CURVE SMOOTH",
"276 34 OFFCURVE",
"178 179 OFFCURVE",
"191 383 CURVE",
"137 383 LINE",
"124 151 OFFCURVE",
"251 -20 OFFCURVE",
"492 -20 CURVE SMOOTH",
"775 -19 OFFCURVE",
"929 207 OFFCURVE",
"970 464 CURVE SMOOTH",
"1009 705 OFFCURVE",
"886 917 OFFCURVE",
"625 916 CURVE SMOOTH",
"518 916 OFFCURVE",
"402 883 OFFCURVE",
"315 819 CURVE",
"478 1403 LINE",
"1119 1403 LINE",
"1126 1456 LINE",
"203 1456 LINE",
"196 1403 LINE",
"422 1403 LINE"
);
}
);
width = 1087;
}
);
note = uni01BC;
unicode = 01BC;
},
{
glyphname = uni01BD;
lastChange = "2017-05-19 14:54:55 +0000";
layers = (
{
layerId = "3D6436C0-838D-49FE-97BE-67FAF848B66F";
paths = (
{
closed = 1;
nodes = (
"146 520 LINE",
"187 507 LINE",
"265 623 OFFCURVE",
"384 680 OFFCURVE",
"545 679 CURVE SMOOTH",
"729 678 OFFCURVE",
"812 542 OFFCURVE",
"780 369 CURVE SMOOTH",
"743 165 OFFCURVE",
"610 36 OFFCURVE",
"398 36 CURVE SMOOTH",
"226 36 OFFCURVE",
"120 132 OFFCURVE",
"144 308 CURVE",
"91 306 LINE",
"66 102 OFFCURVE",
"200 -17 OFFCURVE",
"399 -17 CURVE SMOOTH",
"518 -17 OFFCURVE",
"616 19 OFFCURVE",
"693 91 CURVE SMOOTH",
"846 234 OFFCURVE",
"885 485 OFFCURVE",
"782 629 CURVE SMOOTH",
"678 772 OFFCURVE",
"400 763 OFFCURVE",
"224 631 CURVE",
"348 1026 LINE",
"904 1026 LINE",
"912 1082 LINE",
"130 1082 LINE",
"122 1026 LINE",
"295 1026 LINE"
);
}
);
width = 1004;
}
);
note = uni01BD;
unicode = 01BD;
},
{
glyphname = uni01BE;
lastChange = "2017-05-19 14:54:55 +0000";
layers = (
{
layerId = "3D6436C0-838D-49FE-97BE-67FAF848B66F";
paths = (
{
closed = 1;
nodes = (
"792 395 OFFCURVE",
"711 464 OFFCURVE",
"620 530 CURVE SMOOTH",
"528 596 OFFCURVE",
"450 676 OFFCURVE",
"475 831 CURVE SMOOTH",
"510 1027 LINE",
"749 1027 LINE",
"757 1082 LINE",
"519 1082 LINE",
"569 1374 LINE",
"514 1374 LINE",
"464 1082 LINE",
"269 1082 LINE",
"262 1027 LINE",
"454 1027 LINE",
"421 829 LINE SMOOTH",
"397 678 OFFCURVE",
"477 591 OFFCURVE",
"569 519 CURVE SMOOTH",
"661 447 OFFCURVE",
"741 378 OFFCURVE",
"718 265 CURVE SMOOTH",
"686 106 OFFCURVE",
"501 35 OFFCURVE",
"357 34 CURVE SMOOTH",
"201 33 OFFCURVE",
"51 99 OFFCURVE",
"63 275 CURVE",
"9 275 LINE",
"2 206 OFFCURVE",
"15 150 OFFCURVE",
"49 107 CURVE SMOOTH",
"116 19 OFFCURVE",
"238 -20 OFFCURVE",
"358 -20 CURVE SMOOTH",
"535 -20 OFFCURVE",
"742 69 OFFCURVE",
"771 264 CURVE SMOOTH"
);
}
);
width = 897;
}
);
note = uni01BE;
unicode = 01BE;
},
{
glyphname = uni01BF;
lastChange = "2017-05-19 14:54:55 +0000";
layers = (
{
layerId = "3D6436C0-838D-49FE-97BE-67FAF848B66F";
paths = (
{
closed = 1;
nodes = (
"985 692 OFFCURVE",
"984 770 OFFCURVE",
"969 845 CURVE SMOOTH",
"940 995 OFFCURVE",
"844 1102 OFFCURVE",
"656 1102 CURVE SMOOTH",
"492 1102 OFFCURVE",
"359 1017 OFFCURVE",
"264 889 CURVE",
"301 1082 LINE",
"247 1082 LINE",
"-11 -416 LINE",
"43 -416 LINE",
"107 -56 LINE",
"232 -34 OFFCURVE",
"356 1 OFFCURVE",
"479 49 CURVE SMOOTH",
"725 145 OFFCURVE",
"920 312 OFFCURVE",
"969 591 CURVE SMOOTH",
"972 612 LINE SMOOTH"
);
},
{
closed = 1;
nodes = (
"740 1048 OFFCURVE",
"803 1026 OFFCURVE",
"844 982 CURVE SMOOTH",
"927 893 OFFCURVE",
"940 748 OFFCURVE",
"917 612 CURVE SMOOTH",
"912 586 LINE SMOOTH",
"887 459 OFFCURVE",
"833 357 OFFCURVE",
"749 278 CURVE SMOOTH",
"581 120 OFFCURVE",
"340 39 OFFCURVE",
"111 -2 CURVE",
"250 775 LINE",
"306 939 OFFCURVE",
"492 1048 OFFCURVE",
"657 1048 CURVE SMOOTH"
);
}
);
width = 1087;
}
);
note = uni01BF;
unicode = 01BF;
},
{
glyphname = uni01C0;
lastChange = "2017-05-19 14:54:55 +0000";
layers = (
{
layerId = "3D6436C0-838D-49FE-97BE-67FAF848B66F";
paths = (
{
closed = 1;
nodes = (
"129 0 LINE",
"183 0 LINE",
"434 1456 LINE",
"380 1456 LINE"
);
}
);
width = 518;
}
);
note = uni01C0;
unicode = 01C0;
},
{
glyphname = uni01C5;
lastChange = "2017-05-19 14:54:55 +0000";
layers = (
{
layerId = "3D6436C0-838D-49FE-97BE-67FAF848B66F";
paths = (
{
closed = 1;
nodes = (
"1495 1461 LINE",
"1670 1252 LINE",
"1748 1252 LINE",
"1986 1458 LINE",
"1988 1474 LINE",
"1920 1474 LINE",
"1708 1289 LINE",
"1565 1475 LINE",
"1496 1475 LINE"
);
},
{
closed = 1;
nodes = (
"829 3 OFFCURVE",
"1114 273 OFFCURVE",
"1179 657 CURVE SMOOTH",
"1206 817 LINE SMOOTH",
"1224 927 OFFCURVE",
"1217 1030 OFFCURVE",
"1186 1127 CURVE SMOOTH",
"1122 1320 OFFCURVE",
"966 1453 OFFCURVE",
"729 1456 CURVE SMOOTH",
"342 1456 LINE",
"89 0 LINE",
"488 0 LINE SMOOTH"
);
},
{
closed = 1;
nodes = (
"839 1400 OFFCURVE",
"926 1371 OFFCURVE",
"995 1316 CURVE SMOOTH",
"1131 1205 OFFCURVE",
"1186 1017 OFFCURVE",
"1153 820 CURVE SMOOTH",
"1124 656 LINE SMOOTH",
"1061 303 OFFCURVE",
"792 54 OFFCURVE",
"481 54 CURVE SMOOTH",
"153 54 LINE",
"387 1402 LINE",
"733 1402 LINE SMOOTH"
);
},
{
closed = 1;
nodes = (
"1095 44 LINE",
"1088 0 LINE",
"1907 0 LINE",
"1914 54 LINE",
"1171 54 LINE",
"2028 1034 LINE",
"2035 1081 LINE",
"1303 1082 LINE",
"1296 1027 LINE",
"1952 1027 LINE"
);
}
);
width = 2055;
}
);
note = uni01C5;
rightKerningGroup = z;
unicode = 01C5;
},
{
glyphname = uni01C6;
lastChange = "2017-05-19 14:54:55 +0000";
layers = (
{
layerId = "3D6436C0-838D-49FE-97BE-67FAF848B66F";
paths = (
{
closed = 1;
nodes = (
"1089 1560 LINE",
"1035 1560 LINE",
"917 883 LINE",
"866 1026 OFFCURVE",
"747 1102 OFFCURVE",
"596 1102 CURVE SMOOTH",
"497 1102 OFFCURVE",
"414 1074 OFFCURVE",
"347 1018 CURVE SMOOTH",
"214 905 OFFCURVE",
"140 723 OFFCURVE",
"109 552 CURVE",
"106 531 LINE SMOOTH",
"93 454 OFFCURVE",
"92 372 OFFCURVE",
"103 287 CURVE SMOOTH",
"123 115 OFFCURVE",
"210 -21 OFFCURVE",
"410 -21 CURVE SMOOTH",
"566 -21 OFFCURVE",
"704 51 OFFCURVE",
"800 174 CURVE",
"766 0 LINE",
"820 0 LINE"
);
},
{
closed = 1;
nodes = (
"1281 1461 LINE",
"1457 1252 LINE",
"1535 1252 LINE",
"1773 1458 LINE",
"1775 1474 LINE",
"1707 1474 LINE",
"1495 1289 LINE",
"1351 1475 LINE",
"1283 1475 LINE"
);
},
{
closed = 1;
nodes = (
"881 44 LINE",
"875 0 LINE",
"1694 0 LINE",
"1701 54 LINE",
"958 54 LINE",
"1814 1034 LINE",
"1822 1081 LINE",
"1090 1082 LINE",
"1082 1027 LINE",
"1738 1027 LINE"
);
},
{
closed = 1;
nodes = (
"142 477 OFFCURVE",
"171 632 OFFCURVE",
"238 781 CURVE SMOOTH",
"306 932 OFFCURVE",
"420 1048 OFFCURVE",
"596 1048 CURVE SMOOTH",
"769 1048 OFFCURVE",
"876 942 OFFCURVE",
"901 775 CURVE",
"811 269 LINE",
"724 124 OFFCURVE",
"581 33 OFFCURVE",
"408 33 CURVE SMOOTH",
"229 34 OFFCURVE",
"161 160 OFFCURVE",
"152 315 CURVE SMOOTH"
);
}
);
width = 1842;
}
);
leftKerningGroup = c;
note = uni01C6;
rightKerningGroup = z;
unicode = 01C6;
},
{
glyphname = uni01E4;
lastChange = "2017-05-19 14:54:55 +0000";
layers = (
{
layerId = "3D6436C0-838D-49FE-97BE-67FAF848B66F";
paths = (
{
closed = 1;
nodes = (
"1346 381 LINE",
"1354 435 LINE",
"1161 435 LINE",
"1200 660 LINE",
"713 660 LINE",
"706 605 LINE",
"1136 605 LINE",
"1106 435 LINE",
"783 435 LINE",
"775 381 LINE",
"1097 381 LINE",
"1061 181 LINE",
"1003 126 OFFCURVE",
"932 87 OFFCURVE",
"847 66 CURVE SMOOTH",
"677 23 OFFCURVE",
"471 6 OFFCURVE",
"348 123 CURVE SMOOTH",
"224 240 OFFCURVE",
"187 433 OFFCURVE",
"219 620 CURVE SMOOTH",
"260 855 LINE SMOOTH",
"277 950 OFFCURVE",
"311 1041 OFFCURVE",
"362 1128 CURVE SMOOTH",
"464 1301 OFFCURVE",
"626 1422 OFFCURVE",
"837 1422 CURVE SMOOTH",
"1066 1422 OFFCURVE",
"1216 1293 OFFCURVE",
"1215 1062 CURVE",
"1268 1062 LINE",
"1273 1323 OFFCURVE",
"1092 1476 OFFCURVE",
"837 1476 CURVE SMOOTH",
"722 1476 OFFCURVE",
"620 1446 OFFCURVE",
"533 1387 CURVE SMOOTH",
"357 1268 OFFCURVE",
"243 1069 OFFCURVE",
"206 858 CURVE SMOOTH",
"165 620 LINE SMOOTH",
"148 516 OFFCURVE",
"153 415 OFFCURVE",
"178 318 CURVE SMOOTH",
"228 122 OFFCURVE",
"367 -19 OFFCURVE",
"604 -20 CURVE SMOOTH",
"775 -20 OFFCURVE",
"995 20 OFFCURVE",
"1114 156 CURVE",
"1151 381 LINE"
);
}
);
width = 1364;
}
);
note = uni01E4;
unicode = 01E4;
},
{
glyphname = uni01E5;
lastChange = "2017-05-19 14:54:55 +0000";
layers = (
{
layerId = "3D6436C0-838D-49FE-97BE-67FAF848B66F";
paths = (
{
closed = 1;
nodes = (
"789 -103 LINE",
"804 -58 OFFCURVE",
"815 -17 OFFCURVE",
"822 21 CURVE SMOOTH",
"1005 1082 LINE",
"951 1082 LINE",
"915 885 LINE",
"864 1026 OFFCURVE",
"744 1102 OFFCURVE",
"595 1102 CURVE SMOOTH",
"496 1102 OFFCURVE",
"413 1074 OFFCURVE",
"346 1018 CURVE SMOOTH",
"213 905 OFFCURVE",
"139 723 OFFCURVE",
"108 552 CURVE",
"105 531 LINE SMOOTH",
"92 454 OFFCURVE",
"91 372 OFFCURVE",
"102 287 CURVE SMOOTH",
"122 116 OFFCURVE",
"210 -20 OFFCURVE",
"409 -20 CURVE SMOOTH",
"566 -20 OFFCURVE",
"696 44 OFFCURVE",
"798 172 CURVE",
"758 -20 LINE",
"732 -103 LINE",
"-83 -103 LINE",
"-91 -157 LINE",
"714 -156 LINE",
"635 -295 OFFCURVE",
"511 -383 OFFCURVE",
"348 -383 CURVE SMOOTH",
"233 -383 OFFCURVE",
"142 -328 OFFCURVE",
"74 -218 CURVE",
"33 -252 LINE",
"107 -375 OFFCURVE",
"213 -436 OFFCURVE",
"351 -436 CURVE SMOOTH",
"542 -436 OFFCURVE",
"688 -324 OFFCURVE",
"772 -157 CURVE",
"984 -157 LINE",
"992 -103 LINE"
);
},
{
closed = 1;
nodes = (
"142 441 OFFCURVE",
"157 562 OFFCURVE",
"196 679 CURVE SMOOTH",
"273 913 OFFCURVE",
"404 1048 OFFCURVE",
"595 1048 CURVE SMOOTH",
"774 1048 OFFCURVE",
"875 936 OFFCURVE",
"898 767 CURVE",
"811 276 LINE",
"726 127 OFFCURVE",
"583 34 OFFCURVE",
"407 34 CURVE SMOOTH",
"228 35 OFFCURVE",
"160 161 OFFCURVE",
"151 316 CURVE SMOOTH"
);
}
);
width = 1089;
}
);
leftKerningGroup = c;
note = uni01E5;
unicode = 01E5;
},
{
glyphname = uni01EF;
lastChange = "2017-05-19 14:54:55 +0000";
layers = (
{
layerId = "3D6436C0-838D-49FE-97BE-67FAF848B66F";
paths = (
{
closed = 1;
nodes = (
"446 1461 LINE",
"622 1252 LINE",
"699 1252 LINE",
"938 1458 LINE",
"940 1474 LINE",
"872 1474 LINE",
"660 1289 LINE",
"516 1475 LINE",
"448 1475 LINE"
);
},
{
closed = 1;
nodes = (
"737 400 OFFCURVE",
"867 254 OFFCURVE",
"820 7 CURVE SMOOTH",
"780 -209 OFFCURVE",
"604 -341 OFFCURVE",
"387 -341 CURVE SMOOTH",
"168 -340 OFFCURVE",
"41 -184 OFFCURVE",
"73 29 CURVE",
"17 29 LINE",
"-15 -215 OFFCURVE",
"139 -395 OFFCURVE",
"388 -395 CURVE SMOOTH",
"632 -395 OFFCURVE",
"835 -232 OFFCURVE",
"875 11 CURVE SMOOTH",
"919 276 OFFCURVE",
"764 454 OFFCURVE",
"496 451 CURVE SMOOTH",
"491 451 LINE",
"1057 1014 LINE",
"1064 1082 LINE",
"220 1082 LINE",
"212 1027 LINE",
"996 1027 LINE",
"428 460 LINE",
"420 405 LINE",
"492 404 LINE SMOOTH"
);
}
);
width = 1131;
}
);
note = uni01EF;
unicode = 01EF;
},
{
glyphname = uni01F6;
lastChange = "2017-05-19 14:54:55 +0000";
layers = (
{
layerId = "3D6436C0-838D-49FE-97BE-67FAF848B66F";
paths = (
{
closed = 1;
nodes = (
"278 776 LINE",
"395 1456 LINE",
"341 1456 LINE",
"90 0 LINE",
"144 0 LINE",
"269 722 LINE",
"1169 722 LINE",
"1112 391 LINE SMOOTH",
"1073 138 OFFCURVE",
"1253 -17 OFFCURVE",
"1497 -17 CURVE SMOOTH",
"1749 -17 OFFCURVE",
"1966 136 OFFCURVE",
"2013 391 CURVE SMOOTH",
"2131 1082 LINE",
"2077 1082 LINE",
"1957 391 LINE SMOOTH",
"1914 172 OFFCURVE",
"1713 38 OFFCURVE",
"1497 38 CURVE SMOOTH",
"1288 38 OFFCURVE",
"1130 174 OFFCURVE",
"1165 391 CURVE SMOOTH",
"1349 1456 LINE",
"1296 1456 LINE",
"1178 776 LINE"
);
}
);
width = 2242;
}
);
note = uni01F6;
unicode = 01F6;
},
{
glyphname = uni01F7;
lastChange = "2017-05-19 14:54:55 +0000";
layers = (
{
layerId = "3D6436C0-838D-49FE-97BE-67FAF848B66F";
paths = (
{
closed = 1;
nodes = (
"298 -17 OFFCURVE",
"458 35 OFFCURVE",
"615 103 CURVE SMOOTH",
"929 239 OFFCURVE",
"1177 466 OFFCURVE",
"1242 823 CURVE SMOOTH",
"1254 897 LINE SMOOTH",
"1271 1000 OFFCURVE",
"1267 1095 OFFCURVE",
"1244 1183 CURVE SMOOTH",
"1197 1359 OFFCURVE",
"1066 1476 OFFCURVE",
"838 1476 CURVE SMOOTH",
"637 1476 OFFCURVE",
"463 1392 OFFCURVE",
"350 1223 CURVE",
"394 1456 LINE",
"340 1456 LINE",
"14 -437 LINE",
"67 -437 LINE",
"136 -53 LINE"
);
},
{
closed = 1;
nodes = (
"941 1422 OFFCURVE",
"1022 1398 OFFCURVE",
"1081 1349 CURVE SMOOTH",
"1197 1251 OFFCURVE",
"1232 1082 OFFCURVE",
"1201 899 CURVE SMOOTH",
"1188 829 LINE SMOOTH",
"1157 660 OFFCURVE",
"1087 520 OFFCURVE",
"978 410 CURVE SMOOTH",
"761 189 OFFCURVE",
"444 67 OFFCURVE",
"140 0 CURVE",
"326 1054 LINE",
"389 1285 OFFCURVE",
"607 1422 OFFCURVE",
"838 1422 CURVE SMOOTH"
);
}
);
width = 1335;
}
);
note = uni01F7;
unicode = 01F7;
},
{
glyphname = uni021C;
lastChange = "2017-05-19 14:54:55 +0000";
layers = (
{
layerId = "3D6436C0-838D-49FE-97BE-67FAF848B66F";
paths = (
{
closed = 1;
nodes = (
"1066 489 OFFCURVE",
"1044 641 OFFCURVE",
"891 694 CURVE",
"1036 787 OFFCURVE",
"1120 911 OFFCURVE",
"1145 1065 CURVE SMOOTH",
"1189 1341 OFFCURVE",
"988 1476 OFFCURVE",
"732 1476 CURVE SMOOTH",
"485 1475 OFFCURVE",
"248 1327 OFFCURVE",
"200 1076 CURVE",
"254 1075 LINE",
"303 1296 OFFCURVE",
"514 1422 OFFCURVE",
"733 1422 CURVE SMOOTH",
"846 1422 OFFCURVE",
"940 1393 OFFCURVE",
"1014 1336 CURVE SMOOTH",
"1161 1220 OFFCURVE",
"1096 950 OFFCURVE",
"967 821 CURVE SMOOTH",
"838 692 OFFCURVE",
"649 612 OFFCURVE",
"461 550 CURVE SMOOTH",
"366 519 OFFCURVE",
"280 488 OFFCURVE",
"202 457 CURVE",
"195 402 LINE",
"412 477 OFFCURVE",
"633 555 OFFCURVE",
"836 660 CURVE",
"988 625 OFFCURVE",
"1012 477 OFFCURVE",
"988 342 CURVE SMOOTH",
"948 119 OFFCURVE",
"814 -33 OFFCURVE",
"635 -141 CURVE SMOOTH",
"455 -249 OFFCURVE",
"246 -319 OFFCURVE",
"58 -379 CURVE",
"50 -436 LINE",
"257 -377 OFFCURVE",
"481 -301 OFFCURVE",
"672 -183 CURVE SMOOTH",
"863 -65 OFFCURVE",
"1003 101 OFFCURVE",
"1042 344 CURVE SMOOTH"
);
}
);
width = 1192;
}
);
note = uni021C;
unicode = 021C;
},
{
glyphname = uni021D;
lastChange = "2017-05-19 14:54:55 +0000";
layers = (
{
layerId = "3D6436C0-838D-49FE-97BE-67FAF848B66F";
paths = (
{
closed = 1;
nodes = (
"845 334 OFFCURVE",
"817 457 OFFCURVE",
"686 497 CURVE",
"802 568 OFFCURVE",
"887 658 OFFCURVE",
"908 797 CURVE SMOOTH",
"941 1009 OFFCURVE",
"770 1102 OFFCURVE",
"581 1102 CURVE SMOOTH",
"392 1101 OFFCURVE",
"197 995 OFFCURVE",
"157 800 CURVE",
"212 800 LINE",
"233 881 OFFCURVE",
"280 943 OFFCURVE",
"353 985 CURVE SMOOTH",
"499 1068 OFFCURVE",
"671 1067 OFFCURVE",
"790 990 CURVE SMOOTH",
"909 913 OFFCURVE",
"859 708 OFFCURVE",
"751 608 CURVE SMOOTH",
"643 507 OFFCURVE",
"487 446 OFFCURVE",
"334 400 CURVE SMOOTH",
"257 377 OFFCURVE",
"189 354 OFFCURVE",
"128 332 CURVE",
"122 278 LINE",
"323 339 OFFCURVE",
"487 399 OFFCURVE",
"616 458 CURVE",
"759 447 OFFCURVE",
"793 336 OFFCURVE",
"770 207 CURVE SMOOTH",
"749 91 OFFCURVE",
"696 -5 OFFCURVE",
"612 -82 CURVE SMOOTH",
"444 -235 OFFCURVE",
"206 -326 OFFCURVE",
"7 -379 CURVE",
"-1 -436 LINE",
"110 -409 OFFCURVE",
"225 -370 OFFCURVE",
"345 -318 CURVE SMOOTH",
"585 -214 OFFCURVE",
"785 -47 OFFCURVE",
"825 210 CURVE SMOOTH"
);
}
);
width = 998;
}
);
note = uni021D;
unicode = 021D;
},
{
glyphname = uni0220;
lastChange = "2017-05-19 14:54:55 +0000";
layers = (
{
layerId = "3D6436C0-838D-49FE-97BE-67FAF848B66F";
paths = (
{
closed = 1;
nodes = (
"1214 1320 OFFCURVE",
"1035 1476 OFFCURVE",
"791 1476 CURVE SMOOTH",
"630 1476 OFFCURVE",
"490 1425 OFFCURVE",
"369 1324 CURVE",
"395 1456 LINE",
"341 1456 LINE",
"90 0 LINE",
"144 0 LINE",
"362 1254 LINE",
"481 1358 OFFCURVE",
"632 1423 OFFCURVE",
"792 1423 CURVE SMOOTH",
"1001 1422 OFFCURVE",
"1158 1285 OFFCURVE",
"1122 1068 CURVE SMOOTH",
"861 -437 LINE",
"915 -437 LINE",
"1175 1068 LINE SMOOTH"
);
}
);
width = 1273;
}
);
note = uni0220;
unicode = 0220;
},
{
glyphname = uni0221;
lastChange = "2017-05-19 14:54:55 +0000";
layers = (
{
layerId = "3D6436C0-838D-49FE-97BE-67FAF848B66F";
paths = (
{
closed = 1;
nodes = (
"866 1026 OFFCURVE",
"747 1102 OFFCURVE",
"596 1102 CURVE SMOOTH",
"497 1102 OFFCURVE",
"414 1074 OFFCURVE",
"347 1018 CURVE SMOOTH",
"214 905 OFFCURVE",
"140 723 OFFCURVE",
"109 552 CURVE",
"106 531 LINE SMOOTH",
"93 454 OFFCURVE",
"92 372 OFFCURVE",
"103 287 CURVE SMOOTH",
"123 116 OFFCURVE",
"211 -20 OFFCURVE",
"410 -20 CURVE SMOOTH",
"566 -20 OFFCURVE",
"704 53 OFFCURVE",
"800 174 CURVE",
"741 -136 LINE",
"739 -147 LINE",
"566 -368 LINE",
"608 -400 LINE",
"738 -234 LINE",
"741 -369 OFFCURVE",
"823 -438 OFFCURVE",
"958 -437 CURVE SMOOTH",
"1093 -434 OFFCURVE",
"1195 -336 OFFCURVE",
"1215 -204 CURVE SMOOTH",
"1234 -83 OFFCURVE",
"1168 17 OFFCURVE",
"1040 17 CURVE SMOOTH",
"964 17 OFFCURVE",
"884 -17 OFFCURVE",
"801 -86 CURVE",
"1085 1536 LINE",
"1031 1536 LINE",
"917 883 LINE"
);
},
{
closed = 1;
nodes = (
"142 477 OFFCURVE",
"171 632 OFFCURVE",
"238 781 CURVE SMOOTH",
"306 932 OFFCURVE",
"420 1048 OFFCURVE",
"596 1048 CURVE SMOOTH",
"769 1048 OFFCURVE",
"876 942 OFFCURVE",
"901 775 CURVE",
"811 269 LINE",
"724 124 OFFCURVE",
"581 34 OFFCURVE",
"408 34 CURVE SMOOTH",
"229 35 OFFCURVE",
"161 161 OFFCURVE",
"152 316 CURVE SMOOTH"
);
},
{
closed = 1;
nodes = (
"1130 -38 OFFCURVE",
"1180 -109 OFFCURVE",
"1161 -204 CURVE SMOOTH",
"1142 -305 OFFCURVE",
"1062 -380 OFFCURVE",
"957 -383 CURVE SMOOTH",
"816 -384 OFFCURVE",
"775 -295 OFFCURVE",
"792 -168 CURVE",
"857 -104 OFFCURVE",
"932 -37 OFFCURVE",
"1031 -37 CURVE SMOOTH"
);
}
);
width = 1382;
}
);
leftKerningGroup = c;
note = uni0221;
unicode = 0221;
},
{
glyphname = uni0222;
lastChange = "2017-05-19 14:54:55 +0000";
layers = (
{
layerId = "3D6436C0-838D-49FE-97BE-67FAF848B66F";
paths = (
{
closed = 1;
nodes = (
"1231 619 OFFCURVE",
"1122 766 OFFCURVE",
"930 821 CURVE",
"1119 854 OFFCURVE",
"1293 945 OFFCURVE",
"1326 1152 CURVE SMOOTH",
"1358 1348 OFFCURVE",
"1225 1460 OFFCURVE",
"1041 1476 CURVE",
"1033 1422 LINE",
"1189 1405 OFFCURVE",
"1304 1323 OFFCURVE",
"1272 1152 CURVE SMOOTH",
"1240 984 OFFCURVE",
"1116 906 OFFCURVE",
"965 876 CURVE SMOOTH",
"814 846 OFFCURVE",
"650 845 OFFCURVE",
"503 874 CURVE SMOOTH",
"356 902 OFFCURVE",
"255 980 OFFCURVE",
"288 1152 CURVE SMOOTH",
"320 1321 OFFCURVE",
"460 1405 OFFCURVE",
"621 1422 CURVE",
"629 1476 LINE",
"434 1460 OFFCURVE",
"266 1356 OFFCURVE",
"234 1152 CURVE SMOOTH",
"202 956 OFFCURVE",
"340 857 OFFCURVE",
"515 822 CURVE",
"411 796 OFFCURVE",
"322 749 OFFCURVE",
"247 681 CURVE SMOOTH",
"97 545 OFFCURVE",
"63 299 OFFCURVE",
"144 172 CURVE SMOOTH",
"225 44 OFFCURVE",
"388 -19 OFFCURVE",
"561 -20 CURVE SMOOTH",
"595 -20 LINE SMOOTH",
"874 -20 OFFCURVE",
"1150 120 OFFCURVE",
"1198 416 CURVE SMOOTH"
);
},
{
closed = 1;
nodes = (
"820 797 OFFCURVE",
"892 783 OFFCURVE",
"959 756 CURVE SMOOTH",
"1094 701 OFFCURVE",
"1177 589 OFFCURVE",
"1144 416 CURVE SMOOTH",
"1096 155 OFFCURVE",
"846 37 OFFCURVE",
"601 34 CURVE SMOOTH",
"560 34 LINE SMOOTH",
"485 35 OFFCURVE",
"414 49 OFFCURVE",
"347 76 CURVE SMOOTH",
"213 131 OFFCURVE",
"129 241 OFFCURVE",
"161 414 CURVE SMOOTH",
"209 673 OFFCURVE",
"460 795 OFFCURVE",
"703 798 CURVE SMOOTH",
"745 798 LINE SMOOTH"
);
}
);
width = 1370;
}
);
note = uni0222;
unicode = 0222;
},
{
glyphname = uni0223;
lastChange = "2017-05-19 14:54:55 +0000";
layers = (
{
layerId = "3D6436C0-838D-49FE-97BE-67FAF848B66F";
paths = (
{
closed = 1;
nodes = (
"1229 615 OFFCURVE",
"1113 759 OFFCURVE",
"918 811 CURVE",
"1125 854 OFFCURVE",
"1296 972 OFFCURVE",
"1332 1192 CURVE SMOOTH",
"1364 1391 OFFCURVE",
"1254 1540 OFFCURVE",
"1054 1557 CURVE",
"1046 1503 LINE",
"1134 1494 OFFCURVE",
"1199 1462 OFFCURVE",
"1241 1407 CURVE SMOOTH",
"1324 1297 OFFCURVE",
"1281 1087 OFFCURVE",
"1171 984 CURVE SMOOTH",
"1061 881 OFFCURVE",
"900 841 OFFCURVE",
"740 840 CURVE SMOOTH",
"698 840 LINE SMOOTH",
"625 841 OFFCURVE",
"555 852 OFFCURVE",
"487 873 CURVE SMOOTH",
"350 916 OFFCURVE",
"261 1014 OFFCURVE",
"294 1190 CURVE SMOOTH",
"330 1377 OFFCURVE",
"479 1487 OFFCURVE",
"663 1503 CURVE",
"670 1557 LINE",
"453 1542 OFFCURVE",
"276 1413 OFFCURVE",
"240 1190 CURVE SMOOTH",
"207 986 OFFCURVE",
"330 857 OFFCURVE",
"521 813 CURVE",
"416 788 OFFCURVE",
"325 742 OFFCURVE",
"248 675 CURVE SMOOTH",
"93 542 OFFCURVE",
"60 293 OFFCURVE",
"144 168 CURVE SMOOTH",
"227 43 OFFCURVE",
"389 -19 OFFCURVE",
"560 -20 CURVE SMOOTH",
"602 -20 LINE SMOOTH",
"692 -19 OFFCURVE",
"780 -3 OFFCURVE",
"865 28 CURVE SMOOTH",
"1036 90 OFFCURVE",
"1165 215 OFFCURVE",
"1196 410 CURVE SMOOTH"
);
},
{
closed = 1;
nodes = (
"816 785 OFFCURVE",
"887 772 OFFCURVE",
"954 745 CURVE SMOOTH",
"1089 692 OFFCURVE",
"1174 582 OFFCURVE",
"1142 410 CURVE SMOOTH",
"1094 151 OFFCURVE",
"841 37 OFFCURVE",
"600 34 CURVE SMOOTH",
"559 34 LINE SMOOTH",
"485 35 OFFCURVE",
"414 48 OFFCURVE",
"347 75 CURVE SMOOTH",
"212 128 OFFCURVE",
"127 236 OFFCURVE",
"159 408 CURVE SMOOTH",
"207 664 OFFCURVE",
"460 783 OFFCURVE",
"700 786 CURVE SMOOTH",
"742 786 LINE SMOOTH"
);
}
);
width = 1369;
}
);
note = uni0223;
unicode = 0223;
},
{
glyphname = uni0224;
lastChange = "2017-05-19 14:54:55 +0000";
layers = (
{
layerId = "3D6436C0-838D-49FE-97BE-67FAF848B66F";
paths = (
{
closed = 1;
nodes = (
"-6 44 LINE",
"-13 0 LINE",
"671 0 LINE SMOOTH",
"811 -3 OFFCURVE",
"941 -68 OFFCURVE",
"910 -231 CURVE SMOOTH",
"905 -259 OFFCURVE",
"893 -292 OFFCURVE",
"874 -329 CURVE",
"925 -342 LINE",
"945 -301 OFFCURVE",
"958 -264 OFFCURVE",
"963 -231 CURVE SMOOTH",
"995 -34 OFFCURVE",
"843 53 OFFCURVE",
"666 54 CURVE SMOOTH",
"71 54 LINE",
"1207 1418 LINE",
"1212 1455 LINE",
"276 1456 LINE",
"269 1403 LINE",
"1127 1403 LINE"
);
}
);
width = 1187;
}
);
note = uni0224;
unicode = 0224;
},
{
glyphname = uni0225;
lastChange = "2017-05-19 14:54:55 +0000";
layers = (
{
layerId = "3D6436C0-838D-49FE-97BE-67FAF848B66F";
paths = (
{
closed = 1;
nodes = (
"197 1082 LINE",
"189 1027 LINE",
"845 1027 LINE",
"-12 44 LINE",
"-19 0 LINE",
"469 0 LINE SMOOTH",
"609 -3 OFFCURVE",
"738 -68 OFFCURVE",
"707 -231 CURVE SMOOTH",
"702 -256 OFFCURVE",
"691 -288 OFFCURVE",
"672 -329 CURVE",
"723 -342 LINE",
"744 -295 OFFCURVE",
"756 -258 OFFCURVE",
"761 -231 CURVE SMOOTH",
"793 -34 OFFCURVE",
"639 54 OFFCURVE",
"458 54 CURVE SMOOTH",
"65 54 LINE",
"921 1034 LINE",
"928 1081 LINE"
);
}
);
width = 949;
}
);
note = uni0225;
unicode = 0225;
},
{
glyphname = uni0234;
lastChange = "2017-05-19 14:54:55 +0000";
layers = (
{
layerId = "3D6436C0-838D-49FE-97BE-67FAF848B66F";
paths = (
{
closed = 1;
nodes = (
"24 -147 LINE",
"-150 -368 LINE",
"-107 -400 LINE",
"22 -234 LINE",
"25 -369 OFFCURVE",
"107 -438 OFFCURVE",
"242 -437 CURVE SMOOTH",
"377 -434 OFFCURVE",
"479 -336 OFFCURVE",
"499 -204 CURVE SMOOTH",
"518 -83 OFFCURVE",
"452 17 OFFCURVE",
"324 17 CURVE SMOOTH",
"232 17 OFFCURVE",
"154 -30 OFFCURVE",
"85 -86 CURVE",
"369 1536 LINE",
"315 1536 LINE",
"25 -136 LINE"
);
},
{
closed = 1;
nodes = (
"414 -38 OFFCURVE",
"463 -109 OFFCURVE",
"446 -204 CURVE SMOOTH",
"426 -305 OFFCURVE",
"346 -380 OFFCURVE",
"241 -383 CURVE SMOOTH",
"100 -384 OFFCURVE",
"60 -295 OFFCURVE",
"76 -168 CURVE",
"141 -104 OFFCURVE",
"218 -37 OFFCURVE",
"315 -37 CURVE SMOOTH"
);
}
);
width = 666;
}
);
note = uni0234;
unicode = 0234;
},
{
glyphname = uni0235;
lastChange = "2017-05-19 14:54:55 +0000";
layers = (
{
layerId = "3D6436C0-838D-49FE-97BE-67FAF848B66F";
paths = (
{
closed = 1;
nodes = (
"491 1101 OFFCURVE",
"348 979 OFFCURVE",
"256 830 CURVE",
"303 1082 LINE",
"249 1082 LINE",
"63 0 LINE",
"117 0 LINE",
"237 693 LINE",
"292 874 OFFCURVE",
"480 1046 OFFCURVE",
"672 1049 CURVE SMOOTH",
"887 1050 OFFCURVE",
"921 881 OFFCURVE",
"890 700 CURVE SMOOTH",
"744 -136 LINE",
"742 -147 LINE",
"569 -368 LINE",
"611 -400 LINE",
"741 -234 LINE",
"744 -369 OFFCURVE",
"827 -438 OFFCURVE",
"960 -437 CURVE SMOOTH",
"1096 -434 OFFCURVE",
"1198 -336 OFFCURVE",
"1218 -204 CURVE SMOOTH",
"1237 -83 OFFCURVE",
"1171 17 OFFCURVE",
"1043 17 CURVE SMOOTH",
"967 17 OFFCURVE",
"887 -17 OFFCURVE",
"804 -86 CURVE",
"944 700 LINE SMOOTH",
"977 913 OFFCURVE",
"919 1103 OFFCURVE",
"674 1102 CURVE SMOOTH"
);
},
{
closed = 1;
nodes = (
"1132 -38 OFFCURVE",
"1183 -109 OFFCURVE",
"1164 -204 CURVE SMOOTH",
"1144 -305 OFFCURVE",
"1065 -380 OFFCURVE",
"960 -383 CURVE SMOOTH",
"819 -384 OFFCURVE",
"778 -295 OFFCURVE",
"795 -168 CURVE",
"859 -104 OFFCURVE",
"936 -37 OFFCURVE",
"1033 -37 CURVE SMOOTH"
);
}
);
width = 1385;
}
);
leftKerningGroup = m;
note = uni0235;
unicode = 0235;
},
{
glyphname = uni0236;
lastChange = "2017-05-19 14:54:55 +0000";
layers = (
{
layerId = "3D6436C0-838D-49FE-97BE-67FAF848B66F";
paths = (
{
closed = 1;
nodes = (
"649 334 OFFCURVE",
"583 434 OFFCURVE",
"455 434 CURVE SMOOTH",
"379 434 OFFCURVE",
"300 400 OFFCURVE",
"217 332 CURVE",
"341 1027 LINE",
"580 1027 LINE",
"588 1082 LINE",
"350 1082 LINE",
"400 1374 LINE",
"345 1374 LINE",
"295 1082 LINE",
"100 1082 LINE",
"93 1027 LINE",
"286 1027 LINE",
"156 281 LINE",
"154 270 LINE",
"-19 49 LINE",
"23 17 LINE",
"152 183 LINE",
"155 48 OFFCURVE",
"239 -21 OFFCURVE",
"372 -20 CURVE SMOOTH",
"507 -17 OFFCURVE",
"610 81 OFFCURVE",
"630 213 CURVE SMOOTH"
);
},
{
closed = 1;
nodes = (
"544 379 OFFCURVE",
"595 308 OFFCURVE",
"576 213 CURVE SMOOTH",
"556 112 OFFCURVE",
"476 37 OFFCURVE",
"372 34 CURVE SMOOTH",
"229 33 OFFCURVE",
"191 123 OFFCURVE",
"207 250 CURVE",
"272 314 OFFCURVE",
"348 380 OFFCURVE",
"445 380 CURVE SMOOTH"
);
}
);
width = 726;
}
);
note = uni0236;
unicode = 0236;
},
{
glyphname = uni0237;
lastChange = "2017-05-19 14:54:55 +0000";
layers = (
{
layerId = "3D6436C0-838D-49FE-97BE-67FAF848B66F";
paths = (
{
closed = 1;
nodes = (
"36 -228 OFFCURVE",
"-50 -383 OFFCURVE",
"-218 -383 CURVE SMOOTH",
"-246 -383 OFFCURVE",
"-276 -377 OFFCURVE",
"-309 -366 CURVE",
"-329 -416 LINE",
"-287 -430 OFFCURVE",
"-250 -437 OFFCURVE",
"-219 -437 CURVE SMOOTH",
"-19 -437 OFFCURVE",
"83 -266 OFFCURVE",
"115 -89 CURVE SMOOTH",
"317 1082 LINE",
"263 1082 LINE",
"61 -83 LINE SMOOTH"
);
}
);
width = 409;
}
);
note = uni0237;
unicode = 0237;
},
{
glyphname = uni0238;
lastChange = "2017-05-19 14:54:55 +0000";
layers = (
{
layerId = "3D6436C0-838D-49FE-97BE-67FAF848B66F";
paths = (
{
closed = 1;
nodes = (
"1680 640 OFFCURVE",
"1680 718 OFFCURVE",
"1671 799 CURVE SMOOTH",
"1651 968 OFFCURVE",
"1562 1102 OFFCURVE",
"1361 1102 CURVE SMOOTH",
"1197 1102 OFFCURVE",
"1062 1015 OFFCURVE",
"969 886 CURVE",
"1085 1536 LINE",
"1031 1536 LINE",
"917 883 LINE",
"866 1026 OFFCURVE",
"747 1102 OFFCURVE",
"596 1102 CURVE SMOOTH",
"497 1102 OFFCURVE",
"414 1074 OFFCURVE",
"347 1018 CURVE SMOOTH",
"214 905 OFFCURVE",
"140 723 OFFCURVE",
"109 552 CURVE",
"106 531 LINE SMOOTH",
"93 454 OFFCURVE",
"92 372 OFFCURVE",
"103 287 CURVE SMOOTH",
"123 116 OFFCURVE",
"211 -20 OFFCURVE",
"410 -20 CURVE SMOOTH",
"566 -20 OFFCURVE",
"704 53 OFFCURVE",
"800 174 CURVE",
"766 0 LINE",
"820 0 LINE",
"851 171 LINE",
"881 106 OFFCURVE",
"926 58 OFFCURVE",
"985 27 CURVE SMOOTH",
"1103 -35 OFFCURVE",
"1293 -47 OFFCURVE",
"1426 66 CURVE SMOOTH",
"1558 179 OFFCURVE",
"1633 363 OFFCURVE",
"1664 531 CURVE",
"1669 565 LINE SMOOTH"
);
},
{
closed = 1;
nodes = (
"142 477 OFFCURVE",
"171 632 OFFCURVE",
"238 781 CURVE SMOOTH",
"306 932 OFFCURVE",
"420 1048 OFFCURVE",
"596 1048 CURVE SMOOTH",
"769 1048 OFFCURVE",
"876 942 OFFCURVE",
"901 775 CURVE",
"811 269 LINE",
"724 124 OFFCURVE",
"581 34 OFFCURVE",
"408 34 CURVE SMOOTH",
"229 35 OFFCURVE",
"161 161 OFFCURVE",
"152 316 CURVE SMOOTH"
);
},
{
closed = 1;
nodes = (
"1542 1048 OFFCURVE",
"1610 921 OFFCURVE",
"1621 768 CURVE SMOOTH",
"1631 605 OFFCURVE",
"1602 449 OFFCURVE",
"1534 299 CURVE SMOOTH",
"1465 147 OFFCURVE",
"1352 35 OFFCURVE",
"1179 34 CURVE SMOOTH",
"1020 34 OFFCURVE",
"897 115 OFFCURVE",
"866 274 CURVE",
"954 770 LINE",
"1010 935 OFFCURVE",
"1194 1048 OFFCURVE",
"1362 1048 CURVE SMOOTH"
);
}
);
width = 1793;
}
);
note = uni0238;
rightKerningGroup = b;
unicode = 0238;
},
{
glyphname = uni0239;
lastChange = "2017-05-19 14:54:55 +0000";
layers = (
{
layerId = "3D6436C0-838D-49FE-97BE-67FAF848B66F";
paths = (
{
closed = 1;
nodes = (
"1277 -19 OFFCURVE",
"1359 9 OFFCURVE",
"1426 66 CURVE SMOOTH",
"1558 179 OFFCURVE",
"1633 363 OFFCURVE",
"1664 531 CURVE",
"1669 565 LINE SMOOTH",
"1680 640 OFFCURVE",
"1680 717 OFFCURVE",
"1671 798 CURVE SMOOTH",
"1651 969 OFFCURVE",
"1562 1102 OFFCURVE",
"1361 1102 CURVE SMOOTH",
"1197 1102 OFFCURVE",
"1065 1017 OFFCURVE",
"969 889 CURVE",
"1006 1082 LINE",
"952 1082 LINE",
"918 889 LINE",
"863 1029 OFFCURVE",
"744 1102 OFFCURVE",
"596 1102 CURVE SMOOTH",
"497 1102 OFFCURVE",
"414 1074 OFFCURVE",
"347 1018 CURVE SMOOTH",
"214 905 OFFCURVE",
"140 723 OFFCURVE",
"109 552 CURVE",
"106 531 LINE SMOOTH",
"93 454 OFFCURVE",
"92 372 OFFCURVE",
"103 287 CURVE SMOOTH",
"123 116 OFFCURVE",
"211 -20 OFFCURVE",
"410 -20 CURVE SMOOTH",
"566 -20 OFFCURVE",
"696 43 OFFCURVE",
"799 169 CURVE",
"694 -416 LINE",
"748 -416 LINE",
"851 169 LINE",
"911 40 OFFCURVE",
"1039 -20 OFFCURVE",
"1178 -20 CURVE SMOOTH"
);
},
{
closed = 1;
nodes = (
"142 477 OFFCURVE",
"171 632 OFFCURVE",
"238 781 CURVE SMOOTH",
"306 932 OFFCURVE",
"420 1048 OFFCURVE",
"596 1048 CURVE SMOOTH",
"768 1048 OFFCURVE",
"874 938 OFFCURVE",
"901 775 CURVE",
"811 269 LINE",
"724 124 OFFCURVE",
"581 34 OFFCURVE",
"408 34 CURVE SMOOTH",
"229 35 OFFCURVE",
"161 161 OFFCURVE",
"152 316 CURVE SMOOTH"
);
},
{
closed = 1;
nodes = (
"1452 1048 OFFCURVE",
"1516 1021 OFFCURVE",
"1555 966 CURVE SMOOTH",
"1632 857 OFFCURVE",
"1635 687 OFFCURVE",
"1612 552 CURVE SMOOTH",
"1594 457 OFFCURVE",
"1568 371 OFFCURVE",
"1533 296 CURVE SMOOTH",
"1463 144 OFFCURVE",
"1351 35 OFFCURVE",
"1179 34 CURVE SMOOTH",
"1022 34 OFFCURVE",
"898 113 OFFCURVE",
"865 269 CURVE",
"955 775 LINE",
"1011 939 OFFCURVE",
"1197 1048 OFFCURVE",
"1362 1048 CURVE SMOOTH"
);
}
);
width = 1793;
}
);
note = uni0239;
rightKerningGroup = b;
unicode = 0239;
},
{
glyphname = uni023A;
lastChange = "2017-05-19 14:54:55 +0000";
layers = (
{
layerId = "3D6436C0-838D-49FE-97BE-67FAF848B66F";
paths = (
{
closed = 1;
nodes = (
"0 135 LINE",
"-72 0 LINE",
"-12 0 LINE",
"142 288 LINE",
"281 435 LINE",
"911 435 LINE",
"994 0 LINE",
"1051 0 LINE",
"851 1039 LINE",
"1360 1579 LINE",
"1290 1580 LINE",
"839 1104 LINE",
"771 1456 LINE",
"706 1455 LINE",
"95 316 LINE",
"-318 -123 LINE",
"-248 -124 LINE"
);
},
{
closed = 1;
nodes = (
"794 1056 LINE",
"258 489 LINE",
"246 488 LINE",
"732 1389 LINE"
);
},
{
closed = 1;
nodes = (
"901 489 LINE",
"332 489 LINE",
"807 991 LINE"
);
}
);
width = 1186;
}
);
note = uni023A;
unicode = 023A;
},
{
glyphname = uni023B;
lastChange = "2017-05-19 14:54:55 +0000";
layers = (
{
layerId = "3D6436C0-838D-49FE-97BE-67FAF848B66F";
paths = (
{
closed = 1;
nodes = (
"846 -21 OFFCURVE",
"1051 166 OFFCURVE",
"1128 445 CURVE",
"1074 445 LINE",
"1035 320 OFFCURVE",
"972 220 OFFCURVE",
"884 145 CURVE SMOOTH",
"707 -4 OFFCURVE",
"459 14 OFFCURVE",
"336 97 CURVE",
"1034 1366 LINE",
"1155 1285 OFFCURVE",
"1181 1149 OFFCURVE",
"1174 1012 CURVE",
"1227 1012 LINE",
"1235 1172 OFFCURVE",
"1200 1327 OFFCURVE",
"1057 1416 CURVE",
"1148 1580 LINE",
"1087 1580 LINE",
"1008 1440 LINE",
"877 1488 OFFCURVE",
"665 1506 OFFCURVE",
"494 1381 CURVE SMOOTH",
"322 1256 OFFCURVE",
"217 1048 OFFCURVE",
"180 837 CURVE SMOOTH",
"143 619 LINE SMOOTH",
"111 430 OFFCURVE",
"125 219 OFFCURVE",
"269 78 CURVE",
"157 -124 LINE",
"217 -124 LINE",
"313 46 LINE",
"382 2 OFFCURVE",
"461 -20 OFFCURVE",
"549 -20 CURVE SMOOTH"
);
},
{
closed = 1;
nodes = (
"180 449 OFFCURVE",
"182 535 OFFCURVE",
"196 619 CURVE SMOOTH",
"236 845 LINE SMOOTH",
"272 1033 OFFCURVE",
"369 1222 OFFCURVE",
"524 1336 CURVE SMOOTH",
"679 1450 OFFCURVE",
"873 1433 OFFCURVE",
"986 1390 CURVE",
"294 131 LINE",
"233 197 OFFCURVE",
"198 274 OFFCURVE",
"189 362 CURVE SMOOTH"
);
}
);
width = 1287;
}
);
note = uni023B;
unicode = 023B;
},
